<svg width="150" height="150" viewBox="0 0 150 150" fill="none" xmlns="http://www.w3.org/2000/svg">
<g id="exclusive_premium_special_service_vip_services_icon_263014 1">
<path id="Vector" d="M104.362 81.5426H45.6383C45.3209 81.5426 45.0165 81.4165 44.792 81.192C44.5676 80.9676 44.4415 80.6632 44.4415 80.3457V72.1596C44.4415 71.8422 44.5676 71.5377 44.792 71.3133C45.0165 71.0889 45.3209 70.9628 45.6383 70.9628H104.362C104.679 70.9628 104.984 71.0889 105.208 71.3133C105.432 71.5377 105.559 71.8422 105.559 72.1596V80.3457C105.559 80.6632 105.432 80.9676 105.208 81.192C104.984 81.4165 104.679 81.5426 104.362 81.5426ZM46.8351 79.1489H103.165V73.4043H46.8351V79.1489Z" fill="#380017"/>
<path id="Vector_2" d="M45.6383 73.4042C45.3615 73.4017 45.0942 73.3033 44.8818 73.1258C44.6694 72.9484 44.5251 72.7027 44.4734 72.4308C44.4734 72.3191 42.1436 61.0212 31.7075 47.5212C31.5244 47.2878 31.436 46.9941 31.4596 46.6984C31.4833 46.4028 31.6173 46.1268 31.8351 45.9255C32.0545 45.7292 32.3386 45.6207 32.633 45.6207C32.9274 45.6207 33.2114 45.7292 33.4309 45.9255C35.6011 47.8244 42.5266 52.851 45.7819 50.9202C48.7181 49.1968 48.3511 39.75 47.3777 34.3085C47.2719 33.9995 47.2931 33.6612 47.4368 33.3679C47.5804 33.0746 47.8347 32.8504 48.1436 32.7446C48.4526 32.6388 48.7909 32.6601 49.0842 32.8037C49.3774 32.9474 49.6016 33.2016 49.7074 33.5106C49.7074 33.5106 53.9362 42.8776 60.383 45.6223C61.1161 45.9412 61.9198 46.0633 62.7146 45.9765C63.5094 45.8897 64.2678 45.5972 64.9149 45.1276C67.7394 43.0532 72.6543 37.1489 73.8032 21.3829C73.8277 21.0668 73.9751 20.7729 74.2137 20.5641C74.4523 20.3553 74.7632 20.2483 75.0798 20.2659C75.2385 20.276 75.3937 20.3176 75.5361 20.3883C75.6786 20.459 75.8056 20.5574 75.9096 20.6778C76.0136 20.7981 76.0925 20.938 76.1418 21.0892C76.1912 21.2404 76.2099 21.4 76.1968 21.5585C75.0319 37.5159 70.1968 44.218 66.3351 47.0904C65.3494 47.8011 64.1968 48.2451 62.989 48.3793C61.7812 48.5135 60.5592 48.3334 59.4415 47.8563C55.7278 45.9978 52.6057 43.1409 50.4255 39.6063C50.6809 44.4893 50.3298 50.9202 46.9947 52.8989C44.2819 54.4946 40.6117 53.3297 37.6436 51.6861C45.016 62.968 46.7394 71.4893 46.8192 71.9042C46.8802 72.2152 46.8153 72.5378 46.6388 72.801C46.4623 73.0643 46.1886 73.2468 45.8777 73.3085L45.6383 73.4042Z" fill="#380017"/>
<path id="Vector_3" d="M30.8936 48.5744C30.1233 48.5587 29.3748 48.3157 28.7421 47.876C28.1094 47.4362 27.6208 46.8193 27.3376 46.1028C27.0544 45.3863 26.9892 44.602 27.1502 43.8485C27.3112 43.0951 27.6913 42.406 28.2427 41.8678C28.7941 41.3297 29.4922 40.9664 30.2494 40.8237C31.0066 40.681 31.789 40.7653 32.4984 41.0658C33.2079 41.3663 33.8127 41.8698 34.237 42.513C34.6612 43.1562 34.886 43.9103 34.883 44.6808C34.8662 45.7249 34.4374 46.7199 33.6902 47.4492C32.9429 48.1786 31.9377 48.583 30.8936 48.5744ZM30.8936 43.1649C30.6826 43.1431 30.4693 43.1659 30.2676 43.2318C30.0659 43.2977 29.8803 43.4052 29.7227 43.5473C29.5652 43.6895 29.4393 43.8631 29.3531 44.057C29.2669 44.2508 29.2223 44.4607 29.2223 44.6728C29.2223 44.885 29.2669 45.0948 29.3531 45.2887C29.4393 45.4826 29.5652 45.6562 29.7227 45.7984C29.8803 45.9405 30.0659 46.048 30.2676 46.1139C30.4693 46.1798 30.6826 46.2026 30.8936 46.1808C31.1047 46.2026 31.318 46.1798 31.5196 46.1139C31.7213 46.048 31.907 45.9405 32.0645 45.7984C32.222 45.6562 32.348 45.4826 32.4342 45.2887C32.5204 45.0948 32.5649 44.885 32.5649 44.6728C32.5649 44.4607 32.5204 44.2508 32.4342 44.057C32.348 43.8631 32.222 43.6895 32.0645 43.5473C31.907 43.4052 31.7213 43.2977 31.5196 43.2318C31.318 43.1659 31.1047 43.1431 30.8936 43.1649Z" fill="#380017"/>
<path id="Vector_4" d="M47.9681 35.3138C47.0905 35.3196 46.2357 35.0346 45.5371 34.5035C44.8385 33.9723 44.3354 33.2248 44.1064 32.3776C43.9774 31.8844 43.9491 31.3702 44.0232 30.8657C44.0972 30.3613 44.272 29.8769 44.5372 29.4415C44.8048 28.9882 45.1623 28.5944 45.5876 28.2844C46.013 27.9743 46.4972 27.7544 47.0106 27.6383C48.0192 27.3939 49.0833 27.5522 49.9771 28.0796C50.8709 28.6069 51.524 29.4618 51.7979 30.4628C51.9273 30.9533 51.9559 31.4651 51.8819 31.967C51.8078 32.469 51.6326 32.9507 51.367 33.383C51.0122 33.9751 50.5091 34.4646 49.9075 34.8032C49.3059 35.1417 48.6265 35.3177 47.9362 35.3138H47.9681ZM47.9681 29.9042H47.5691C47.1614 30.0119 46.8085 30.268 46.5798 30.6223C46.3858 30.9548 46.3286 31.3496 46.4202 31.7234C46.5356 32.1255 46.8043 32.4661 47.1684 32.6721C47.5325 32.878 47.963 32.9327 48.367 32.8245C48.571 32.7757 48.7634 32.6871 48.9332 32.5639C49.103 32.4407 49.2468 32.2852 49.3564 32.1064C49.552 31.7745 49.6093 31.3791 49.516 31.0053C49.41 30.6801 49.2024 30.3976 48.9237 30.1994C48.645 30.0011 48.31 29.8977 47.9681 29.9042Z" fill="#380017"/>
<path id="Vector_5" d="M104.362 73.4042H104.122C103.811 73.3425 103.538 73.16 103.361 72.8968C103.185 72.6335 103.12 72.311 103.181 71.9999C103.181 71.585 104.984 63.0638 112.356 51.7819C109.324 53.3776 105.718 54.5904 103.005 52.9946C99.6702 51.0159 99.3192 44.585 99.5745 39.7021C97.3829 43.2072 94.2619 46.0355 90.5585 47.8723C89.4408 48.3493 88.2188 48.5294 87.0111 48.3952C85.8033 48.261 84.6506 47.817 83.6649 47.1063C79.8032 44.2659 74.9681 37.5319 73.8032 21.5744C73.7917 21.4172 73.8112 21.2593 73.8607 21.1097C73.9102 20.9601 73.9887 20.8217 74.0917 20.7024C74.1947 20.5831 74.3201 20.4853 74.4609 20.4145C74.6017 20.3437 74.7551 20.3014 74.9122 20.2898C75.0694 20.2783 75.2273 20.2979 75.3769 20.3473C75.5265 20.3968 75.6649 20.4753 75.7842 20.5783C75.9035 20.6813 76.0013 20.8068 76.0721 20.9476C76.1429 21.0884 76.1853 21.2417 76.1968 21.3989C77.3458 37.2127 82.2606 43.0691 85.0851 45.1436C85.7322 45.6131 86.4906 45.9057 87.2854 45.9924C88.0802 46.0792 88.8839 45.9571 89.617 45.6382C96.0798 42.8776 100.245 33.6063 100.293 33.5265C100.416 33.2702 100.626 33.0661 100.886 32.9507C101.146 32.8354 101.438 32.8163 101.711 32.897C101.984 32.9776 102.219 33.1527 102.374 33.3909C102.529 33.629 102.595 33.9147 102.559 34.1968C101.649 39.7021 101.282 49.085 104.154 50.8085C107.346 52.7393 114.335 47.7127 116.505 45.8138C116.725 45.6175 117.009 45.509 117.303 45.509C117.598 45.509 117.882 45.6175 118.101 45.8138C118.319 46.0151 118.453 46.291 118.477 46.5867C118.5 46.8824 118.412 47.1761 118.229 47.4095C107.745 60.9574 105.463 72.2074 105.463 72.3191C105.437 72.6009 105.313 72.8646 105.111 73.0633C104.909 73.2619 104.644 73.3827 104.362 73.4042Z" fill="#380017"/>
<path id="Vector_6" d="M119.106 48.5745C118.335 48.5619 117.585 48.3215 116.95 47.8837C116.316 47.4458 115.824 46.8299 115.539 46.1136C115.253 45.3973 115.186 44.6125 115.345 43.8579C115.504 43.1034 115.883 42.4128 116.434 41.8731C116.985 41.3333 117.683 40.9685 118.441 40.8246C119.198 40.6806 119.981 40.764 120.692 41.0641C121.402 41.3642 122.008 41.8677 122.433 42.5113C122.858 43.1549 123.083 43.9097 123.08 44.6809C123.063 45.7221 122.636 46.7148 121.893 47.4437C121.149 48.1725 120.148 48.5788 119.106 48.5745ZM119.106 43.1649C118.81 43.1806 118.524 43.283 118.285 43.4595C118.047 43.636 117.865 43.8788 117.763 44.1577C117.661 44.4366 117.643 44.7394 117.711 45.0284C117.78 45.3174 117.932 45.5799 118.148 45.7833C118.364 45.9868 118.636 46.1221 118.928 46.1726C119.221 46.2232 119.522 46.1866 119.794 46.0674C120.066 45.9483 120.297 45.7519 120.459 45.5025C120.62 45.2532 120.705 44.9619 120.702 44.6649C120.678 44.2585 120.499 43.8768 120.202 43.598C119.906 43.3191 119.514 43.1642 119.106 43.1649Z" fill="#380017"/>
<path id="Vector_7" d="M102.032 35.3138C101.342 35.3177 100.662 35.1417 100.061 34.8032C99.4589 34.4646 98.9559 33.9751 98.6011 33.383C98.3354 32.9507 98.1603 32.469 98.0862 31.967C98.0122 31.4651 98.0407 30.9533 98.1702 30.4628C98.4441 29.4618 99.0972 28.6069 99.991 28.0796C100.885 27.5522 101.949 27.3939 102.957 27.6383C103.471 27.7544 103.955 27.9743 104.38 28.2844C104.806 28.5944 105.163 28.9882 105.431 29.4415C105.696 29.8769 105.871 30.3613 105.945 30.8657C106.019 31.3702 105.991 31.8844 105.862 32.3776C105.634 33.2195 105.136 33.9631 104.444 34.4937C103.752 35.0244 102.904 35.3125 102.032 35.3138ZM102.032 29.9042C101.676 29.8901 101.325 29.9955 101.036 30.2037C100.747 30.412 100.536 30.711 100.436 31.0532C100.343 31.4269 100.4 31.8224 100.596 32.1542C100.705 32.3331 100.849 32.4886 101.019 32.6118C101.189 32.735 101.381 32.8235 101.585 32.8723C101.989 32.9806 102.42 32.9259 102.784 32.7199C103.148 32.514 103.416 32.1733 103.532 31.7713C103.624 31.3974 103.566 31.0026 103.372 30.6702C103.144 30.3159 102.791 30.0598 102.383 29.9521L102.032 29.9042Z" fill="#380017"/>
<path id="Vector_8" d="M75 22.7075C74.2297 22.6918 73.4812 22.4488 72.8485 22.009C72.2158 21.5693 71.7272 20.9524 71.444 20.2359C71.1607 19.5193 71.0956 18.7351 71.2566 17.9816C71.4176 17.2281 71.7977 16.539 72.3491 16.0009C72.9005 15.4627 73.5986 15.0995 74.3558 14.9568C75.1129 14.8141 75.8954 14.8983 76.6048 15.1989C77.3143 15.4994 77.9191 16.0029 78.3434 16.646C78.7676 17.2892 78.9923 18.0434 78.9894 18.8139C78.9726 19.8579 78.5438 20.853 77.7966 21.5823C77.0493 22.3116 76.0441 22.7161 75 22.7075ZM75 17.2979C74.7041 17.3135 74.4192 17.4155 74.1806 17.5913C73.942 17.767 73.7602 18.0089 73.6576 18.2869C73.555 18.5649 73.5361 18.8669 73.6033 19.1555C73.6705 19.4441 73.8208 19.7067 74.0357 19.9108C74.2505 20.1149 74.5205 20.2516 74.8122 20.3039C75.1039 20.3562 75.4045 20.3219 75.6769 20.2052C75.9492 20.0885 76.1815 19.8945 76.3448 19.6472C76.5081 19.3999 76.5953 19.1102 76.5957 18.8139C76.5753 18.4046 76.3981 18.019 76.1011 17.7368C75.804 17.4545 75.4098 17.2974 75 17.2979Z" fill="#380017"/>
<path id="Vector_9" d="M86.984 131.793H86.1702C82.9581 131.46 79.8004 130.726 76.7713 129.606C75.1755 129.128 73.6755 128.617 72.1277 128.234C65.7447 126.638 59.4575 125.25 53.4574 124.069L51.6543 123.718C43.9628 122.122 36.016 120.527 28.516 121.532C28.344 121.552 28.1698 121.535 28.0048 121.483C27.8398 121.43 27.6878 121.344 27.5585 121.229C27.4316 121.111 27.3317 120.968 27.2655 120.808C27.1994 120.648 27.1687 120.476 27.1755 120.303L27.9894 95.0426C27.9959 94.7534 28.1084 94.4766 28.3055 94.2648C28.5025 94.053 28.7705 93.9209 29.0585 93.8936C34.5119 93.2437 39.9208 92.2632 45.2553 90.9575C49.9149 89.7926 62.234 88.133 75 97.8032C76.7407 99.1265 78.799 99.9685 80.9681 100.245L89.6968 101.33C91.469 101.567 93.2693 101.48 95.0106 101.074C100.069 99.9096 108.782 98.7447 112.564 103.34C116.457 101.353 120.535 99.7494 124.739 98.5532C130.183 96.8861 135.932 96.4715 141.559 97.3405C142.877 97.5177 144.131 98.0166 145.21 98.793C146.29 99.5694 147.162 100.6 147.75 101.793C148.016 102.555 148.066 103.375 147.894 104.164C147.722 104.953 147.335 105.678 146.777 106.261C145.764 107.284 144.506 108.031 143.122 108.431C128.505 113.824 114.223 119.346 100.117 127.484C95.0585 130.324 90.6543 131.793 86.984 131.793ZM33.1117 118.851C39.5132 119.066 45.8785 119.905 52.117 121.356L53.9202 121.707C59.9521 122.888 66.2872 124.293 72.7181 125.888C74.3138 126.287 75.9096 126.814 77.5053 127.324C80.3509 128.371 83.3148 129.063 86.3298 129.383C89.6489 129.59 93.9096 128.218 98.9202 125.33C113.186 117.112 127.644 111.543 142.293 106.101C143.288 105.829 144.202 105.32 144.957 104.617C145.241 104.359 145.443 104.023 145.539 103.652C145.635 103.281 145.622 102.89 145.5 102.527C145.053 101.741 144.43 101.07 143.679 100.566C142.929 100.062 142.072 99.7388 141.176 99.6224C135.878 98.8388 130.472 99.2643 125.362 100.867C121.337 102.013 117.431 103.541 113.697 105.431C113.898 106.033 113.97 106.671 113.91 107.303C113.849 107.935 113.657 108.548 113.346 109.101C110.521 114.319 97.8032 116.633 93.4787 116.888C88.2128 117.192 75.9255 116.888 71.1383 115.085C70.8698 114.956 70.6592 114.731 70.5478 114.454C70.4364 114.178 70.4322 113.87 70.536 113.59C70.6398 113.311 70.8441 113.08 71.109 112.944C71.3738 112.807 71.6802 112.774 71.9681 112.851C76.0372 114.351 87.5106 114.83 93.3351 114.447C98.5053 114.144 109.293 111.622 111.223 107.92C111.433 107.534 111.532 107.097 111.509 106.658C111.487 106.219 111.344 105.794 111.096 105.431C108.511 100.915 99.367 102.479 95.5532 103.372C93.5266 103.856 91.43 103.975 89.3617 103.723L80.633 102.638C78.0502 102.299 75.5987 101.299 73.516 99.7341C61.484 90.6702 50.1064 92.2181 45.7819 93.3511C40.6834 94.5638 35.5211 95.4907 30.3192 96.1277L29.5692 118.995C30.766 118.899 31.9149 118.851 33.1117 118.851Z" fill="#380017"/>
<path id="Vector_10" d="M29.1862 96.2713C28.8701 96.2588 28.5714 96.1234 28.3538 95.8939C28.1362 95.6643 28.0169 95.3588 28.0213 95.0426V92.4575H22.3404C22.023 92.4575 21.7186 92.3314 21.4942 92.1069C21.2697 91.8825 21.1436 91.5781 21.1436 91.2607C21.1436 90.9432 21.2697 90.6388 21.4942 90.4144C21.7186 90.1899 22.023 90.0638 22.3404 90.0638H29.2819C29.6034 90.0667 29.9117 90.1923 30.1436 90.4149C30.3618 90.6485 30.4818 90.957 30.4787 91.2766L30.3191 95.0904C30.3155 95.3943 30.1964 95.6855 29.986 95.9048C29.7756 96.1241 29.4897 96.2551 29.1862 96.2713Z" fill="#380017"/>
<path id="Vector_11" d="M28.117 127.564H23.3298C23.0124 127.564 22.708 127.438 22.4835 127.213C22.2591 126.989 22.133 126.684 22.133 126.367C22.133 126.05 22.2591 125.745 22.4835 125.521C22.708 125.296 23.0124 125.17 23.3298 125.17H26.9681L27.1277 120.287C27.1162 120.12 27.1402 119.951 27.1981 119.794C27.2561 119.636 27.3465 119.492 27.4637 119.371C27.5809 119.251 27.7222 119.156 27.8783 119.094C28.0344 119.032 28.2019 119.003 28.3699 119.01C28.5378 119.017 28.7024 119.059 28.853 119.133C29.0037 119.208 29.1369 119.314 29.244 119.443C29.3511 119.573 29.4297 119.723 29.4748 119.885C29.5198 120.047 29.5302 120.217 29.5053 120.383L29.266 126.415C29.2541 126.716 29.1293 127.001 28.9163 127.214C28.7034 127.427 28.418 127.552 28.117 127.564Z" fill="#380017"/>
<path id="Vector_12" d="M3.19149 135.096C2.88852 135.093 2.59767 134.976 2.37617 134.77C2.15468 134.563 2.01859 134.281 1.99468 133.979C1.98165 133.821 2.00044 133.662 2.04994 133.512C2.09944 133.362 2.17864 133.223 2.28284 133.104C2.38703 132.985 2.5141 132.888 2.65649 132.819C2.79887 132.75 2.95368 132.71 3.1117 132.702L22.2606 131.362L21.0638 89.3617L4.78723 88.2926C4.47241 88.2681 4.18003 88.1202 3.97379 87.8811C3.76755 87.6419 3.66417 87.331 3.68617 87.016C3.71071 86.6999 3.85807 86.4059 4.09669 86.1972C4.3353 85.9884 4.64619 85.8813 4.96277 85.899L22.3404 87.0958C22.6384 87.1156 22.9182 87.2461 23.1248 87.4616C23.3315 87.6771 23.4501 87.9622 23.4574 88.2607L24.734 132.447C24.743 132.756 24.6316 133.057 24.4233 133.286C24.215 133.516 23.926 133.655 23.617 133.676L3.27128 135.08L3.19149 135.096Z" fill="#380017"/>
</g>
</svg>
