<svg width="150" height="150" viewBox="0 0 150 150" fill="none" xmlns="http://www.w3.org/2000/svg">
<path d="M30.2344 68.3438C29.9275 68.3398 29.634 68.2172 29.4156 68.0017C29.1971 67.7861 29.0706 67.4943 29.0625 67.1875V40.625H19.4844V55.0937C19.4844 55.4045 19.3609 55.7026 19.1411 55.9224C18.9214 56.1422 18.6233 56.2656 18.3125 56.2656C18.0017 56.2656 17.7036 56.1422 17.4839 55.9224C17.2641 55.7026 17.1406 55.4045 17.1406 55.0937V39.4688C17.1406 39.1579 17.2641 38.8599 17.4839 38.6401C17.7036 38.4203 18.0017 38.2969 18.3125 38.2969H30.2344C30.5452 38.2969 30.8432 38.4203 31.063 38.6401C31.2828 38.8599 31.4062 39.1579 31.4062 39.4688V67.1875C31.3982 67.4943 31.2717 67.7861 31.0532 68.0017C30.8347 68.2172 30.5413 68.3398 30.2344 68.3438Z" fill="#380017"/>
<path d="M18.3125 68.3438C18.0138 68.3281 17.7321 68.2003 17.5235 67.986C17.315 67.7716 17.195 67.4865 17.1875 67.1875V61.4531C17.1875 61.1423 17.311 60.8443 17.5307 60.6245C17.7505 60.4047 18.0486 60.2812 18.3594 60.2812C18.6702 60.2812 18.9682 60.4047 19.188 60.6245C19.4078 60.8443 19.5312 61.1423 19.5312 61.4531V67.1875C19.5272 67.3435 19.4925 67.4971 19.429 67.6396C19.3656 67.7822 19.2746 67.9108 19.1615 68.0182C19.0483 68.1255 18.915 68.2096 18.7694 68.2654C18.6237 68.3213 18.4685 68.3479 18.3125 68.3438Z" fill="#380017"/>
<path d="M35.3906 40.6251H13.1562C12.2883 40.6265 11.437 40.387 10.6972 39.9332C9.95743 39.4794 9.35814 38.8292 8.96612 38.0548C8.5741 37.2805 8.40475 36.4126 8.47694 35.5477C8.54912 34.6828 8.86001 33.8549 9.37497 33.1563L20.4687 17.6407C20.8934 17.0283 21.4579 16.5261 22.1155 16.1755C22.7732 15.825 23.5049 15.6363 24.25 15.6251C25.011 15.6212 25.7614 15.8028 26.4366 16.1539C27.1117 16.5051 27.6912 17.0154 28.125 17.6407L39.25 33.1563C39.7691 33.8603 40.0809 34.6954 40.1501 35.5674C40.2193 36.4393 40.0432 37.3132 39.6417 38.0902C39.2402 38.8673 38.6292 39.5165 37.878 39.9645C37.1267 40.4124 36.2651 40.6412 35.3906 40.6251ZM24.25 18.0313C23.8766 18.0305 23.5085 18.1195 23.1767 18.2908C22.8449 18.4622 22.5592 18.7108 22.3437 19.0157L11.25 34.5313C10.9955 34.8771 10.843 35.2873 10.8099 35.7154C10.7767 36.1435 10.8642 36.5723 11.0625 36.9532C11.2589 37.3394 11.5586 37.6636 11.9282 37.8898C12.2978 38.116 12.7229 38.2353 13.1562 38.2344H35.3906C35.8219 38.2331 36.2445 38.1127 36.6118 37.8866C36.9792 37.6605 37.277 37.3374 37.4724 36.9529C37.6679 36.5684 37.7535 36.1374 37.7198 35.7074C37.686 35.2774 37.5343 34.865 37.2812 34.5157L26.1562 19.0001C25.9372 18.6999 25.6504 18.4557 25.3191 18.2873C24.9879 18.119 24.6215 18.0313 24.25 18.0313Z" fill="#380017"/>
<path d="M131.703 87.9375C131.549 87.9396 131.395 87.9107 131.252 87.8526C131.109 87.7944 130.979 87.7082 130.87 87.599C130.761 87.4897 130.674 87.3597 130.616 87.2166C130.558 87.0734 130.529 86.9201 130.531 86.7656V36.3438H120.938V72.5469C120.938 72.8577 120.814 73.1557 120.594 73.3755C120.374 73.5953 120.076 73.7188 119.766 73.7188C119.455 73.7188 119.157 73.5953 118.937 73.3755C118.717 73.1557 118.594 72.8577 118.594 72.5469V35.1719C118.598 34.8623 118.723 34.5666 118.941 34.3477C119.16 34.1288 119.456 34.004 119.766 34H131.703C132.013 34.004 132.308 34.1288 132.527 34.3477C132.746 34.5666 132.871 34.8623 132.875 35.1719V86.7344C132.879 86.8909 132.852 87.0466 132.795 87.1924C132.738 87.3382 132.652 87.4711 132.543 87.5833C132.434 87.6954 132.303 87.7846 132.159 87.8454C132.015 87.9062 131.86 87.9375 131.703 87.9375Z" fill="#380017"/>
<path d="M136.844 36.3439H114.609C113.749 36.3428 112.906 36.105 112.172 35.6566C111.438 35.2083 110.841 34.5666 110.448 33.8018C110.054 33.037 109.878 32.1787 109.94 31.3207C110.001 30.4628 110.298 29.6383 110.797 28.9376L121.875 13.422C122.3 12.8096 122.868 12.3101 123.529 11.967C124.191 11.6239 124.927 11.4475 125.672 11.4533C126.414 11.4549 127.145 11.6329 127.806 11.9724C128.466 12.312 129.036 12.8034 129.469 13.4064L140.625 28.9376C141.124 29.6383 141.42 30.4628 141.482 31.3207C141.544 32.1787 141.368 33.037 140.974 33.8018C140.58 34.5666 139.984 35.2083 139.25 35.6566C138.516 36.105 137.673 36.3428 136.812 36.3439H136.844ZM125.719 13.797C125.347 13.7948 124.981 13.8833 124.651 14.0548C124.322 14.2264 124.039 14.4758 123.828 14.7814L112.719 30.297C112.444 30.6509 112.277 31.0764 112.239 31.5226C112.2 31.9688 112.291 32.4167 112.5 32.8126C112.693 33.197 112.99 33.5195 113.358 33.7432C113.725 33.967 114.148 34.0831 114.578 34.0783H136.844C137.276 34.0834 137.701 33.968 138.072 33.745C138.442 33.5221 138.743 33.2003 138.941 32.8158C139.139 32.4314 139.226 31.9994 139.192 31.5683C139.159 31.1372 139.005 30.7241 138.75 30.3751L127.609 14.7814C127.397 14.4767 127.114 14.228 126.785 14.0566C126.456 13.8852 126.09 13.7961 125.719 13.797Z" fill="#380017"/>
<path d="M77.3281 146.484H71.5781C70.7949 146.484 70.0437 146.173 69.4899 145.619C68.9361 145.066 68.625 144.314 68.625 143.531V139.062C65.4545 138.153 62.5532 136.485 60.1718 134.203L56.375 136.391C56.039 136.586 55.6677 136.712 55.2825 136.763C54.8973 136.813 54.506 136.787 54.1311 136.685C53.7561 136.583 53.4051 136.408 53.0983 136.17C52.7915 135.932 52.535 135.635 52.3437 135.297L49.4687 130.359C49.0819 129.681 48.9782 128.877 49.18 128.122C49.3818 127.368 49.8729 126.723 50.5468 126.328L54.3593 124.141C53.5883 120.926 53.5883 117.574 54.3593 114.359L50.5625 112.172C50.2253 111.983 49.9297 111.727 49.6935 111.421C49.4572 111.115 49.2851 110.765 49.1875 110.391C48.9844 109.639 49.0796 108.839 49.4531 108.156L52.3593 103.156C52.7513 102.483 53.3932 101.993 54.1453 101.791C54.8973 101.589 55.6987 101.692 56.375 102.078L60.1875 104.297C62.5691 102.02 65.4627 100.348 68.625 99.4219V95.0938C68.6373 94.3187 68.9538 93.5795 69.5063 93.0358C70.0588 92.4921 70.8029 92.1874 71.5781 92.1875H77.3281C77.7139 92.1895 78.0954 92.2676 78.451 92.4171C78.8067 92.5666 79.1293 92.7847 79.4007 93.0589C79.672 93.3331 79.8866 93.6581 80.0324 94.0153C80.1781 94.3725 80.252 94.7549 80.25 95.1406V99.5313C83.4231 100.453 86.3278 102.125 88.7187 104.406L92.5312 102.203C93.2047 101.819 94.0019 101.713 94.7523 101.908C95.5028 102.104 96.1469 102.586 96.5468 103.25L99.4218 108.25C99.8032 108.931 99.9023 109.735 99.6978 110.489C99.4933 111.243 99.0016 111.886 98.3281 112.281L94.5312 114.469C95.3023 117.684 95.3023 121.035 94.5312 124.25L98.3281 126.437C99.0005 126.83 99.4919 127.47 99.6965 128.222C99.901 128.973 99.8024 129.774 99.4218 130.453L96.5468 135.422C96.3529 135.763 96.0926 136.062 95.7813 136.301C95.47 136.539 95.114 136.714 94.7343 136.812C94.3612 136.908 93.9729 136.927 93.592 136.871C93.2111 136.815 92.8452 136.683 92.5156 136.484L88.7187 134.297C86.3337 136.593 83.4278 138.276 80.25 139.203V143.578C80.2418 144.349 79.9308 145.086 79.3842 145.63C78.8375 146.173 78.0991 146.48 77.3281 146.484ZM60.3593 131.625C60.5171 131.624 60.6733 131.656 60.8184 131.717C60.9635 131.779 61.0944 131.87 61.2031 131.984C63.6041 134.508 66.6879 136.278 70.0781 137.078C70.3328 137.141 70.559 137.288 70.7205 137.495C70.882 137.701 70.9694 137.956 70.9687 138.219V143.531C70.9666 143.612 70.9809 143.692 71.0107 143.767C71.0406 143.842 71.0854 143.91 71.1424 143.967C71.1994 144.024 71.2675 144.069 71.3424 144.099C71.4173 144.128 71.4975 144.143 71.5781 144.141H77.3281C77.4061 144.139 77.4829 144.121 77.5542 144.09C77.6254 144.058 77.6897 144.012 77.7434 143.956C77.7971 143.899 77.8391 143.833 77.8671 143.76C77.895 143.687 77.9083 143.609 77.9062 143.531V138.25C77.9055 137.988 77.9929 137.733 78.1544 137.526C78.3159 137.319 78.5421 137.172 78.7968 137.109C82.1869 136.291 85.2687 134.512 87.6718 131.984C87.8522 131.791 88.0932 131.666 88.3547 131.629C88.6163 131.592 88.8826 131.646 89.1093 131.781L93.75 134.375C93.8908 134.429 94.0467 134.429 94.1875 134.375C94.3479 134.324 94.4858 134.219 94.5781 134.078L97.4375 129.125C97.5133 128.985 97.5329 128.821 97.4923 128.668C97.4516 128.514 97.3538 128.381 97.2187 128.297L92.5781 125.781C92.3512 125.649 92.1745 125.446 92.0756 125.203C91.9767 124.959 91.961 124.69 92.0312 124.438C93.0104 121.091 93.0104 117.534 92.0312 114.188C91.961 113.935 91.9767 113.666 92.0756 113.422C92.1745 113.179 92.3512 112.976 92.5781 112.844L97.1718 110.203C97.3084 110.116 97.4058 109.98 97.4437 109.822C97.4816 109.665 97.457 109.499 97.375 109.359L94.5312 104.391C94.4417 104.257 94.3053 104.162 94.149 104.124C93.9927 104.087 93.8279 104.109 93.6875 104.188L89.0625 106.844C88.8357 106.979 88.5694 107.033 88.3079 106.996C88.0463 106.959 87.8053 106.834 87.625 106.641C85.2265 104.141 82.1634 102.379 78.7968 101.562C78.5421 101.5 78.3159 101.353 78.1544 101.146C77.9929 100.939 77.9055 100.684 77.9062 100.422V95.0938C77.9083 95.0158 77.895 94.9381 77.8671 94.8653C77.8391 94.7925 77.7971 94.7259 77.7434 94.6693C77.6897 94.6127 77.6254 94.5672 77.5542 94.5355C77.4829 94.5038 77.4061 94.4864 77.3281 94.4844H71.5781C71.4975 94.4822 71.4173 94.4965 71.3424 94.5264C71.2675 94.5562 71.1994 94.6011 71.1424 94.6581C71.0854 94.7151 71.0406 94.7831 71.0107 94.858C70.9809 94.9329 70.9666 95.0131 70.9687 95.0938V100.375C70.9722 100.638 70.8858 100.894 70.7239 101.102C70.562 101.309 70.3342 101.455 70.0781 101.516C66.7015 102.345 63.6328 104.123 61.2343 106.641C61.054 106.834 60.813 106.959 60.5514 106.996C60.2899 107.033 60.0236 106.979 59.7968 106.844L55.2031 104.172C55.0647 104.101 54.9048 104.084 54.7545 104.124C54.6042 104.165 54.4745 104.26 54.3906 104.391L51.5625 109.375C51.531 109.446 51.5148 109.524 51.5148 109.602C51.5148 109.68 51.531 109.757 51.5625 109.828C51.5769 109.904 51.6083 109.976 51.6543 110.038C51.7003 110.1 51.7597 110.151 51.8281 110.187L56.25 112.844C56.4737 112.975 56.6482 113.176 56.747 113.416C56.8457 113.656 56.8632 113.921 56.7968 114.172C55.8177 117.529 55.8177 121.096 56.7968 124.453C56.8632 124.704 56.8457 124.969 56.747 125.209C56.6482 125.449 56.4737 125.65 56.25 125.781L51.7187 128.422C51.5822 128.509 51.4847 128.645 51.4468 128.803C51.4089 128.96 51.4336 129.126 51.5156 129.266L54.375 134.203C54.4582 134.346 54.5921 134.452 54.75 134.5C54.8905 134.556 55.0469 134.556 55.1875 134.5L59.7656 131.844C59.9397 131.718 60.1451 131.642 60.3593 131.625ZM74.4218 129.281C72.4495 129.284 70.5207 128.702 68.8792 127.609C67.2378 126.515 65.9577 124.959 65.2008 123.138C64.4439 121.317 64.2442 119.312 64.6271 117.377C65.01 115.443 65.9582 113.665 67.3517 112.269C68.7452 110.873 70.5215 109.922 72.4557 109.536C74.3898 109.151 76.395 109.347 78.2175 110.101C80.0399 110.855 81.5978 112.133 82.6938 113.773C83.7899 115.412 84.375 117.34 84.375 119.312C84.375 121.951 83.329 124.482 81.4662 126.35C79.6035 128.219 77.0759 129.273 74.4375 129.281H74.4218ZM74.4218 111.688C72.9144 111.691 71.4418 112.14 70.1899 112.98C68.938 113.82 67.9631 115.012 67.3884 116.405C66.8137 117.799 66.6649 119.332 66.9609 120.81C67.2569 122.288 67.9843 123.645 69.0513 124.71C70.1183 125.775 71.477 126.499 72.9556 126.792C74.4343 127.085 75.9666 126.933 77.359 126.356C78.7514 125.778 79.9413 124.801 80.7785 123.547C81.6157 122.294 82.0625 120.82 82.0625 119.312C82.0583 117.291 81.2537 115.354 79.8246 113.925C78.3955 112.496 76.4585 111.692 74.4375 111.688H74.4218Z" fill="#380017"/>
<path d="M73.2343 71.0157C70.4004 71.0318 67.5949 70.4515 64.9999 69.3126C61.2623 67.6598 57.9298 65.2124 55.2343 62.1407C53.8339 60.6715 52.8802 58.8345 52.4843 56.8438C52.2812 55.6251 52.1562 54.7188 52.1093 54.0313C51.1718 53.7657 50.0624 52.8907 49.2343 50.5001C47.9999 46.9844 46.6093 42.0313 48.7343 39.6719C49.1781 39.2134 49.7227 38.8645 50.3248 38.653C50.9269 38.4415 51.5699 38.3731 52.203 38.4532C52.36 34.9976 53.6754 31.6953 55.9374 29.0782C57.3659 27.6545 59.0779 26.5472 60.9623 25.8285C62.8466 25.1097 64.8612 24.7955 66.8749 24.9063C74.3437 25.4376 83.2343 25.6563 86.5624 22.6251C86.7773 22.4329 87.0554 22.3267 87.3437 22.3267C87.6319 22.3267 87.9101 22.4329 88.1249 22.6251C92.3647 26.8746 94.7615 32.6223 94.7968 38.6251C96.0682 38.5909 97.3023 39.0565 98.2343 39.9219C99.4687 41.1876 99.7968 43.1876 99.1093 45.8751L98.9999 46.4063C98.4374 49.3907 97.8124 52.7501 95.8749 53.8751C95.6782 53.985 95.4682 54.0691 95.2499 54.1251C95.2499 54.3438 95.2499 54.5782 95.2499 54.8282C95.1721 56.9044 94.4575 58.9064 93.203 60.5626C90.9361 63.7576 87.9449 66.3705 84.4741 68.1874C81.0033 70.0042 77.1516 70.9734 73.2343 71.0157ZM54.4843 53.3438C54.5195 54.3418 54.6398 55.335 54.8437 56.3126V56.4844C55.1767 58.0422 55.9463 59.4729 57.0624 60.6094C59.5035 63.4254 62.5332 65.671 65.9374 67.1876C74.4218 70.9532 85.2812 67.5001 91.203 59.1563C92.1494 57.8869 92.6936 56.363 92.7655 54.7813C92.8017 54.3863 92.8017 53.9888 92.7655 53.5938C92.6463 53.435 92.5682 53.2492 92.5382 53.0529C92.5082 52.8566 92.5272 52.656 92.5937 52.4688C92.647 52.3181 92.7307 52.1799 92.8395 52.0627C92.9483 51.9455 93.08 51.8518 93.2263 51.7874C93.3727 51.723 93.5307 51.6892 93.6906 51.6882C93.8505 51.6872 94.009 51.7188 94.1562 51.7813C94.4843 51.8907 94.6093 51.7813 94.6874 51.7813C95.703 51.2032 96.328 47.9063 96.703 45.9376L96.8124 45.3282C97.1405 44.0001 97.3437 42.3282 96.5624 41.5157C96.1655 41.2178 95.7062 41.0138 95.219 40.9191C94.7318 40.8243 94.2295 40.8413 93.7499 40.9688C93.5777 41.006 93.3992 41.0028 93.2284 40.9594C93.0576 40.9161 92.8992 40.8337 92.7655 40.7188C92.627 40.6097 92.5165 40.4692 92.4431 40.3089C92.3698 40.1486 92.3357 39.9731 92.3437 39.7969C92.5293 34.3917 90.6842 29.1128 87.1718 25.0001C82.8124 27.8907 74.4687 27.7501 66.7187 27.1876C65.0558 27.099 63.3927 27.3575 61.8352 27.9466C60.2777 28.5358 58.8598 29.4426 57.6718 30.6094C55.5538 33.1753 54.4429 36.4247 54.5468 39.7501C54.5604 39.9322 54.5306 40.1149 54.46 40.2832C54.3894 40.4516 54.2799 40.6009 54.1405 40.7188C54.001 40.8342 53.8372 40.9167 53.6613 40.96C53.4855 41.0033 53.3021 41.0063 53.1249 40.9688C52.2187 40.7501 51.0312 40.6407 50.4999 41.2344C49.9687 41.8282 49.3593 43.7344 51.453 49.7188C52.0937 51.5313 52.7499 51.8126 52.8593 51.7813C53.0279 51.6924 53.2156 51.6459 53.4062 51.6459C53.5968 51.6459 53.7845 51.6924 53.953 51.7813C54.1349 51.8807 54.2863 52.0277 54.391 52.2067C54.4956 52.3856 54.5494 52.5897 54.5468 52.7969C54.5527 52.9869 54.5096 53.1752 54.4218 53.3438H54.4843ZM52.9062 51.7969L52.7343 51.8907H52.8437C52.8335 51.8772 52.828 51.8607 52.828 51.8438C52.828 51.8269 52.8335 51.8105 52.8437 51.7969H52.9062Z" fill="#380017"/>
<path d="M96.3594 41.1876H96.2031C96.0502 41.1683 95.9025 41.119 95.7687 41.0426C95.6348 40.9661 95.5173 40.864 95.423 40.7421C95.3286 40.6201 95.2593 40.4808 95.2189 40.332C95.1784 40.1833 95.1678 40.028 95.1875 39.8751C95.4844 37.4844 97.9219 33.6251 98.6719 32.4844C99.1719 14.4532 90.625 12.4063 90.2813 12.3282C90.0543 12.2825 89.847 12.1679 89.6875 12.0001C79.4375 1.56257 61.4219 7.25007 55.8594 9.37507L56.6406 10.0782C56.7698 10.1935 56.8718 10.3359 56.9394 10.4953C57.0069 10.6547 57.0383 10.8271 57.0313 11.0001C57.0221 11.1736 56.9754 11.343 56.8945 11.4968C56.8136 11.6505 56.7003 11.7849 56.5625 11.8907C47.6406 18.5938 48.0469 30.0626 48.2188 32.2032C49.7539 34.4849 50.8164 37.051 51.3438 39.7501C51.3756 39.9009 51.3774 40.0565 51.349 40.208C51.3207 40.3595 51.2628 40.5039 51.1786 40.6331C51.0945 40.7622 50.9857 40.8735 50.8586 40.9606C50.7314 41.0477 50.5883 41.1089 50.4375 41.1407C50.2867 41.1725 50.1311 41.1743 49.9796 41.146C49.8281 41.1176 49.6836 41.0597 49.5545 40.9756C49.4254 40.8914 49.3141 40.7827 49.227 40.6555C49.1399 40.5283 49.0787 40.3853 49.0469 40.2344C48.7656 38.8438 47.7031 34.9219 46.3125 33.5313C46.1363 33.3467 46.0217 33.1119 45.9844 32.8594C45.9063 32.2813 44.4219 19.1876 54.1094 10.8751L52.9688 9.85944C52.8233 9.73053 52.7127 9.56703 52.6471 9.38405C52.5816 9.20107 52.5632 9.00452 52.5938 8.81257C52.6229 8.61997 52.6996 8.43768 52.8169 8.28217C52.9342 8.12667 53.0884 8.00286 53.2656 7.92194C54.2656 7.45319 77.8438 -3.20306 91.1875 10.0938C93.1563 10.6876 101.688 14.3282 101.078 32.8594C101.065 33.0769 100.995 33.2872 100.875 33.4688C99.4233 35.5003 98.3099 37.7534 97.5781 40.1407C97.5503 40.4391 97.4076 40.7151 97.1803 40.9104C96.9529 41.1057 96.6586 41.2051 96.3594 41.1876Z" fill="#380017"/>
<path d="M62.0312 92.1875H61.7343C61.5683 92.1417 61.414 92.0609 61.2819 91.9503C61.1498 91.8398 61.043 91.7022 60.9687 91.5469L52.4062 73.1094C52.2725 72.8346 52.2499 72.5189 52.343 72.2279C52.4361 71.9369 52.6378 71.693 52.9062 71.5469L57.2812 69.125V63.7188C57.2812 63.4079 57.4047 63.1099 57.6244 62.8901C57.8442 62.6703 58.1423 62.5469 58.4531 62.5469C58.7639 62.5469 59.0619 62.6703 59.2817 62.8901C59.5015 63.1099 59.6249 63.4079 59.6249 63.7188V69.3281L74.1874 81.9688C74.3234 82.0827 74.4309 82.2267 74.5014 82.3895C74.5719 82.5522 74.6035 82.7292 74.5937 82.9063C74.5848 83.0815 74.5366 83.2525 74.4528 83.4067C74.369 83.5608 74.2516 83.6942 74.1093 83.7969L62.7187 91.9688C62.5173 92.1103 62.2773 92.1866 62.0312 92.1875ZM54.9999 73.1094L62.4999 89.2344L71.5312 82.8125L58.2968 71.3281L54.9999 73.1094Z" fill="#380017"/>
<path d="M84.8124 92.1875C84.5666 92.1847 84.3272 92.1085 84.1249 91.9688L72.7343 83.7969C72.592 83.6942 72.4746 83.5608 72.3908 83.4067C72.307 83.2525 72.2588 83.0815 72.2499 82.9063C72.2436 82.7296 72.2768 82.5538 72.347 82.3916C72.4173 82.2294 72.5229 82.0849 72.6562 81.9687L87.2187 69.3281V63.9531C87.2187 63.6423 87.3421 63.3443 87.5619 63.1245C87.7817 62.9047 88.0797 62.7812 88.3905 62.7812C88.7013 62.7812 88.9994 62.9047 89.2192 63.1245C89.4389 63.3443 89.5624 63.6423 89.5624 63.9531V69.1719L93.9374 71.5937C94.2086 71.7369 94.4129 71.9808 94.5064 72.2729C94.5999 72.565 94.5751 72.8822 94.4374 73.1562L85.9374 91.5156C85.8648 91.6722 85.7586 91.8108 85.6262 91.9215C85.4939 92.0323 85.3387 92.1124 85.1718 92.1562L84.8124 92.1875ZM75.3124 82.8125L84.3749 89.2344L91.8749 73.1094L88.578 71.2812L75.3124 82.8125Z" fill="#380017"/>
<path d="M25.3281 102.297C25.0173 102.297 24.7193 102.174 24.4995 101.954C24.2797 101.734 24.1562 101.436 24.1562 101.125V87.0626C24.1562 82.9064 27.2812 79.2501 31.9687 78.1251L53.6406 72.5939C53.7932 72.5435 53.9545 72.5251 54.1145 72.5398C54.2745 72.5545 54.4298 72.6019 54.5707 72.6791C54.7116 72.7563 54.8351 72.8616 54.9336 72.9886C55.0321 73.1155 55.1034 73.2614 55.1431 73.417C55.1828 73.5727 55.1901 73.7349 55.1645 73.8935C55.1389 74.0521 55.081 74.2038 54.9943 74.3391C54.9076 74.4743 54.794 74.5904 54.6606 74.6799C54.5272 74.7694 54.3768 74.8305 54.2188 74.8595L32.5781 80.3282C28.9375 81.2501 26.5625 83.9376 26.5625 87.0001V101.063C26.5691 101.226 26.5417 101.39 26.482 101.543C26.4223 101.695 26.3316 101.834 26.2157 101.95C26.0997 102.066 25.961 102.157 25.8082 102.216C25.6555 102.276 25.492 102.304 25.3281 102.297Z" fill="#380017"/>
<path d="M121.516 102.297C121.206 102.293 120.91 102.168 120.691 101.949C120.472 101.73 120.348 101.435 120.344 101.125V87.0626C120.344 83.9376 117.906 81.3126 114.266 80.3907L92.5937 74.797C92.4356 74.768 92.2852 74.7069 92.1518 74.6174C92.0184 74.5279 91.9048 74.4118 91.8181 74.2766C91.7315 74.1413 91.6735 73.9896 91.6479 73.831C91.6223 73.6724 91.6296 73.5102 91.6693 73.3545C91.709 73.1989 91.7804 73.053 91.8788 72.9261C91.9773 72.7991 92.1008 72.6938 92.2417 72.6166C92.3826 72.5394 92.5379 72.492 92.6979 72.4773C92.8579 72.4626 93.0192 72.481 93.1718 72.5314L114.844 78.1251C119.531 79.3126 122.656 82.9064 122.656 87.0626V101.125C122.656 101.431 122.537 101.724 122.324 101.943C122.111 102.162 121.821 102.289 121.516 102.297Z" fill="#380017"/>
</svg>
