<svg width="150" height="150" viewBox="0 0 150 150" fill="none" xmlns="http://www.w3.org/2000/svg">
<g id="expansion_development_scaling_company_business_growth_icon_262938 1">
<g id="icon">
<path id="Vector" d="M26.125 111.641C25.8077 111.635 25.505 111.506 25.2812 111.281C25.0618 111.061 24.9385 110.764 24.9385 110.453C24.9385 110.143 25.0618 109.845 25.2812 109.625L56.0156 79.8281C56.232 79.6391 56.5096 79.5349 56.7969 79.5349C57.0842 79.5349 57.3617 79.6391 57.5781 79.8281L66.6562 88.8124C67.0113 89.1533 67.4844 89.3437 67.9766 89.3437C68.4688 89.3437 68.9419 89.1533 69.2969 88.8124L103.672 54.9374L95.8594 47.1249L69.4375 72.9687C69.2211 73.1577 68.9436 73.2619 68.6562 73.2619C68.3689 73.2619 68.0914 73.1577 67.875 72.9687L58.7187 64.0624C58.5459 63.8881 58.3402 63.7498 58.1136 63.6553C57.887 63.5609 57.6439 63.5123 57.3984 63.5123C57.1529 63.5123 56.9099 63.5609 56.6833 63.6553C56.4566 63.7498 56.251 63.8881 56.0781 64.0624L17.625 101.562C17.5258 101.707 17.3953 101.828 17.2433 101.915C17.0913 102.003 16.9216 102.055 16.7467 102.068C16.5717 102.081 16.3961 102.055 16.2327 101.991C16.0693 101.927 15.9223 101.828 15.8025 101.7C15.6828 101.571 15.5933 101.418 15.5407 101.251C15.4881 101.083 15.4738 100.906 15.4987 100.733C15.5237 100.559 15.5873 100.393 15.6849 100.248C15.7824 100.102 15.9115 99.9798 16.0625 99.8906L54.5 62.3906C55.288 61.6044 56.3556 61.1628 57.4687 61.1628C58.5819 61.1628 59.6495 61.6044 60.4375 62.3906L68.6875 70.5312L95.0625 44.5937C95.2822 44.3742 95.5801 44.251 95.8906 44.251C96.2012 44.251 96.499 44.3742 96.7188 44.5937L106.25 54.1093C106.469 54.3291 106.593 54.6269 106.593 54.9374C106.593 55.248 106.469 55.5458 106.25 55.7656L71.0937 90.4531C70.2972 91.229 69.2292 91.6633 68.1172 91.6633C67.0052 91.6633 65.9371 91.229 65.1406 90.4531L56.875 82.2812L26.9531 111.312C26.7292 111.524 26.4329 111.641 26.125 111.641Z" fill="#380017"/>
<path id="Vector_2" d="M112.5 62.6718C112.153 62.6733 111.81 62.6048 111.491 62.4706C111.171 62.3363 110.882 62.1391 110.641 61.8906L88.1719 39.4062C87.8208 39.0519 87.576 38.6064 87.465 38.1201C87.354 37.6338 87.3814 37.1262 87.544 36.6547C87.7066 36.1831 87.9979 35.7665 88.385 35.452C88.7721 35.1375 89.2396 34.9376 89.7344 34.875L114.891 32.2031C115.284 32.1652 115.681 32.2142 116.054 32.3465C116.426 32.4788 116.765 32.6912 117.047 32.9687C117.328 33.2507 117.543 33.5921 117.676 33.9679C117.808 34.3437 117.855 34.7444 117.813 35.1406L115.141 60.2968C115.087 60.7851 114.899 61.2491 114.599 61.6378C114.298 62.0265 113.896 62.3248 113.438 62.5C113.136 62.6048 112.819 62.6628 112.5 62.6718ZM115.188 34.5468L90.0156 37.2031C89.9548 37.2095 89.8972 37.2337 89.85 37.2726C89.8028 37.3115 89.768 37.3634 89.75 37.4218C89.7303 37.4783 89.7272 37.5392 89.741 37.5973C89.7548 37.6555 89.7851 37.7085 89.8281 37.75L112.328 60.2343C112.367 60.2811 112.42 60.314 112.479 60.328C112.538 60.3421 112.6 60.3367 112.656 60.3124C112.713 60.2937 112.763 60.2583 112.799 60.211C112.835 60.1636 112.856 60.1064 112.859 60.0468L115.531 34.8906C115.536 34.8421 115.531 34.7931 115.514 34.7472C115.498 34.7012 115.472 34.6595 115.438 34.625C115.38 34.5661 115.301 34.5324 115.219 34.5312L115.188 34.5468Z" fill="#380017"/>
<path id="Vector_3" d="M134.187 137.125H82.0469C80.5536 137.121 79.1229 136.525 78.0684 135.467C77.014 134.41 76.4219 132.978 76.4219 131.484V125.234C76.4219 123.741 77.014 122.309 78.0684 121.251C79.1229 120.194 80.5536 119.598 82.0469 119.594H134.187C135.681 119.598 137.111 120.194 138.166 121.251C139.22 122.309 139.813 123.741 139.813 125.234V131.484C139.813 132.978 139.22 134.41 138.166 135.467C137.111 136.525 135.681 137.121 134.187 137.125ZM82.0469 121.875C81.1752 121.879 80.3406 122.228 79.7257 122.846C79.1108 123.464 78.7656 124.3 78.7656 125.172V131.422C78.7656 132.294 79.1108 133.13 79.7257 133.748C80.3406 134.365 81.1752 134.715 82.0469 134.719H134.187C135.054 134.723 135.887 134.386 136.507 133.781C137.127 133.176 137.484 132.351 137.5 131.484V125.234C137.508 124.795 137.429 124.358 137.266 123.95C137.103 123.542 136.86 123.17 136.551 122.857C136.243 122.544 135.875 122.296 135.469 122.127C135.063 121.959 134.627 121.873 134.187 121.875H82.0469Z" fill="#380017"/>
<path id="Vector_4" d="M128.703 121.875H76.5625C75.0692 121.871 73.6385 121.275 72.5841 120.217C71.5296 119.16 70.9375 117.728 70.9375 116.234V109.984C70.9375 108.491 71.5296 107.059 72.5841 106.001C73.6385 104.944 75.0692 104.348 76.5625 104.344H128.703C129.446 104.34 130.183 104.483 130.871 104.764C131.559 105.046 132.185 105.461 132.712 105.985C133.239 106.509 133.657 107.132 133.943 107.819C134.228 108.505 134.375 109.241 134.375 109.984V116.234C134.375 116.978 134.228 117.714 133.943 118.4C133.657 119.087 133.239 119.71 132.712 120.234C132.185 120.758 131.559 121.173 130.871 121.455C130.183 121.736 129.446 121.879 128.703 121.875ZM76.5625 106.688C75.6908 106.692 74.8563 107.041 74.2413 107.659C73.6264 108.277 73.2812 109.113 73.2812 109.984V116.234C73.2771 116.669 73.3588 117.1 73.5217 117.502C73.6846 117.905 73.9254 118.271 74.2303 118.58C74.5352 118.89 74.8981 119.136 75.2984 119.304C75.6986 119.473 76.1282 119.561 76.5625 119.563H128.703C129.575 119.558 130.409 119.209 131.024 118.591C131.639 117.974 131.984 117.137 131.984 116.266V110.016C131.984 109.144 131.639 108.308 131.024 107.69C130.409 107.072 129.575 106.723 128.703 106.719L76.5625 106.688Z" fill="#380017"/>
<path id="Vector_5" d="M120.172 117.984C119.862 117.98 119.567 117.856 119.348 117.637C119.129 117.418 119.004 117.122 119 116.813V109.375C119 109.064 119.123 108.766 119.343 108.546C119.563 108.327 119.861 108.203 120.172 108.203C120.483 108.203 120.781 108.327 121.001 108.546C121.22 108.766 121.344 109.064 121.344 109.375V116.75C121.352 116.909 121.328 117.068 121.273 117.218C121.218 117.367 121.133 117.504 121.023 117.619C120.914 117.735 120.782 117.827 120.635 117.89C120.489 117.952 120.331 117.985 120.172 117.984Z" fill="#380017"/>
<path id="Vector_6" d="M102.641 117.984C102.33 117.984 102.032 117.861 101.812 117.641C101.592 117.421 101.469 117.123 101.469 116.813V109.375C101.469 109.064 101.592 108.766 101.812 108.546C102.032 108.327 102.33 108.203 102.641 108.203C102.951 108.203 103.249 108.327 103.469 108.546C103.689 108.766 103.812 109.064 103.812 109.375V116.75C103.819 116.909 103.793 117.067 103.737 117.215C103.681 117.364 103.596 117.5 103.487 117.615C103.378 117.73 103.247 117.822 103.101 117.885C102.956 117.949 102.799 117.982 102.641 117.984Z" fill="#380017"/>
<path id="Vector_7" d="M85.0938 117.984C84.7829 117.984 84.4849 117.861 84.2651 117.641C84.0453 117.421 83.9219 117.123 83.9219 116.813V109.375C83.9219 109.064 84.0453 108.766 84.2651 108.546C84.4849 108.327 84.7829 108.203 85.0938 108.203C85.4046 108.203 85.7026 108.327 85.9224 108.546C86.1422 108.766 86.2656 109.064 86.2656 109.375V116.75C86.2719 116.909 86.2463 117.067 86.1905 117.215C86.1346 117.364 86.0495 117.5 85.9403 117.615C85.831 117.73 85.6998 117.822 85.5544 117.885C85.409 117.949 85.2524 117.982 85.0938 117.984Z" fill="#380017"/>
<path id="Vector_8" d="M140.844 106.687H88.7187C87.2228 106.687 85.788 106.093 84.7302 105.035C83.6724 103.978 83.0781 102.543 83.0781 101.047V94.7969C83.0657 94.0483 83.2024 93.3047 83.4803 92.6095C83.7582 91.9143 84.1717 91.2814 84.6967 90.7476C85.2217 90.2139 85.8478 89.79 86.5383 89.5007C87.2288 89.2113 87.97 89.0624 88.7187 89.0625H140.844C142.34 89.0625 143.774 89.6568 144.832 90.7146C145.89 91.7724 146.484 93.2071 146.484 94.7031V100.953C146.497 101.702 146.36 102.445 146.082 103.14C145.804 103.836 145.391 104.469 144.866 105.002C144.341 105.536 143.715 105.96 143.024 106.249C142.334 106.539 141.592 106.688 140.844 106.687ZM88.7187 91.4688C87.8456 91.4729 87.0094 91.8215 86.392 92.4389C85.7746 93.0563 85.426 93.8925 85.4219 94.7656V101.016C85.426 101.889 85.7746 102.725 86.392 103.342C87.0094 103.96 87.8456 104.308 88.7187 104.313H140.844C141.717 104.308 142.553 103.96 143.17 103.342C143.788 102.725 144.137 101.889 144.141 101.016V94.7656C144.137 93.8925 143.788 93.0563 143.17 92.4389C142.553 91.8215 141.717 91.4729 140.844 91.4688H88.7187Z" fill="#380017"/>
<path id="Vector_9" d="M132.328 102.484C132.017 102.484 131.719 102.361 131.499 102.141C131.28 101.921 131.156 101.623 131.156 101.312V94.5C131.156 94.1892 131.28 93.8911 131.499 93.6714C131.719 93.4516 132.017 93.3281 132.328 93.3281C132.639 93.3281 132.937 93.4516 133.157 93.6714C133.377 93.8911 133.5 94.1892 133.5 94.5V101.312C133.5 101.623 133.377 101.921 133.157 102.141C132.937 102.361 132.639 102.484 132.328 102.484Z" fill="#380017"/>
<path id="Vector_10" d="M114.781 102.484C114.47 102.484 114.172 102.361 113.953 102.141C113.733 101.921 113.609 101.623 113.609 101.312V94.5C113.609 94.1892 113.733 93.8911 113.953 93.6714C114.172 93.4516 114.47 93.3281 114.781 93.3281C115.092 93.3281 115.39 93.4516 115.61 93.6714C115.83 93.8911 115.953 94.1892 115.953 94.5V101.312C115.955 101.467 115.926 101.62 115.868 101.763C115.81 101.907 115.724 102.037 115.615 102.146C115.505 102.255 115.375 102.341 115.232 102.399C115.089 102.458 114.936 102.486 114.781 102.484Z" fill="#380017"/>
<path id="Vector_11" d="M97.2344 102.484C96.9236 102.484 96.6255 102.361 96.4057 102.141C96.186 101.921 96.0625 101.623 96.0625 101.312V94.5C96.0625 94.1892 96.186 93.8911 96.4057 93.6714C96.6255 93.4516 96.9236 93.3281 97.2344 93.3281C97.5452 93.3281 97.8432 93.4516 98.063 93.6714C98.2828 93.8911 98.4062 94.1892 98.4062 94.5V101.312C98.4084 101.467 98.3795 101.62 98.3213 101.763C98.2632 101.907 98.1769 102.037 98.0677 102.146C97.9585 102.255 97.8284 102.341 97.6853 102.399C97.5422 102.458 97.3888 102.486 97.2344 102.484Z" fill="#380017"/>
<path id="Vector_12" d="M125.656 133.375C125.347 133.371 125.051 133.246 124.832 133.027C124.613 132.808 124.488 132.513 124.484 132.203V124.484C124.484 124.174 124.608 123.876 124.828 123.656C125.047 123.436 125.345 123.312 125.656 123.312C125.967 123.312 126.265 123.436 126.485 123.656C126.705 123.876 126.828 124.174 126.828 124.484V132.203C126.828 132.514 126.705 132.812 126.485 133.032C126.265 133.252 125.967 133.375 125.656 133.375Z" fill="#380017"/>
<path id="Vector_13" d="M108.125 133.375C107.814 133.375 107.516 133.252 107.296 133.032C107.077 132.812 106.953 132.514 106.953 132.203V124.484C106.953 124.174 107.077 123.876 107.296 123.656C107.516 123.436 107.814 123.312 108.125 123.312C108.436 123.312 108.734 123.436 108.954 123.656C109.173 123.876 109.297 124.174 109.297 124.484V132.203C109.293 132.513 109.168 132.808 108.949 133.027C108.73 133.246 108.435 133.371 108.125 133.375Z" fill="#380017"/>
<path id="Vector_14" d="M90.625 133.375C90.3142 133.375 90.0161 133.252 89.7964 133.032C89.5766 132.812 89.4531 132.514 89.4531 132.203V124.484C89.4531 124.174 89.5766 123.876 89.7964 123.656C90.0161 123.436 90.3142 123.312 90.625 123.312C90.9358 123.312 91.2339 123.436 91.4536 123.656C91.6734 123.876 91.7969 124.174 91.7969 124.484V132.203C91.7928 132.513 91.6681 132.808 91.4492 133.027C91.2303 133.246 90.9345 133.371 90.625 133.375Z" fill="#380017"/>
<path id="Vector_15" d="M61.2812 137.125H9.15625C7.66026 137.125 6.22555 136.531 5.16773 135.473C4.1099 134.415 3.51563 132.98 3.51562 131.484V125.234C3.51563 123.738 4.1099 122.304 5.16773 121.246C6.22555 120.188 7.66026 119.594 9.15625 119.594H61.2812C62.7772 119.594 64.212 120.188 65.2698 121.246C66.3276 122.304 66.9219 123.738 66.9219 125.234V131.484C66.9219 132.98 66.3276 134.415 65.2698 135.473C64.212 136.531 62.7772 137.125 61.2812 137.125ZM9.15625 121.875C8.28313 121.879 7.44694 122.228 6.82955 122.845C6.21215 123.463 5.86348 124.299 5.85938 125.172V131.422C5.86348 132.295 6.21215 133.131 6.82955 133.749C7.44694 134.366 8.28313 134.715 9.15625 134.719H61.2812C62.1544 134.715 62.9906 134.366 63.608 133.749C64.2253 133.131 64.574 132.295 64.5781 131.422V125.172C64.574 124.299 64.2253 123.463 63.608 122.845C62.9906 122.228 62.1544 121.879 61.2812 121.875H9.15625Z" fill="#380017"/>
<path id="Vector_16" d="M52.7656 133.375C52.4548 133.375 52.1568 133.252 51.937 133.032C51.7172 132.812 51.5938 132.514 51.5938 132.203V124.484C51.5938 124.174 51.7172 123.876 51.937 123.656C52.1568 123.436 52.4548 123.312 52.7656 123.312C53.0764 123.312 53.3745 123.436 53.5943 123.656C53.814 123.876 53.9375 124.174 53.9375 124.484V132.203C53.9335 132.513 53.8087 132.808 53.5898 133.027C53.3709 133.246 53.0752 133.371 52.7656 133.375Z" fill="#380017"/>
<path id="Vector_17" d="M35.2188 133.375C34.9092 133.371 34.6135 133.246 34.3946 133.027C34.1757 132.808 34.0509 132.513 34.0469 132.203V124.484C34.0469 124.174 34.1703 123.876 34.3901 123.656C34.6099 123.436 34.9079 123.312 35.2188 123.312C35.5296 123.312 35.8276 123.436 36.0474 123.656C36.2672 123.876 36.3906 124.174 36.3906 124.484V132.203C36.3866 132.513 36.2618 132.808 36.0429 133.027C35.824 133.246 35.5283 133.371 35.2188 133.375Z" fill="#380017"/>
<path id="Vector_18" d="M17.6719 133.375C17.3623 133.371 17.0666 133.246 16.8477 133.027C16.6288 132.808 16.504 132.513 16.5 132.203V124.484C16.5 124.174 16.6235 123.876 16.8432 123.656C17.063 123.436 17.3611 123.312 17.6719 123.312C17.9827 123.312 18.2807 123.436 18.5005 123.656C18.7203 123.876 18.8438 124.174 18.8438 124.484V132.203C18.8397 132.513 18.7149 132.808 18.496 133.027C18.2771 133.246 17.9814 133.371 17.6719 133.375Z" fill="#380017"/>
<path id="Vector_19" d="M33.1719 61.7344C28.3386 61.7313 23.6148 60.295 19.5978 57.6072C15.5808 54.9194 12.451 51.1008 10.6042 46.6343C8.75747 42.1677 8.27667 37.2538 9.22262 32.514C10.1686 27.7742 12.4988 23.4214 15.9186 20.0059C19.3385 16.5905 23.6943 14.2658 28.4353 13.3259C33.1763 12.386 38.0896 12.8731 42.5538 14.7256C47.018 16.578 50.8326 19.7127 53.5152 23.7331C56.1979 27.7536 57.6281 32.4792 57.625 37.3125C57.623 40.5217 56.9888 43.699 55.7588 46.6631C54.5288 49.6273 52.7271 52.3201 50.4564 54.5879C48.1857 56.8556 45.4906 58.654 42.5249 59.8802C39.5592 61.1064 36.3811 61.7364 33.1719 61.7344ZM33.1719 15.2188C28.8028 15.2218 24.5328 16.5202 20.9015 18.9498C17.2703 21.3794 14.4409 24.831 12.7711 28.8684C11.1012 32.9058 10.6659 37.3476 11.5202 41.6324C12.3744 45.9171 14.4799 49.8524 17.5704 52.9407C20.6609 56.029 24.5976 58.1316 28.883 58.9829C33.1683 59.8341 37.6098 59.3956 41.646 57.723C45.6822 56.0503 49.1319 53.2185 51.5589 49.5855C53.9859 45.9526 55.2813 41.6816 55.2813 37.3125C55.2771 31.4514 52.9459 25.8319 48.8 21.6889C44.6542 17.546 39.0329 15.2188 33.1719 15.2188Z" fill="#380017"/>
<path id="Vector_20" d="M33.2031 51.0782C31.2687 51.1636 29.365 50.5722 27.8194 49.4059C26.2739 48.2396 25.183 46.5712 24.7344 44.6876C24.7047 44.5336 24.7062 44.3752 24.7388 44.2218C24.7714 44.0684 24.8345 43.9231 24.9243 43.7945C25.0141 43.6659 25.1288 43.5567 25.2616 43.4733C25.3944 43.3898 25.5426 43.3339 25.6974 43.3088C25.8523 43.2837 26.0105 43.2899 26.1629 43.3271C26.3153 43.3643 26.4586 43.4317 26.5844 43.5253C26.7103 43.6189 26.8161 43.7368 26.8955 43.872C26.9749 44.0073 27.0264 44.1571 27.0469 44.3126C27.4022 45.6485 28.2102 46.8197 29.333 47.6261C30.4558 48.4326 31.8237 48.8243 33.2031 48.7344C34.4056 48.7889 35.5982 48.4949 36.6376 47.8879C37.677 47.2809 38.5191 46.3866 39.0625 45.3126C39.4675 44.2689 39.4972 43.117 39.1466 42.0539C38.7961 40.9907 38.087 40.0825 37.1406 39.4844C35.8967 38.8947 34.5472 38.56 33.1719 38.5001C32.0189 38.4029 30.878 38.1935 29.7656 37.8751C28.3092 37.4103 27.0341 36.5027 26.1182 35.2787C25.2023 34.0546 24.6912 32.5753 24.6562 31.0469C24.6562 26.9219 28.4844 23.5626 33.2031 23.5626C35.0563 23.4915 36.8809 24.0353 38.3929 25.1092C39.9048 26.1832 41.0192 27.7269 41.5625 29.5001C41.6327 29.8026 41.58 30.1206 41.416 30.3842C41.2519 30.6479 40.9899 30.8357 40.6875 30.9063C40.3872 30.977 40.0711 30.9265 39.8078 30.7656C39.5445 30.6047 39.3553 30.3465 39.2812 30.0469C38.8619 28.786 38.0399 27.6978 36.9418 26.9497C35.8436 26.2016 34.53 25.835 33.2031 25.9063C29.7813 25.9063 26.9531 28.2188 26.9531 31.0469C26.9852 32.0819 27.3397 33.0809 27.9672 33.9045C28.5947 34.7281 29.4638 35.3351 30.4531 35.6407C31.4177 35.9143 32.4068 36.0923 33.4062 36.1719C35.0897 36.2629 36.7373 36.6934 38.25 37.4376C39.698 38.3183 40.7864 39.6842 41.3214 41.2923C41.8565 42.9004 41.8035 44.6462 41.1719 46.2188C40.4561 47.7129 39.3222 48.9672 37.9078 49.8297C36.4934 50.6922 34.8591 51.1259 33.2031 51.0782Z" fill="#380017"/>
<path id="Vector_21" d="M33.2031 25.8594C33.0487 25.8615 32.8953 25.8326 32.7522 25.7745C32.6091 25.7163 32.479 25.6301 32.3698 25.5208C32.2606 25.4116 32.1743 25.2816 32.1162 25.1384C32.058 24.9953 32.0291 24.842 32.0313 24.6875V21.1875C32.0313 20.8767 32.1547 20.5786 32.3745 20.3589C32.5943 20.1391 32.8923 20.0156 33.2031 20.0156C33.5139 20.0156 33.812 20.1391 34.0318 20.3589C34.2515 20.5786 34.375 20.8767 34.375 21.1875V24.6875C34.375 24.9983 34.2515 25.2964 34.0318 25.5161C33.812 25.7359 33.5139 25.8594 33.2031 25.8594Z" fill="#380017"/>
<path id="Vector_22" d="M33.2031 54.5781C33.0487 54.5802 32.8953 54.5513 32.7522 54.4932C32.6091 54.4351 32.479 54.3488 32.3698 54.2396C32.2606 54.1303 32.1743 54.0003 32.1162 53.8572C32.058 53.7141 32.0291 53.5607 32.0313 53.4062V49.9062C32.0313 49.5954 32.1547 49.2974 32.3745 49.0776C32.5943 48.8578 32.8923 48.7344 33.2031 48.7344C33.5139 48.7344 33.812 48.8578 34.0318 49.0776C34.2515 49.2974 34.375 49.5954 34.375 49.9062V53.4062C34.375 53.717 34.2515 54.0151 34.0318 54.2349C33.812 54.4547 33.5139 54.5781 33.2031 54.5781Z" fill="#380017"/>
</g>
</g>
</svg>
