<svg width="130" height="144" viewBox="0 0 130 144" fill="none" xmlns="http://www.w3.org/2000/svg">
<path d="M72.9843 137.125H10.7499C8.01616 137.121 5.39554 136.033 3.46246 134.1C1.52939 132.167 0.441572 129.546 0.437439 126.812V10.8281C0.441572 8.09435 1.52939 5.47372 3.46246 3.54065C5.39554 1.60758 8.01616 0.519758 10.7499 0.515625H97.2343C99.9681 0.519758 102.589 1.60758 104.522 3.54065C106.455 5.47372 107.543 8.09435 107.547 10.8281V81.1406C107.547 81.4514 107.423 81.7495 107.204 81.9693C106.984 82.189 106.686 82.3125 106.375 82.3125C106.064 82.3125 105.766 82.189 105.546 81.9693C105.327 81.7495 105.203 81.4514 105.203 81.1406V10.8281C105.199 8.71595 104.358 6.69147 102.864 5.19793C101.371 3.70439 99.3465 2.8635 97.2343 2.85938H10.7499C8.63776 2.8635 6.61328 3.70439 5.11974 5.19793C3.62621 6.69147 2.78532 8.71595 2.78119 10.8281V126.812C2.78532 128.925 3.62621 130.949 5.11974 132.443C6.61328 133.936 8.63776 134.777 10.7499 134.781H72.9843C73.2951 134.781 73.5932 134.905 73.813 135.124C74.0327 135.344 74.1562 135.642 74.1562 135.953C74.1562 136.264 74.0327 136.562 73.813 136.782C73.5932 137.002 73.2951 137.125 72.9843 137.125Z" fill="#380017"/>
<path d="M90.9062 38.75H18.1249C16.9673 38.75 15.8569 38.2912 15.0369 37.4741C14.2168 36.657 13.7541 35.5482 13.7499 34.3906V15.1406C13.7541 13.9816 14.2163 12.8712 15.0359 12.0516C15.8555 11.232 16.9659 10.7697 18.1249 10.7656H90.9062C92.0652 10.7697 93.1757 11.232 93.9952 12.0516C94.8148 12.8712 95.2771 13.9816 95.2812 15.1406V34.3906C95.277 35.5482 94.8143 36.657 93.9943 37.4741C93.1742 38.2912 92.0638 38.75 90.9062 38.75ZM18.1249 13.1094C17.5862 13.1094 17.0696 13.3234 16.6886 13.7043C16.3077 14.0852 16.0937 14.6019 16.0937 15.1406V34.3906C16.0978 34.9266 16.3136 35.4393 16.6941 35.8168C17.0746 36.1944 17.5889 36.4063 18.1249 36.4062H90.9062C91.4422 36.4063 91.9565 36.1944 92.337 35.8168C92.7175 35.4393 92.9333 34.9266 92.9374 34.3906V15.1406C92.9374 14.6019 92.7234 14.0852 92.3425 13.7043C91.9616 13.3234 91.4449 13.1094 90.9062 13.1094H18.1249Z" fill="#380017"/>
<path d="M31.0156 74.0938H18.5156C17.2363 74.0896 16.0107 73.5796 15.1061 72.6751C14.2016 71.7705 13.6916 70.5449 13.6874 69.2656V58.5156C13.6874 57.2337 14.1956 56.004 15.1006 55.0961C16.0056 54.1882 17.2336 53.676 18.5156 53.6719H31.0156C32.2975 53.676 33.5255 54.1882 34.4305 55.0961C35.3355 56.004 35.8437 57.2337 35.8437 58.5156V69.2656C35.8396 70.5449 35.3296 71.7705 34.425 72.6751C33.5205 73.5796 32.2948 74.0896 31.0156 74.0938ZM18.5156 56.0156C17.8552 56.0198 17.2234 56.285 16.7579 56.7534C16.2924 57.2218 16.0312 57.8553 16.0312 58.5156V69.2656C16.0353 69.9233 16.2983 70.5528 16.7634 71.0178C17.2284 71.4828 17.8579 71.7459 18.5156 71.75H31.0156C31.6732 71.7459 32.3027 71.4828 32.7678 71.0178C33.2328 70.5528 33.4958 69.9233 33.4999 69.2656V58.5156C33.5 57.8553 33.2387 57.2218 32.7732 56.7534C32.3078 56.285 31.6759 56.0198 31.0156 56.0156H18.5156Z" fill="#380017"/>
<path d="M60.7343 74.0938H48.2343C46.9551 74.0896 45.7294 73.5796 44.8249 72.6751C43.9203 71.7705 43.4103 70.5449 43.4062 69.2656V58.5156C43.4062 57.2337 43.9144 56.004 44.8194 55.0961C45.7244 54.1882 46.9524 53.676 48.2343 53.6719H60.7343C62.0162 53.676 63.2443 54.1882 64.1493 55.0961C65.0543 56.004 65.5624 57.2337 65.5624 58.5156V69.2656C65.5583 70.5449 65.0483 71.7705 64.1438 72.6751C63.2392 73.5796 62.0135 74.0896 60.7343 74.0938ZM48.2343 56.0156C47.574 56.0198 46.9421 56.285 46.4766 56.7534C46.0112 57.2218 45.7499 57.8553 45.7499 58.5156V69.2656C45.754 69.9233 46.0171 70.5528 46.4821 71.0178C46.9471 71.4828 47.5767 71.7459 48.2343 71.75H60.7343C61.3919 71.7459 62.0215 71.4828 62.4865 71.0178C62.9515 70.5528 63.2146 69.9233 63.2187 69.2656V58.5156C63.2187 57.8553 62.9575 57.2218 62.492 56.7534C62.0265 56.285 61.3946 56.0198 60.7343 56.0156H48.2343Z" fill="#380017"/>
<path d="M90.4531 74.0938H77.9531C76.6738 74.0896 75.4482 73.5796 74.5436 72.6751C73.6391 71.7705 73.1291 70.5449 73.1249 69.2656V58.5156C73.1249 57.2337 73.6331 56.004 74.5381 55.0961C75.4431 54.1882 76.6711 53.676 77.9531 53.6719H90.4531C91.735 53.676 92.963 54.1882 93.868 55.0961C94.773 56.004 95.2812 57.2337 95.2812 58.5156V69.2656C95.2771 70.5449 94.7671 71.7705 93.8625 72.6751C92.958 73.5796 91.7323 74.0896 90.4531 74.0938ZM77.9531 56.0156C77.2927 56.0198 76.6609 56.285 76.1954 56.7534C75.7299 57.2218 75.4687 57.8553 75.4687 58.5156V69.2656C75.4728 69.9233 75.7358 70.5528 76.2009 71.0178C76.6659 71.4828 77.2954 71.7459 77.9531 71.75H90.4531C91.1107 71.7459 91.7402 71.4828 92.2052 71.0178C92.6703 70.5528 92.9333 69.9233 92.9374 69.2656V58.5156C92.9374 57.8553 92.6762 57.2218 92.2107 56.7534C91.7453 56.285 91.1134 56.0198 90.4531 56.0156H77.9531Z" fill="#380017"/>
<path d="M31.0156 99.5938H18.5156C17.2363 99.5896 16.0107 99.0796 15.1061 98.1751C14.2016 97.2705 13.6916 96.0449 13.6874 94.7656V84.0156C13.6874 82.7351 14.1961 81.5071 15.1016 80.6016C16.007 79.6962 17.2351 79.1875 18.5156 79.1875H31.0156C31.6496 79.1875 32.2774 79.3124 32.8632 79.555C33.449 79.7977 33.9812 80.1533 34.4296 80.6016C34.8779 81.05 35.2335 81.5822 35.4762 82.168C35.7188 82.7538 35.8437 83.3816 35.8437 84.0156V94.7656C35.8396 96.0449 35.3296 97.2705 34.425 98.1751C33.5205 99.0796 32.2948 99.5896 31.0156 99.5938ZM18.5156 81.5312C17.8567 81.5312 17.2248 81.793 16.7588 82.2589C16.2929 82.7248 16.0312 83.3567 16.0312 84.0156V94.7656C16.0312 95.4245 16.2929 96.0564 16.7588 96.5223C17.2248 96.9883 17.8567 97.25 18.5156 97.25H31.0156C31.6745 97.25 32.3064 96.9883 32.7723 96.5223C33.2382 96.0564 33.4999 95.4245 33.4999 94.7656V84.0156C33.4999 83.3567 33.2382 82.7248 32.7723 82.2589C32.3064 81.793 31.6745 81.5312 31.0156 81.5312H18.5156Z" fill="#380017"/>
<path d="M60.7343 99.5938H48.2343C46.9551 99.5896 45.7294 99.0796 44.8249 98.1751C43.9203 97.2705 43.4103 96.0449 43.4062 94.7656V84.0156C43.4062 82.7351 43.9149 81.5071 44.8203 80.6016C45.7258 79.6962 46.9538 79.1875 48.2343 79.1875H60.7343C62.0148 79.1875 63.2429 79.6962 64.1483 80.6016C65.0538 81.5071 65.5624 82.7351 65.5624 84.0156V94.7656C65.5583 96.0449 65.0483 97.2705 64.1438 98.1751C63.2392 99.0796 62.0135 99.5896 60.7343 99.5938ZM48.2343 81.5312C47.9081 81.5312 47.585 81.5955 47.2836 81.7204C46.9822 81.8452 46.7083 82.0282 46.4776 82.2589C46.2469 82.4896 46.0639 82.7635 45.9391 83.0649C45.8142 83.3663 45.7499 83.6894 45.7499 84.0156V94.7656C45.7499 95.0919 45.8142 95.4149 45.9391 95.7164C46.0639 96.0178 46.2469 96.2917 46.4776 96.5223C46.7083 96.753 46.9822 96.936 47.2836 97.0609C47.585 97.1857 47.9081 97.25 48.2343 97.25H60.7343C61.3932 97.25 62.0251 96.9883 62.491 96.5223C62.9569 96.0564 63.2187 95.4245 63.2187 94.7656V84.0156C63.2187 83.3567 62.9569 82.7248 62.491 82.2589C62.0251 81.793 61.3932 81.5312 60.7343 81.5312H48.2343Z" fill="#380017"/>
<path d="M83.6406 125.125H77.9531C76.6726 125.125 75.4445 124.616 74.5391 123.711C73.6336 122.805 73.1249 121.577 73.1249 120.297V84.0156C73.1249 82.7351 73.6336 81.5071 74.5391 80.6016C75.4445 79.6962 76.6726 79.1875 77.9531 79.1875H90.4531C91.7336 79.1875 92.9616 79.6962 93.8671 80.6016C94.7725 81.5071 95.2812 82.7351 95.2812 84.0156V85.8906C95.2812 86.2014 95.1577 86.4995 94.938 86.7193C94.7182 86.939 94.4201 87.0625 94.1093 87.0625C93.7985 87.0625 93.5004 86.939 93.2807 86.7193C93.0609 86.4995 92.9374 86.2014 92.9374 85.8906V84.0156C92.9374 83.6894 92.8732 83.3663 92.7483 83.0649C92.6235 82.7635 92.4405 82.4896 92.2098 82.2589C91.9791 82.0282 91.7052 81.8452 91.4038 81.7204C91.1024 81.5955 90.7793 81.5312 90.4531 81.5312H77.9531C77.2942 81.5312 76.6623 81.793 76.1963 82.2589C75.7304 82.7248 75.4687 83.3567 75.4687 84.0156V120.266C75.4687 120.925 75.7304 121.556 76.1963 122.022C76.6623 122.488 77.2942 122.75 77.9531 122.75H83.6406C83.9514 122.75 84.2494 122.873 84.4692 123.093C84.689 123.313 84.8124 123.611 84.8124 123.922C84.8124 124.233 84.689 124.531 84.4692 124.751C84.2494 124.97 83.9514 125.094 83.6406 125.094V125.125Z" fill="#380017"/>
<path d="M31.0156 125.125H18.5156C17.2351 125.125 16.007 124.616 15.1016 123.711C14.1961 122.805 13.6874 121.577 13.6874 120.297V109.5C13.6916 108.221 14.2016 106.995 15.1061 106.091C16.0107 105.186 17.2363 104.676 18.5156 104.672H31.0156C32.2948 104.676 33.5205 105.186 34.425 106.091C35.3296 106.995 35.8396 108.221 35.8437 109.5V120.25C35.8499 120.888 35.7296 121.521 35.4897 122.112C35.2499 122.703 34.8952 123.241 34.4462 123.694C33.9973 124.148 33.463 124.507 32.8741 124.753C32.2852 124.999 31.6536 125.125 31.0156 125.125ZM18.5156 107.062C17.8647 107.062 17.2398 107.318 16.7752 107.773C16.3106 108.229 16.0435 108.849 16.0312 109.5V120.25C16.0312 120.576 16.0954 120.899 16.2203 121.201C16.3452 121.502 16.5281 121.776 16.7588 122.007C16.9895 122.237 17.2634 122.42 17.5648 122.545C17.8663 122.67 18.1893 122.734 18.5156 122.734H31.0156C31.3418 122.734 31.6649 122.67 31.9663 122.545C32.2677 122.42 32.5416 122.237 32.7723 122.007C33.003 121.776 33.186 121.502 33.3108 121.201C33.4357 120.899 33.4999 120.576 33.4999 120.25V109.5C33.4999 108.841 33.2382 108.209 32.7723 107.743C32.3064 107.277 31.6745 107.016 31.0156 107.016L18.5156 107.062Z" fill="#380017"/>
<path d="M60.7343 125.125H48.2343C46.9538 125.125 45.7258 124.616 44.8203 123.711C43.9149 122.805 43.4062 121.577 43.4062 120.297V109.5C43.4103 108.221 43.9203 106.995 44.8249 106.091C45.7294 105.186 46.9551 104.676 48.2343 104.672H60.7343C62.0135 104.676 63.2392 105.186 64.1438 106.091C65.0483 106.995 65.5583 108.221 65.5624 109.5V120.25C65.5686 120.888 65.4483 121.521 65.2085 122.112C64.9686 122.703 64.6139 123.241 64.165 123.694C63.716 124.148 63.1817 124.507 62.5928 124.753C62.004 124.999 61.3723 125.125 60.7343 125.125ZM48.2343 107.062C47.5835 107.062 46.9585 107.318 46.494 107.773C46.0294 108.229 45.7622 108.849 45.7499 109.5V120.25C45.7499 120.576 45.8142 120.899 45.9391 121.201C46.0639 121.502 46.2469 121.776 46.4776 122.007C46.7083 122.237 46.9822 122.42 47.2836 122.545C47.585 122.67 47.9081 122.734 48.2343 122.734H60.7343C61.0606 122.734 61.3836 122.67 61.685 122.545C61.9865 122.42 62.2603 122.237 62.491 122.007C62.7217 121.776 62.9047 121.502 63.0296 121.201C63.1544 120.899 63.2187 120.576 63.2187 120.25V109.5C63.2187 108.841 62.9569 108.209 62.491 107.743C62.0251 107.277 61.3932 107.016 60.7343 107.016L48.2343 107.062Z" fill="#380017"/>
<path d="M31.0781 47.3594H18.4531C18.1423 47.3594 17.8442 47.2359 17.6244 47.0161C17.4047 46.7964 17.2812 46.4983 17.2812 46.1875C17.2812 45.8767 17.4047 45.5786 17.6244 45.3589C17.8442 45.1391 18.1423 45.0156 18.4531 45.0156H31.0781C31.3889 45.0156 31.6869 45.1391 31.9067 45.3589C32.1265 45.5786 32.2499 45.8767 32.2499 46.1875C32.2499 46.4983 32.1265 46.7964 31.9067 47.0161C31.6869 47.2359 31.3889 47.3594 31.0781 47.3594Z" fill="#380017"/>
<path d="M60.7968 47.3594H48.1718C47.861 47.3594 47.5629 47.2359 47.3432 47.0161C47.1234 46.7964 46.9999 46.4983 46.9999 46.1875C46.9999 45.8767 47.1234 45.5786 47.3432 45.3589C47.5629 45.1391 47.861 45.0156 48.1718 45.0156H60.7968C61.1076 45.0156 61.4057 45.1391 61.6255 45.3589C61.8452 45.5786 61.9687 45.8767 61.9687 46.1875C61.9687 46.4983 61.8452 46.7964 61.6255 47.0161C61.4057 47.2359 61.1076 47.3594 60.7968 47.3594Z" fill="#380017"/>
<path d="M90.5156 47.3594H77.8906C77.5798 47.3594 77.2817 47.2359 77.0619 47.0161C76.8422 46.7964 76.7187 46.4983 76.7187 46.1875C76.7187 45.8767 76.8422 45.5786 77.0619 45.3589C77.2817 45.1391 77.5798 45.0156 77.8906 45.0156H90.5156C90.8264 45.0156 91.1244 45.1391 91.3442 45.3589C91.564 45.5786 91.6874 45.8767 91.6874 46.1875C91.6874 46.4983 91.564 46.7964 91.3442 47.0161C91.1244 47.2359 90.8264 47.3594 90.5156 47.3594Z" fill="#380017"/>
<path d="M106.016 116.812C102.369 116.825 98.8016 115.755 95.7639 113.738C92.7263 111.722 90.3554 108.849 88.9515 105.484C87.5476 102.119 87.1738 98.4127 87.8776 94.8351C88.5813 91.2575 90.3309 87.9692 92.9047 85.3866C95.4785 82.804 98.7609 81.0432 102.336 80.3273C105.911 79.6114 109.618 79.9726 112.988 81.365C116.358 82.7575 119.239 85.1186 121.266 88.1494C123.293 91.1802 124.375 94.7444 124.375 98.3905C124.371 103.264 122.437 107.938 118.997 111.39C115.556 114.842 110.889 116.792 106.016 116.812ZM106.016 82.3124C102.836 82.3124 99.7271 83.2554 97.083 85.0221C94.439 86.7887 92.3782 89.2998 91.1613 92.2377C89.9444 95.1756 89.626 98.4084 90.2464 101.527C90.8668 104.646 92.398 107.511 94.6466 109.759C96.8952 112.008 99.76 113.539 102.879 114.16C105.998 114.78 109.23 114.462 112.168 113.245C115.106 112.028 117.617 109.967 119.384 107.323C121.151 104.679 122.094 101.57 122.094 98.3905C122.094 94.1263 120.4 90.0368 117.385 87.0216C114.369 84.0063 110.28 82.3124 106.016 82.3124Z" fill="#380017"/>
<path d="M124.484 130.156H87.5468C86.2093 130.152 84.9271 129.622 83.977 128.681C83.0268 127.74 82.4851 126.462 82.4687 125.125V119.547C82.4728 118.201 83.0091 116.912 83.9606 115.961C84.912 115.009 86.2013 114.473 87.5468 114.469H124.484C125.83 114.473 127.119 115.009 128.071 115.961C129.022 116.912 129.558 118.201 129.562 119.547V125.125C129.546 126.462 129.004 127.74 128.054 128.681C127.104 129.622 125.822 130.152 124.484 130.156ZM87.5468 116.812C86.8216 116.812 86.1261 117.101 85.6133 117.613C85.1005 118.126 84.8124 118.822 84.8124 119.547V125.125C84.8124 125.85 85.1005 126.546 85.6133 127.058C86.1261 127.571 86.8216 127.859 87.5468 127.859H124.484C125.208 127.855 125.901 127.566 126.413 127.054C126.925 126.542 127.215 125.849 127.219 125.125V119.547C127.215 118.823 126.925 118.13 126.413 117.618C125.901 117.106 125.208 116.817 124.484 116.812H87.5468Z" fill="#380017"/>
<path d="M93.1249 127.656C92.8154 127.652 92.5197 127.527 92.3008 127.309C92.0819 127.09 91.9571 126.794 91.9531 126.484V118.141C91.9531 117.83 92.0765 117.532 92.2963 117.312C92.5161 117.092 92.8141 116.969 93.1249 116.969C93.4357 116.969 93.7338 117.092 93.9536 117.312C94.1733 117.532 94.2968 117.83 94.2968 118.141V126.484C94.2968 126.795 94.1733 127.093 93.9536 127.313C93.7338 127.533 93.4357 127.656 93.1249 127.656Z" fill="#380017"/>
<path d="M106.016 127.656C105.705 127.656 105.407 127.533 105.187 127.313C104.967 127.093 104.844 126.795 104.844 126.484V118.141C104.844 117.83 104.967 117.532 105.187 117.312C105.407 117.092 105.705 116.969 106.016 116.969C106.326 116.969 106.624 117.092 106.844 117.312C107.064 117.532 107.187 117.83 107.187 118.141V126.484C107.183 126.794 107.059 127.09 106.84 127.309C106.621 127.527 106.325 127.652 106.016 127.656Z" fill="#380017"/>
<path d="M118.875 127.656C118.564 127.656 118.266 127.533 118.046 127.313C117.827 127.093 117.703 126.795 117.703 126.484V118.141C117.703 117.83 117.827 117.532 118.046 117.312C118.266 117.092 118.564 116.969 118.875 116.969C119.186 116.969 119.484 117.092 119.704 117.312C119.923 117.532 120.047 117.83 120.047 118.141V126.484C120.043 126.794 119.918 127.09 119.699 127.309C119.48 127.527 119.184 127.652 118.875 127.656Z" fill="#380017"/>
<path d="M113.828 143.484H76.8906C75.545 143.48 74.2558 142.944 73.3043 141.992C72.3529 141.041 71.8166 139.752 71.8124 138.406V132.937C71.8166 131.593 72.3534 130.306 73.3053 129.357C74.2572 128.408 75.5465 127.875 76.8906 127.875H113.828C115.172 127.875 116.461 128.408 117.413 129.357C118.365 130.306 118.902 131.593 118.906 132.937V138.406C118.902 139.752 118.366 141.041 117.414 141.992C116.463 142.944 115.174 143.48 113.828 143.484ZM76.8906 130.156C76.5269 130.154 76.1665 130.225 75.8307 130.364C75.4949 130.504 75.1905 130.71 74.9355 130.969C74.6805 131.228 74.4802 131.536 74.3463 131.874C74.2125 132.212 74.1478 132.574 74.1562 132.937V138.406C74.1562 139.131 74.4443 139.827 74.9571 140.34C75.4699 140.853 76.1654 141.141 76.8906 141.141H113.828C114.553 141.141 115.249 140.853 115.762 140.34C116.274 139.827 116.562 139.131 116.562 138.406V132.937C116.558 132.215 116.268 131.524 115.756 131.014C115.244 130.505 114.551 130.219 113.828 130.219L76.8906 130.156Z" fill="#380017"/>
<path d="M82.4999 140.828C82.1904 140.824 81.8947 140.699 81.6758 140.48C81.4569 140.262 81.3321 139.966 81.3281 139.656V131.641C81.3281 131.33 81.4515 131.032 81.6713 130.812C81.8911 130.592 82.1891 130.469 82.4999 130.469C82.8107 130.469 83.1088 130.592 83.3286 130.812C83.5483 131.032 83.6718 131.33 83.6718 131.641V139.656C83.6678 139.966 83.543 140.262 83.3241 140.48C83.1052 140.699 82.8095 140.824 82.4999 140.828Z" fill="#380017"/>
<path d="M95.3593 140.828C95.0485 140.828 94.7504 140.705 94.5307 140.485C94.3109 140.265 94.1874 139.967 94.1874 139.656V131.641C94.1874 131.33 94.3109 131.032 94.5307 130.812C94.7504 130.592 95.0485 130.469 95.3593 130.469C95.6701 130.469 95.9682 130.592 96.1879 130.812C96.4077 131.032 96.5312 131.33 96.5312 131.641V139.656C96.5271 139.966 96.4024 140.262 96.1835 140.48C95.9646 140.699 95.6689 140.824 95.3593 140.828Z" fill="#380017"/>
<path d="M108.219 140.828C107.908 140.828 107.61 140.705 107.39 140.485C107.17 140.265 107.047 139.967 107.047 139.656V131.641C107.047 131.33 107.17 131.032 107.39 130.812C107.61 130.592 107.908 130.469 108.219 130.469C108.529 130.469 108.828 130.592 109.047 130.812C109.267 131.032 109.391 131.33 109.391 131.641V139.656C109.387 139.966 109.262 140.262 109.043 140.48C108.824 140.699 108.528 140.824 108.219 140.828Z" fill="#380017"/>
<path d="M106.016 107.937C104.633 107.992 103.275 107.563 102.174 106.725C101.073 105.886 100.299 104.691 99.9843 103.344C99.9345 103.035 100.008 102.719 100.19 102.465C100.371 102.211 100.645 102.038 100.953 101.984C101.26 101.935 101.573 102.009 101.825 102.191C102.077 102.372 102.247 102.646 102.297 102.953C102.515 103.755 103.005 104.457 103.684 104.939C104.362 105.42 105.186 105.652 106.016 105.594C106.745 105.622 107.468 105.441 108.099 105.073C108.73 104.705 109.243 104.165 109.578 103.516C109.803 102.907 109.815 102.239 109.61 101.623C109.406 101.007 108.998 100.478 108.453 100.125C107.672 99.7634 106.828 99.5565 105.969 99.5155C105.17 99.4442 104.38 99.2977 103.609 99.078C102.559 98.7434 101.639 98.0893 100.978 97.207C100.317 96.3248 99.9478 95.2582 99.9218 94.1561C100.022 92.636 100.719 91.2169 101.86 90.2075C103.001 89.198 104.494 88.6798 106.016 88.7655C107.342 88.7187 108.646 89.1116 109.725 89.8831C110.805 90.6546 111.599 91.7614 111.984 93.0311C112.055 93.3336 112.002 93.6516 111.838 93.9153C111.674 94.179 111.412 94.3668 111.109 94.4374C110.961 94.4745 110.806 94.4817 110.654 94.4585C110.503 94.4353 110.357 94.3822 110.226 94.3022C110.095 94.2222 109.982 94.117 109.892 93.9927C109.802 93.8683 109.738 93.7274 109.703 93.578C109.446 92.8176 108.946 92.1633 108.279 91.7169C107.612 91.2704 106.816 91.0568 106.016 91.1093C105.104 91.0268 104.197 91.3096 103.494 91.8956C102.791 92.4815 102.349 93.3227 102.266 94.2343C102.289 94.8429 102.501 95.4292 102.874 95.9111C103.247 96.3929 103.76 96.7463 104.344 96.9218C104.961 97.1001 105.594 97.2152 106.234 97.2655C107.408 97.3293 108.557 97.6323 109.609 98.1561C110.655 98.7927 111.442 99.7787 111.831 100.94C112.22 102.101 112.186 103.362 111.734 104.5C111.215 105.564 110.399 106.456 109.384 107.066C108.369 107.676 107.199 107.979 106.016 107.937Z" fill="#380017"/>
<path d="M106.016 91.1406C105.705 91.1406 105.407 91.0172 105.187 90.7974C104.967 90.5776 104.844 90.2796 104.844 89.9688V87.625C104.844 87.3142 104.967 87.0161 105.187 86.7964C105.407 86.5766 105.705 86.4531 106.016 86.4531C106.326 86.4531 106.624 86.5766 106.844 86.7964C107.064 87.0161 107.187 87.3142 107.187 87.625V89.9688C107.187 90.2796 107.064 90.5776 106.844 90.7974C106.624 91.0172 106.326 91.1406 106.016 91.1406Z" fill="#380017"/>
<path d="M106.016 110.312C105.705 110.312 105.407 110.189 105.187 109.969C104.967 109.75 104.844 109.451 104.844 109.141V106.813C104.844 106.502 104.967 106.204 105.187 105.984C105.407 105.764 105.705 105.641 106.016 105.641C106.326 105.641 106.624 105.764 106.844 105.984C107.064 106.204 107.187 106.502 107.187 106.813V109.141C107.187 109.451 107.064 109.75 106.844 109.969C106.624 110.189 106.326 110.312 106.016 110.312Z" fill="#380017"/>
</svg>
