<svg width="18" height="18" viewBox="0 0 18 18" fill="none" xmlns="http://www.w3.org/2000/svg">
<g id="lets-icons:question">
<g id="Group">
<path id="Vector" d="M9 15.75C12.7279 15.75 15.75 12.7279 15.75 9C15.75 5.27208 12.7279 2.25 9 2.25C5.27208 2.25 2.25 5.27208 2.25 9C2.25 12.7279 5.27208 15.75 9 15.75Z" stroke="#380017"/>
<path id="Vector_2" d="M9 13.875C9.20711 13.875 9.375 13.7071 9.375 13.5C9.375 13.2929 9.20711 13.125 9 13.125C8.79289 13.125 8.625 13.2929 8.625 13.5C8.625 13.7071 8.79289 13.875 9 13.875Z" fill="#380017" stroke="#380017" stroke-width="0.5"/>
<path id="Vector_3" d="M9 12V10.9358C9 10.2278 9.453 9.59925 10.125 9.375C10.4526 9.26578 10.7375 9.05628 10.9394 8.77617C11.1413 8.49607 11.2499 8.15954 11.25 7.81425V7.4295C11.25 6.225 10.275 5.25 9.0705 5.25H9C8.40326 5.25 7.83097 5.48705 7.40901 5.90901C6.98705 6.33097 6.75 6.90326 6.75 7.5" stroke="#380017"/>
</g>
</g>
</svg>
