<svg width="48" height="48" viewBox="0 0 48 48" fill="none" xmlns="http://www.w3.org/2000/svg">
<g id="ic:sharp-telegram">
<path id="Vector" d="M23.6 1.6001C11.456 1.6001 1.60001 11.4561 1.60001 23.6001C1.60001 35.7441 11.456 45.6001 23.6 45.6001C35.744 45.6001 45.6 35.7441 45.6 23.6001C45.6 11.4561 35.744 1.6001 23.6 1.6001ZM33.808 16.5601C33.478 20.0361 32.048 28.4841 31.322 32.3781C31.014 34.0281 30.398 34.5781 29.826 34.6441C28.55 34.7541 27.582 33.8081 26.35 32.9941C24.414 31.7181 23.314 30.9261 21.444 29.6941C19.266 28.2641 20.674 27.4721 21.928 26.1961C22.258 25.8661 27.89 20.7401 28 20.2781C28.0153 20.2081 28.0133 20.1355 27.9941 20.0665C27.9749 19.9975 27.9392 19.9342 27.89 19.8821C27.758 19.7721 27.582 19.8161 27.428 19.8381C27.23 19.8821 24.15 21.9281 18.144 25.9761C17.264 26.5701 16.472 26.8781 15.768 26.8561C14.976 26.8341 13.48 26.4161 12.358 26.0421C10.972 25.6021 9.89401 25.3601 9.98201 24.5901C10.026 24.1941 10.576 23.7981 11.61 23.3801C18.034 20.5861 22.302 18.7381 24.436 17.8581C30.552 15.3061 31.806 14.8661 32.642 14.8661C32.818 14.8661 33.236 14.9101 33.5 15.1301C33.72 15.3061 33.786 15.5481 33.808 15.7241C33.786 15.8561 33.83 16.2521 33.808 16.5601Z" fill="#380017"/>
</g>
</svg>
