<svg width="150" height="150" viewBox="0 0 150 150" fill="none" xmlns="http://www.w3.org/2000/svg">
<g id="brainstorming_idea_generation_creativity_innovation_brainstorming_icon_263019 1">
<path id="Vector" d="M28.468 88.4202C24.351 88.4202 17.9521 87.6064 14.25 83.1064C10.5478 78.6064 10.5 72.2872 13.5798 63.6702C13.6233 63.5116 13.6991 63.3636 13.8024 63.2356C13.9057 63.1076 14.0343 63.0022 14.1801 62.9261C14.3259 62.85 14.4859 62.8047 14.65 62.7932C14.8141 62.7817 14.9788 62.8041 15.1338 62.8591C15.2889 62.9141 15.4309 63.0004 15.5511 63.1128C15.6713 63.2251 15.767 63.361 15.8323 63.512C15.8976 63.663 15.9311 63.8258 15.9306 63.9903C15.9302 64.1548 15.8959 64.3174 15.8298 64.4681C13.0532 72.2393 13.1329 78 16.0851 81.5904C20.0266 86.3776 28.117 86.1542 30.9734 85.9149C31.0532 82.8829 32.0266 74.8883 40.117 72.3989C39.129 67.6805 39.8889 62.7638 42.2553 58.5638C44.7766 54.5744 49.0212 52.0212 54.9095 50.984C55.0704 50.939 55.2389 50.9281 55.4042 50.9521C55.5695 50.9761 55.7279 51.0345 55.8693 51.1234C56.0107 51.2123 56.1319 51.3298 56.2252 51.4684C56.3184 51.607 56.3816 51.7636 56.4107 51.9281C56.4398 52.0925 56.4341 52.2613 56.3941 52.4235C56.354 52.5856 56.2805 52.7376 56.1782 52.8696C56.0759 53.0016 55.947 53.1108 55.8 53.19C55.653 53.2693 55.491 53.3169 55.3244 53.3298C50.1383 54.2553 46.4361 56.4255 44.2978 59.8244C40.6915 65.5212 42.7021 72.8776 42.7021 72.9415C42.7823 73.26 42.7365 73.5972 42.5744 73.8829C42.4901 74.0221 42.379 74.1432 42.2475 74.239C42.116 74.3349 41.9668 74.4037 41.8085 74.4415C32.6489 76.484 33.351 86.4574 33.3989 86.8883C33.4185 87.1901 33.3246 87.4883 33.1357 87.7245C32.9468 87.9607 32.6764 88.1177 32.3776 88.1649C31.0825 88.3464 29.7758 88.4317 28.468 88.4202Z" fill="#380017"/>
<path id="Vector_2" d="M12.7659 73.5639C12.5319 73.5757 12.2993 73.5203 12.0957 73.4043C11.6808 73.149 2.02654 67.0213 1.99463 58.5958C1.99463 53.5851 5.34569 48.9256 11.984 44.7447C12.2527 44.5754 12.5777 44.5198 12.8875 44.5902C13.1972 44.6605 13.4663 44.851 13.6356 45.1197C13.8049 45.3885 13.8605 45.7134 13.7901 46.0232C13.7198 46.3329 13.5293 46.602 13.2606 46.7713C7.35633 50.4894 4.37229 54.4628 4.38825 58.5958C4.38825 65.7447 13.2606 71.3617 13.3563 71.3617C13.6085 71.5314 13.7878 71.7895 13.8587 72.085C13.9296 72.3805 13.887 72.6919 13.7393 72.9575C13.6386 73.1301 13.4973 73.2755 13.3277 73.3812C13.1581 73.4869 12.9652 73.5496 12.7659 73.5639Z" fill="#380017"/>
<path id="Vector_3" d="M9.44686 49.1809C9.17008 49.1784 8.90273 49.08 8.69034 48.9025C8.47794 48.725 8.33363 48.4794 8.28197 48.2075C8.20218 47.7607 6.30325 37.2926 12.399 30.6543C16.149 26.5532 21.9735 24.8617 29.9522 25.6437C30.2673 25.6759 30.5567 25.8317 30.7571 26.077C30.9575 26.3223 31.0525 26.637 31.0213 26.9522C31.0096 27.1098 30.9659 27.2634 30.8929 27.4036C30.8199 27.5439 30.7191 27.6678 30.5967 27.7678C30.4743 27.8678 30.3328 27.9419 30.1808 27.9854C30.0289 28.029 29.8696 28.0412 29.7128 28.0213C22.6756 27.3351 17.4735 28.7554 14.2501 32.266C8.96814 38.0266 10.6915 47.6968 10.7075 47.7926C10.7374 47.9468 10.7362 48.1053 10.7041 48.2591C10.672 48.4128 10.6095 48.5585 10.5203 48.6878C10.4312 48.8171 10.3171 48.9273 10.1849 49.012C10.0526 49.0966 9.90479 49.154 9.75005 49.1809H9.44686Z" fill="#380017"/>
<path id="Vector_4" d="M25.867 27.8138C25.6543 27.8155 25.445 27.7604 25.2607 27.6542C25.0031 27.4895 24.8173 27.2336 24.7403 26.9377C24.6634 26.6418 24.701 26.3278 24.8458 26.0585C25.0692 25.6915 30.3351 16.9787 40.149 14.7606C46.5319 13.3244 53.1543 14.9361 60.0319 19.5479C60.2755 19.7332 60.4388 20.0047 60.4883 20.3067C60.5378 20.6087 60.4697 20.9182 60.2981 21.1715C60.1265 21.4249 59.8643 21.6029 59.5655 21.6689C59.2667 21.735 58.9539 21.684 58.6915 21.5266C52.4043 17.3138 46.3564 15.8138 40.7075 17.0904C31.9149 19.0213 26.9521 27.1276 26.9043 27.2393C26.795 27.4159 26.6423 27.5614 26.4606 27.662C26.279 27.7626 26.0746 27.8148 25.867 27.8138Z" fill="#380017"/>
<path id="Vector_5" d="M90.6702 22.2128C90.4751 22.2111 90.2832 22.1623 90.111 22.0707C89.9388 21.979 89.7912 21.8471 89.6808 21.6862C85.4521 15.5267 80.5212 12.1118 75.0159 11.649C65.3138 10.7713 56.8404 19.149 56.7446 19.2767C56.5202 19.5008 56.216 19.6267 55.8989 19.6267C55.5817 19.6267 55.2775 19.5008 55.0531 19.2767C54.829 19.0522 54.7031 18.7481 54.7031 18.4309C54.7031 18.1138 54.829 17.8096 55.0531 17.5852C55.4202 17.2022 64.3563 8.29793 75.2234 9.27133C81.4627 9.82984 86.9999 13.5479 91.6595 20.3298C91.8101 20.589 91.8608 20.8942 91.802 21.1881C91.7432 21.482 91.579 21.7443 91.3404 21.9256C91.1482 22.0822 90.916 22.1817 90.6702 22.2128Z" fill="#380017"/>
<path id="Vector_6" d="M115.899 33.5106C115.624 33.5088 115.359 33.4127 115.147 33.2384C114.935 33.0641 114.789 32.8221 114.734 32.5531C113.266 25.2287 110.266 20.4574 105.798 18.367C98.5372 14.968 89.633 19.6914 89.5532 19.7393C89.2745 19.8771 88.9535 19.9026 88.6566 19.8106C88.3596 19.7185 88.1093 19.5159 87.9574 19.2446C87.8101 18.9694 87.7777 18.647 87.8674 18.3479C87.9571 18.0489 88.1616 17.7976 88.4362 17.6489C88.8511 17.4255 98.4734 12.3031 106.835 16.2127C112.037 18.6382 115.484 23.984 117.112 32.1702C117.144 32.3253 117.146 32.4854 117.116 32.6411C117.086 32.7968 117.026 32.945 116.938 33.0771C116.85 33.2092 116.737 33.3227 116.606 33.4108C116.474 33.4989 116.326 33.5599 116.17 33.5904L115.899 33.5106Z" fill="#380017"/>
<path id="Vector_7" d="M135.814 51.5266H135.638C135.327 51.4649 135.054 51.2824 134.877 51.0191C134.701 50.7558 134.636 50.4333 134.697 50.1223C135.814 44.617 135 40.1329 132.271 36.7978C126.766 30.0478 115.165 29.9521 115.053 29.9521C114.736 29.9521 114.431 29.826 114.207 29.6015C113.983 29.3771 113.856 29.0727 113.856 28.7553C113.856 28.4379 113.983 28.1335 114.207 27.909C114.431 27.6846 114.736 27.5585 115.053 27.5585C115.596 27.5585 127.819 27.6542 134.106 35.2659C137.298 39.1915 138.303 44.3457 137.043 50.5851C136.985 50.8636 136.83 51.1123 136.604 51.2852C136.378 51.4582 136.098 51.5439 135.814 51.5266Z" fill="#380017"/>
<path id="Vector_8" d="M140.17 77.0905C139.93 77.0905 139.695 77.018 139.496 76.8825C139.297 76.747 139.144 76.5547 139.056 76.3307C138.968 76.1068 138.95 75.8615 139.003 75.627C139.057 75.3925 139.18 75.1796 139.356 75.016C143.936 70.7873 146.011 66.4788 145.548 62.25C144.702 54.4628 135.654 49.1011 135.574 49.0373C135.335 48.863 135.168 48.6061 135.107 48.3162C135.046 48.0262 135.095 47.724 135.244 47.4678C135.393 47.2117 135.631 47.0199 135.913 46.9296C136.196 46.8392 136.501 46.8567 136.771 46.9788C137.186 47.2181 146.936 52.9788 147.941 61.9788C148.5 67.0373 146.17 72.032 141 76.8032C140.769 76.9993 140.473 77.1017 140.17 77.0905Z" fill="#380017"/>
<path id="Vector_9" d="M128.043 97.2446C127.747 97.2273 127.469 97.1014 127.261 96.8912C127.054 96.681 126.931 96.4013 126.917 96.1061C126.903 95.8108 126.999 95.5209 127.186 95.2921C127.374 95.0633 127.639 94.9119 127.931 94.867C132.718 94.4521 136.324 92.6968 138.479 89.6489C142.596 83.8085 140.426 75 140.33 74.9042C140.252 74.5954 140.299 74.2683 140.46 73.9936C140.621 73.7189 140.884 73.5186 141.191 73.4361C141.498 73.3586 141.823 73.4058 142.095 73.5672C142.368 73.7287 142.565 73.9914 142.644 74.2978C142.755 74.6968 145.213 84.2553 140.426 90.9574C137.856 94.6117 133.707 96.7021 128.122 97.1808L128.043 97.2446Z" fill="#380017"/>
<path id="Vector_10" d="M106.564 118.085C85.9468 118.085 79.4361 103.42 79.4361 103.261C79.3113 102.969 79.3076 102.639 79.4258 102.344C79.544 102.049 79.7744 101.814 80.0665 101.689C80.3585 101.564 80.6881 101.56 80.9829 101.678C81.2777 101.797 81.5134 102.027 81.6383 102.319C81.9095 102.957 88.6276 118.005 111.638 115.404C119.521 114.511 125.058 111.862 128.074 107.537C130.354 104.059 131.168 99.8206 130.34 95.7447C130.264 95.4358 130.314 95.1092 130.478 94.8369C130.643 94.5646 130.909 94.3688 131.218 94.2926C131.527 94.2164 131.854 94.2661 132.126 94.4307C132.398 94.5953 132.594 94.8613 132.67 95.1702C133.155 97.4969 133.173 99.8966 132.724 102.23C132.275 104.564 131.367 106.785 130.053 108.766C126.638 113.697 120.479 116.745 111.91 117.67C110.137 117.906 108.352 118.045 106.564 118.085Z" fill="#380017"/>
<path id="Vector_11" d="M68.9042 107.665C67.8325 107.663 66.7636 107.556 65.7127 107.346C60.9255 106.388 56.7766 103.261 53.5531 98.0426C53.4016 97.7779 53.3569 97.4653 53.4281 97.1687C53.4992 96.8722 53.681 96.6139 53.9361 96.4468C54.2017 96.2991 54.5131 96.2565 54.8086 96.3274C55.1041 96.3984 55.3622 96.5777 55.5319 96.8298C58.3883 101.457 61.9149 104.218 66.1117 105.048C73.2127 106.468 79.7712 101.856 79.8351 101.856C79.9514 101.72 80.097 101.612 80.261 101.539C80.4249 101.466 80.6031 101.432 80.7823 101.437C80.9615 101.443 81.1372 101.488 81.2964 101.571C81.4556 101.653 81.5942 101.771 81.7019 101.914C81.8097 102.057 81.8839 102.223 81.9191 102.399C81.9542 102.575 81.9494 102.756 81.905 102.93C81.8606 103.103 81.7777 103.265 81.6625 103.402C81.5473 103.54 81.4026 103.649 81.2393 103.723C77.5823 106.176 73.3056 107.542 68.9042 107.665Z" fill="#380017"/>
<path id="Vector_12" d="M48.8936 102.91C44.154 103.059 39.4805 101.768 35.4894 99.2074C31.4035 96.4367 28.5052 92.2345 27.367 87.4308C27.331 87.1298 27.4105 86.8264 27.5895 86.5818C27.7685 86.3371 28.0336 86.1695 28.3314 86.1128C28.6292 86.0561 28.9374 86.1145 29.1938 86.2762C29.4502 86.4379 29.6356 86.6909 29.7128 86.984C30.769 91.1596 33.3105 94.8074 36.8617 97.2446C41.7766 100.548 48.4787 101.346 56.7766 99.6542C57.0877 99.5907 57.4112 99.6534 57.676 99.8285C57.9409 100.004 58.1253 100.277 58.1888 100.588C58.2523 100.899 58.1896 101.222 58.0146 101.487C57.8395 101.752 57.5664 101.936 57.2553 102C54.5056 102.583 51.7043 102.887 48.8936 102.91Z" fill="#380017"/>
<path id="Vector_13" d="M92.9522 140.808C91.4477 140.802 89.974 140.382 88.6915 139.596C85.4362 137.601 84.5745 134.043 83.7766 130.851C83.5373 129.878 83.3139 128.952 83.0266 128.09C81.5781 124.016 79.5289 120.181 76.9469 116.713L76.4522 116.011C74.3695 112.8 71.8748 109.876 69.032 107.314C68.8991 107.214 68.7884 107.088 68.707 106.943C68.6257 106.798 68.5754 106.638 68.5593 106.472C68.5433 106.307 68.5618 106.14 68.6138 105.982C68.6658 105.824 68.7501 105.679 68.8613 105.556C68.9726 105.432 69.1083 105.333 69.2598 105.265C69.4114 105.197 69.5755 105.161 69.7416 105.16C69.9078 105.159 70.0724 105.192 70.2249 105.258C70.3775 105.324 70.5147 105.421 70.6277 105.543C73.5934 108.222 76.2002 111.274 78.383 114.622L78.8777 115.34C81.591 119 83.7424 123.045 85.2607 127.34C85.5798 128.282 85.8192 129.303 86.0586 130.277C86.7926 133.261 87.4788 136.053 89.9043 137.537C90.7353 138.055 91.6855 138.35 92.6635 138.395C93.6415 138.44 94.6146 138.232 95.4894 137.793C96.543 137.299 97.4583 136.552 98.1542 135.62C98.8501 134.687 99.3051 133.597 99.4788 132.447C99.6702 130.284 99.5736 128.105 99.1915 125.968C98.4456 122.66 98.6223 119.21 99.7022 115.995C99.7457 115.832 99.823 115.681 99.929 115.55C100.035 115.42 100.167 115.313 100.317 115.237C100.467 115.161 100.631 115.118 100.799 115.11C100.967 115.101 101.135 115.128 101.291 115.189C101.448 115.25 101.59 115.343 101.709 115.463C101.827 115.582 101.919 115.725 101.978 115.883C102.037 116.04 102.063 116.208 102.053 116.376C102.043 116.543 101.998 116.707 101.92 116.856C101.013 119.701 100.886 122.738 101.553 125.649C101.989 127.995 102.086 130.392 101.84 132.766C101.627 134.312 101.032 135.78 100.11 137.039C99.1882 138.298 97.9678 139.308 96.5586 139.979C95.4337 140.522 94.2012 140.805 92.9522 140.808Z" fill="#380017"/>
<path id="Vector_14" d="M58.1489 93.1914C57.9093 93.1939 57.675 93.1213 57.4787 92.984C57.2238 92.8168 57.0413 92.5598 56.9674 92.2641C56.8934 91.9684 56.9336 91.6557 57.0798 91.3883L71.9681 62.234H62.8883C62.6802 62.2346 62.4757 62.1809 62.2947 62.0783C62.1137 61.9757 61.9626 61.8277 61.8563 61.6489C61.75 61.47 61.6921 61.2666 61.6884 61.0586C61.6847 60.8506 61.7352 60.6452 61.8351 60.4627L77.601 31.2925C77.7057 31.1048 77.8584 30.9482 78.0434 30.8388C78.2285 30.7295 78.4393 30.6713 78.6542 30.6702H94.3085C94.5238 30.6696 94.7353 30.7271 94.9206 30.8366C95.106 30.9461 95.2583 31.1036 95.3617 31.2925C95.4744 31.4776 95.5341 31.6901 95.5341 31.9069C95.5341 32.1236 95.4744 32.3361 95.3617 32.5212L82.7713 51.2393H93.5744C93.8056 51.239 94.0319 51.3057 94.226 51.4312C94.4201 51.5568 94.5737 51.7358 94.6682 51.9468C94.7627 52.1578 94.7941 52.3916 94.7586 52.62C94.7231 52.8484 94.6222 53.0617 94.4681 53.234L59.0425 92.7925C58.9289 92.9167 58.7909 93.0162 58.6372 93.0848C58.4834 93.1534 58.3172 93.1897 58.1489 93.1914ZM64.883 59.8563H73.9308C74.1346 59.8528 74.3355 59.9044 74.5124 60.0055C74.6893 60.1066 74.8357 60.2535 74.9361 60.4308C75.0384 60.6079 75.0922 60.8088 75.0922 61.0133C75.0922 61.2177 75.0384 61.4186 74.9361 61.5957L63.383 84.351L90.9574 53.6329H80.5372C80.3199 53.6337 80.1066 53.5746 79.9208 53.462C79.735 53.3493 79.5839 53.1876 79.484 52.9946C79.3746 52.8084 79.3169 52.5963 79.3169 52.3803C79.3169 52.1643 79.3746 51.9522 79.484 51.7659L92.0106 33.0797H79.3723L64.883 59.8563Z" fill="#380017"/>
<path id="Vector_15" d="M33.766 80.4095C33.6068 80.41 33.4492 80.3774 33.3032 80.3138C31.5153 79.7148 29.8955 78.6992 28.5775 77.3507C27.2596 76.0023 26.2813 74.3596 25.7234 72.5585C23.9841 66.1755 28.3724 59.1063 29.7447 57.0797C27.7819 51.8776 27.8617 47.7127 29.9841 44.6968C32.9362 40.5319 38.8245 39.9095 40.9947 39.9095C41.6815 38.2646 42.7093 36.7839 44.0104 35.5654C45.3115 34.3468 46.8562 33.4181 48.5426 32.8404C54.8458 30.8457 61.4043 34.8191 61.6915 34.9787C61.9464 35.1459 62.1289 35.4029 62.2028 35.6986C62.2768 35.9943 62.2366 36.307 62.0904 36.5744C61.9285 36.8354 61.6714 37.023 61.3735 37.0974C61.0755 37.1719 60.7603 37.1274 60.4947 36.9734C60.4947 36.9734 54.4947 33.5106 49.2447 35.1063C47.7721 35.6499 46.437 36.5105 45.3339 37.6273C44.2309 38.7442 43.3869 40.0899 42.8617 41.5691C42.7705 41.7936 42.6097 41.983 42.4029 42.1094C42.1961 42.2357 41.9542 42.2925 41.7128 42.2712C41.7128 42.2712 34.7553 42.0638 31.9309 46.0532C30.2234 48.4787 30.3351 52.0851 32.2021 56.7766C32.2796 56.9677 32.3056 57.1759 32.2776 57.3803C32.2497 57.5847 32.1686 57.7781 32.0426 57.9415C32.0426 58.0212 26.3298 65.6968 28.0373 71.9042C28.4894 73.3719 29.2879 74.7094 30.3655 75.8036C31.4431 76.8979 32.7681 77.7169 34.2287 78.1914C34.482 78.2993 34.6904 78.4913 34.8187 78.7349C34.947 78.9785 34.9873 79.2589 34.933 79.5288C34.8786 79.7987 34.7329 80.0416 34.5203 80.2166C34.3077 80.3916 34.0413 80.4879 33.766 80.4893V80.4095Z" fill="#380017"/>
<path id="Vector_16" d="M80.5372 103.915C80.2628 103.92 79.995 103.831 79.7787 103.662C79.5623 103.493 79.4106 103.255 79.3489 102.987C79.2872 102.72 79.3192 102.44 79.4397 102.193C79.5602 101.946 79.7617 101.749 80.0106 101.633C80.3138 101.489 86.9362 97.9628 85.4681 84.0798C85.4425 83.9189 85.45 83.7545 85.4902 83.5966C85.5304 83.4386 85.6025 83.2906 85.7019 83.1615C85.8013 83.0324 85.9261 82.925 86.0685 82.8458C86.2109 82.7667 86.368 82.7174 86.5301 82.7011C86.6923 82.6848 86.856 82.7017 87.0114 82.7509C87.1667 82.8001 87.3104 82.8805 87.4335 82.9872C87.5567 83.0939 87.6568 83.2246 87.7277 83.3713C87.7986 83.518 87.8387 83.6777 87.8457 83.8405C89.4415 99.5426 81.4627 103.644 81.0479 103.803C80.8885 103.879 80.7138 103.917 80.5372 103.915Z" fill="#380017"/>
<path id="Vector_17" d="M98.0107 98.7926C93.6628 98.6532 89.3981 97.5639 85.516 95.6011C85.3712 95.5304 85.2421 95.4312 85.1366 95.3094C85.031 95.1877 84.9512 95.0459 84.9018 94.8925C84.8524 94.7391 84.8344 94.5773 84.8491 94.4168C84.8637 94.2564 84.9106 94.1005 84.9869 93.9586C85.0632 93.8167 85.1675 93.6916 85.2933 93.591C85.4191 93.4903 85.564 93.4161 85.7192 93.3728C85.8744 93.3294 86.0367 93.3179 86.1965 93.3389C86.3563 93.3598 86.5102 93.4128 86.649 93.4947C86.7447 93.4947 96.0639 98.4415 102.942 95.5692C104.569 94.8107 105.999 93.6879 107.123 92.2877C108.246 90.8875 109.032 89.2475 109.42 87.4947C109.497 87.228 109.666 86.9971 109.897 86.8424C110.127 86.6877 110.405 86.6192 110.681 86.6489C110.681 86.6489 115.628 87.0958 118.42 84.1596C120.207 82.2606 120.798 79.3723 120.176 75.4149C120.139 75.1507 120.189 74.8817 120.318 74.6485C120.448 74.4153 120.65 74.2306 120.894 74.1223C120.894 74.1223 125.314 72.1755 126.207 68.617C126.718 66.5904 126 64.3245 124.069 61.8989C123.955 61.7784 123.868 61.6356 123.812 61.4795C123.757 61.3234 123.734 61.1575 123.746 60.9921C123.758 60.8268 123.804 60.6658 123.881 60.5192C123.958 60.3726 124.065 60.2437 124.195 60.1405C124.325 60.0374 124.474 59.9624 124.635 59.9201C124.795 59.8779 124.962 59.8694 125.126 59.8952C125.289 59.921 125.446 59.9805 125.586 60.07C125.725 60.1594 125.844 60.2769 125.936 60.4149C128.362 63.4628 129.223 66.4309 128.521 69.2234C128.034 70.6689 127.266 72.0039 126.261 73.1513C125.256 74.2988 124.034 75.2362 122.665 75.9096C123.176 80.1862 122.33 83.5213 120.144 85.8192C117.79 87.9855 114.675 89.1328 111.479 89.0106C110.928 90.9284 109.964 92.7022 108.655 94.2075C107.345 95.7127 105.722 96.9128 103.899 97.7234C102.027 98.4675 100.025 98.831 98.0107 98.7926Z" fill="#380017"/>
<path id="Vector_18" d="M90.3351 74.649C89.0712 74.6438 87.8123 74.4885 86.5851 74.1862C86.2698 74.1164 85.9951 73.9242 85.8216 73.6519C85.648 73.3795 85.5897 73.0494 85.6596 72.7341C85.7294 72.4188 85.9216 72.1442 86.1939 71.9706C86.4663 71.797 86.7964 71.7387 87.1117 71.8086C90.5266 72.5905 93.2553 72.2075 95.234 70.6596C98.8404 67.8033 98.9361 61.9309 98.9361 61.883C98.9367 61.7013 98.9787 61.522 99.0589 61.3589C99.1391 61.1958 99.2553 61.053 99.3989 60.9416C99.5449 60.8309 99.7141 60.7547 99.8937 60.7188C100.073 60.6829 100.259 60.6881 100.436 60.7341C100.436 60.7341 105.383 61.9628 108.957 59.6011C110.007 58.8286 110.88 57.8412 111.519 56.7049C112.157 55.5685 112.546 54.3091 112.66 53.0107C114.383 41.8405 103.676 36.766 103.564 36.7181C103.416 36.6573 103.281 36.5673 103.168 36.4534C103.055 36.3396 102.966 36.2042 102.907 36.0554C102.847 35.9066 102.818 35.7473 102.822 35.587C102.825 35.4267 102.86 35.2687 102.926 35.1224C102.983 34.9712 103.071 34.8335 103.184 34.7177C103.296 34.6019 103.432 34.5104 103.581 34.4491C103.731 34.3878 103.892 34.3578 104.053 34.3611C104.215 34.3644 104.374 34.4008 104.521 34.4681C104.649 34.4681 117.096 40.3724 115.085 53.3458C114.929 54.9805 114.421 56.5618 113.594 57.9807C112.768 59.3995 111.643 60.6221 110.298 61.5639C107.575 63.1745 104.373 63.7787 101.25 63.2713C100.985 66.8082 99.3743 70.1089 96.75 72.4947C94.9274 73.9373 92.6589 74.6991 90.3351 74.649Z" fill="#380017"/>
</g>
</svg>
