<svg width="174" height="150" viewBox="0 0 174 150" fill="none" xmlns="http://www.w3.org/2000/svg">
<path d="M92.5532 87.2037C92.198 87.2013 91.8559 87.0697 91.5906 86.8335L85.4821 81.0952C85.2221 80.8349 85.0761 80.482 85.0761 80.1141C85.0761 79.7462 85.2221 79.3934 85.4821 79.1331C85.7424 78.8731 86.0953 78.7271 86.4632 78.7271C86.8311 78.7271 87.1839 78.8731 87.4443 79.1331L93.5528 84.8529C93.8127 85.1132 93.9588 85.466 93.9588 85.8339C93.9588 86.2018 93.8127 86.5547 93.5528 86.815C93.4228 86.9464 93.2667 87.049 93.0944 87.1159C92.9222 87.1829 92.7378 87.2128 92.5532 87.2037Z" fill="#380017"/>
<path d="M46.9615 117.709C46.6309 117.713 46.3101 117.597 46.0584 117.382C45.8066 117.168 45.6409 116.87 45.5917 116.543C45.2952 114.354 45.4723 112.128 46.1111 110.014C46.7498 107.899 47.8352 105.947 49.2939 104.289C53.1996 100.235 59.6413 98.7357 68.4709 99.7168C75.0792 100.494 79.8734 99.254 82.6685 96.0146C85.8524 92.3125 85.9264 86.9074 85.5747 83.5014L82.9092 87.074C82.6883 87.371 82.3584 87.5681 81.9922 87.6219C81.6259 87.6757 81.2533 87.5818 80.9563 87.3609C80.6593 87.14 80.4622 86.8101 80.4084 86.4439C80.3546 86.0777 80.4485 85.705 80.6694 85.408L85.2971 79.2255C85.4536 79.0134 85.6673 78.8504 85.9132 78.7553C86.159 78.6602 86.4269 78.6371 86.6854 78.6887C86.9412 78.7419 87.1772 78.8653 87.3668 79.0452C87.5564 79.225 87.6922 79.4541 87.759 79.7068C87.87 80.1695 90.6096 91.1463 84.7602 97.8472C81.3173 101.771 75.7271 103.4 68.1007 102.438C60.1966 101.531 54.5324 102.771 51.256 106.14C50.0862 107.483 49.2128 109.057 48.6929 110.76C48.173 112.464 48.0182 114.257 48.2387 116.025C48.2921 116.39 48.1998 116.762 47.9816 117.059C47.7634 117.357 47.437 117.557 47.0726 117.617L46.9615 117.709Z" fill="#380017"/>
<path d="M86.4632 74.1905C85.4125 74.1905 84.3853 73.879 83.5117 73.2952C82.6381 72.7115 81.9571 71.8818 81.555 70.911C81.1529 69.9403 81.0477 68.8721 81.2527 67.8416C81.4577 66.811 81.9637 65.8644 82.7066 65.1214C83.4496 64.3785 84.3962 63.8725 85.4268 63.6675C86.4573 63.4625 87.5255 63.5677 88.4962 63.9698C89.467 64.3719 90.2967 65.0528 90.8804 65.9265C91.4642 66.8001 91.7757 67.8273 91.7757 68.878C91.7757 70.287 91.216 71.6382 90.2197 72.6345C89.2234 73.6308 87.8722 74.1905 86.4632 74.1905ZM86.4632 66.342C85.9616 66.342 85.4713 66.4908 85.0543 66.7694C84.6373 67.0481 84.3122 67.4441 84.1203 67.9075C83.9283 68.3709 83.8781 68.8808 83.976 69.3727C84.0738 69.8647 84.3153 70.3165 84.67 70.6712C85.0247 71.0258 85.4765 71.2674 85.9685 71.3652C86.4604 71.4631 86.9703 71.4128 87.4337 71.2209C87.897 71.029 88.2931 70.7039 88.5718 70.2869C88.8504 69.8699 88.9992 69.3796 88.9992 68.878C88.9992 68.2054 88.732 67.5604 88.2564 67.0848C87.7808 66.6092 87.1358 66.342 86.4632 66.342Z" fill="#380017"/>
<path d="M46.8504 130.629C45.7081 130.629 44.5915 130.291 43.6418 129.656C42.6921 129.022 41.9518 128.12 41.5147 127.064C41.0776 126.009 40.9632 124.848 41.186 123.727C41.4089 122.607 41.9589 121.578 42.7666 120.77C43.5743 119.963 44.6034 119.413 45.7237 119.19C46.844 118.967 48.0052 119.081 49.0605 119.518C50.1158 119.956 51.0178 120.696 51.6524 121.646C52.287 122.595 52.6257 123.712 52.6257 124.854C52.6257 126.386 52.0172 127.855 50.9342 128.938C49.8511 130.021 48.3821 130.629 46.8504 130.629ZM46.8504 121.855C46.2573 121.855 45.6775 122.031 45.1844 122.361C44.6913 122.69 44.3069 123.159 44.0799 123.707C43.853 124.255 43.7936 124.857 43.9093 125.439C44.025 126.021 44.3106 126.555 44.73 126.975C45.1494 127.394 45.6837 127.68 46.2654 127.795C46.8471 127.911 47.45 127.852 47.998 127.625C48.5459 127.398 49.0142 127.013 49.3437 126.52C49.6732 126.027 49.8491 125.447 49.8491 124.854C49.8443 124.06 49.5268 123.3 48.9654 122.739C48.4041 122.178 47.6442 121.86 46.8504 121.855Z" fill="#380017"/>
<path d="M62.4734 85.7042C62.291 85.7051 62.1102 85.6695 61.9418 85.5996C61.7733 85.5297 61.6205 85.4268 61.4923 85.297C61.2323 85.0367 61.0863 84.6839 61.0863 84.316C61.0863 83.9481 61.2323 83.5952 61.4923 83.3349L68.7115 76.1343C68.8386 75.9979 68.9918 75.8884 69.1621 75.8126C69.3324 75.7367 69.5163 75.6959 69.7027 75.6926C69.8891 75.6893 70.0742 75.7236 70.2471 75.7934C70.42 75.8633 70.577 75.9672 70.7088 76.099C70.8407 76.2308 70.9446 76.3879 71.0144 76.5607C71.0842 76.7336 71.1185 76.9188 71.1152 77.1052C71.1119 77.2916 71.0712 77.4754 70.9953 77.6457C70.9194 77.816 70.81 77.9693 70.6736 78.0964L63.473 85.297C63.342 85.4282 63.186 85.5318 63.0144 85.6017C62.8427 85.6717 62.6587 85.7065 62.4734 85.7042Z" fill="#380017"/>
<path d="M69.6925 85.7044C69.51 85.7063 69.3289 85.6712 69.1603 85.6012C68.9917 85.5312 68.839 85.4278 68.7115 85.2971L61.4923 78.0965C61.2323 77.8362 61.0863 77.4833 61.0863 77.1154C61.0863 76.7475 61.2323 76.3947 61.4923 76.1344C61.7581 75.8776 62.1131 75.7341 62.4826 75.7341C62.8521 75.7341 63.2072 75.8776 63.473 76.1344L70.6736 83.298C70.9336 83.5583 71.0796 83.9111 71.0796 84.279C71.0796 84.6469 70.9336 84.9998 70.6736 85.2601C70.5486 85.3966 70.3972 85.5063 70.2286 85.5827C70.0599 85.659 69.8776 85.7004 69.6925 85.7044Z" fill="#380017"/>
<path d="M26.1741 112.36C25.9917 112.36 25.8109 112.325 25.6424 112.255C25.474 112.185 25.3212 112.082 25.193 111.952C24.933 111.692 24.787 111.339 24.787 110.971C24.787 110.603 24.933 110.251 25.193 109.99L32.4121 102.79C32.5398 102.659 32.6923 102.554 32.8608 102.483C33.0293 102.412 33.2103 102.376 33.3932 102.376C33.5761 102.376 33.7571 102.412 33.9256 102.483C34.0941 102.554 34.2467 102.659 34.3743 102.79C34.6343 103.05 34.7803 103.403 34.7803 103.771C34.7803 104.139 34.6343 104.491 34.3743 104.752L27.1551 111.952C27.0289 112.085 26.8765 112.189 26.7076 112.259C26.5386 112.33 26.3569 112.364 26.1741 112.36Z" fill="#380017"/>
<path d="M33.3192 112.36C33.1363 112.364 32.9546 112.33 32.7857 112.259C32.6167 112.189 32.4643 112.085 32.3381 111.952L25.119 104.752C24.859 104.491 24.713 104.139 24.713 103.771C24.713 103.403 24.859 103.05 25.119 102.79C25.2466 102.659 25.3991 102.554 25.5676 102.483C25.7361 102.412 25.9172 102.376 26.1 102.376C26.2829 102.376 26.4639 102.412 26.6324 102.483C26.8009 102.554 26.9535 102.659 27.0811 102.79L34.3002 109.99C34.5602 110.251 34.7063 110.603 34.7063 110.971C34.7063 111.339 34.5602 111.692 34.3002 111.952C34.1721 112.082 34.0193 112.185 33.8508 112.255C33.6823 112.325 33.5016 112.36 33.3192 112.36Z" fill="#380017"/>
<path d="M71.1734 119.412C70.8053 119.412 70.4524 119.265 70.1923 119.005C70.0614 118.877 69.9573 118.725 69.8862 118.556C69.8151 118.388 69.7785 118.207 69.7785 118.024C69.7785 117.841 69.8151 117.66 69.8862 117.492C69.9573 117.323 70.0614 117.17 70.1923 117.043L79.6883 107.528C79.9515 107.283 80.2996 107.15 80.6592 107.156C81.0189 107.162 81.3621 107.308 81.6164 107.562C81.8708 107.817 82.0165 108.16 82.0228 108.52C82.0292 108.879 81.8957 109.227 81.6504 109.49L72.1915 119.005C71.9178 119.268 71.5527 119.414 71.1734 119.412Z" fill="#380017"/>
<path d="M80.6694 119.412C80.3029 119.404 79.9527 119.259 79.6883 119.005L70.1923 109.49C70.0614 109.363 69.9573 109.21 69.8862 109.042C69.8151 108.873 69.7785 108.692 69.7785 108.509C69.7785 108.327 69.8151 108.145 69.8862 107.977C69.9573 107.809 70.0614 107.656 70.1923 107.528C70.4526 107.268 70.8055 107.122 71.1734 107.122C71.5413 107.122 71.8942 107.268 72.1545 107.528L81.6504 117.043C81.9104 117.303 82.0564 117.656 82.0564 118.024C82.0564 118.392 81.9104 118.745 81.6504 119.005C81.386 119.259 81.0359 119.404 80.6694 119.412Z" fill="#380017"/>
<path d="M139.792 136.757H16.6596C14.6321 136.757 12.6875 135.951 11.2538 134.518C9.82015 133.084 9.01471 131.139 9.01471 129.112V44.8884C9.01471 43.8853 9.21258 42.8921 9.597 41.9656C9.98142 41.0391 10.5448 40.1976 11.255 39.4891C11.9651 38.7807 12.808 38.2194 13.7354 37.8372C14.6628 37.455 15.6565 37.2596 16.6596 37.262H139.792C141.815 37.262 143.755 38.0655 145.185 39.4957C146.615 40.9259 147.419 42.8657 147.419 44.8884V66.1756C147.419 66.5438 147.272 66.8969 147.012 67.1573C146.752 67.4176 146.399 67.5639 146.03 67.5639C145.662 67.5639 145.309 67.4176 145.049 67.1573C144.788 66.8969 144.642 66.5438 144.642 66.1756V44.8884C144.642 44.2515 144.517 43.6208 144.273 43.0324C144.029 42.444 143.672 41.9094 143.222 41.4591C142.771 41.0087 142.237 40.6515 141.648 40.4078C141.06 40.164 140.429 40.0386 139.792 40.0386H16.6596C16.0212 40.0361 15.3885 40.1598 14.798 40.4024C14.2074 40.6451 13.6706 41.0019 13.2183 41.4525C12.766 41.9031 12.4071 42.4385 12.1622 43.0282C11.9174 43.6178 11.7913 44.2499 11.7913 44.8884V129.112C11.7913 130.403 12.3042 131.641 13.2172 132.554C14.1302 133.467 15.3685 133.98 16.6596 133.98H139.792C140.161 133.98 140.514 134.126 140.774 134.387C141.034 134.647 141.181 135 141.181 135.368C141.181 135.737 141.034 136.09 140.774 136.35C140.514 136.61 140.161 136.757 139.792 136.757Z" fill="#380017"/>
<path d="M146.03 58.1418H10.477C10.1088 58.1418 9.75573 57.9956 9.49537 57.7352C9.23501 57.4749 9.08875 57.1217 9.08875 56.7535C9.08875 56.3853 9.23501 56.0322 9.49537 55.7719C9.75573 55.5115 10.1088 55.3652 10.477 55.3652H146.03C146.399 55.3652 146.752 55.5115 147.012 55.7719C147.272 56.0322 147.419 56.3853 147.419 56.7535C147.419 57.1217 147.272 57.4749 147.012 57.7352C146.752 57.9956 146.399 58.1418 146.03 58.1418Z" fill="#380017"/>
<path d="M170.298 136.757H3.70214C3.33394 136.757 2.98082 136.61 2.72047 136.35C2.46011 136.09 2.31384 135.736 2.31384 135.368C2.31384 135 2.46011 134.647 2.72047 134.387C2.98082 134.126 3.33394 133.98 3.70214 133.98H170.298C170.666 133.98 171.019 134.126 171.28 134.387C171.54 134.647 171.686 135 171.686 135.368C171.686 135.736 171.54 136.09 171.28 136.35C171.019 136.61 170.666 136.757 170.298 136.757Z" fill="#380017"/>
<path d="M141.921 87.6294C139.578 87.6294 137.287 86.9346 135.339 85.6329C133.391 84.3311 131.873 82.4809 130.976 80.3162C130.079 78.1515 129.845 75.7695 130.302 73.4714C130.759 71.1733 131.887 69.0624 133.544 67.4056C135.201 65.7488 137.312 64.6205 139.61 64.1634C141.908 63.7063 144.29 63.9409 146.455 64.8376C148.619 65.7342 150.47 67.2527 151.771 69.2009C153.073 71.1491 153.768 73.4395 153.768 75.7826C153.763 78.9231 152.513 81.9335 150.293 84.1542C148.072 86.3748 145.061 87.6245 141.921 87.6294ZM141.921 66.7124C140.127 66.7124 138.373 67.2443 136.882 68.241C135.39 69.2376 134.228 70.6542 133.541 72.3116C132.855 73.9689 132.675 75.7927 133.025 77.5521C133.375 79.3116 134.239 80.9277 135.507 82.1962C136.776 83.4647 138.392 84.3286 140.152 84.6785C141.911 85.0285 143.735 84.8489 145.392 84.1624C147.049 83.4759 148.466 82.3133 149.463 80.8217C150.459 79.3301 150.991 77.5765 150.991 75.7826C150.999 74.5859 150.769 73.3996 150.317 72.2917C149.865 71.1838 149.198 70.1761 148.355 69.3265C147.513 68.4769 146.511 67.8021 145.406 67.3408C144.302 66.8795 143.118 66.6408 141.921 66.6383V66.7124Z" fill="#380017"/>
<path d="M126.372 127.464C126.08 127.47 125.793 127.379 125.558 127.205C125.282 126.992 125.098 126.682 125.043 126.338C124.988 125.994 125.066 125.642 125.261 125.354C126.971 122.938 128.364 120.313 129.408 117.543C129.543 117.199 129.809 116.923 130.147 116.775C130.486 116.628 130.869 116.621 131.213 116.756C131.556 116.891 131.832 117.157 131.98 117.495C132.127 117.834 132.134 118.217 131.999 118.561C130.865 121.554 129.353 124.39 127.501 127.001C127.36 127.158 127.185 127.282 126.989 127.362C126.794 127.442 126.583 127.477 126.372 127.464Z" fill="#380017"/>
<path d="M132.184 115.081C132.05 115.109 131.912 115.109 131.777 115.081C131.602 115.03 131.44 114.945 131.298 114.83C131.157 114.716 131.04 114.574 130.953 114.414C130.867 114.254 130.814 114.078 130.796 113.897C130.779 113.716 130.798 113.533 130.852 113.359C132.489 107.605 133.543 101.702 133.998 95.7371C134.03 95.3689 134.207 95.0284 134.49 94.7906C134.773 94.5528 135.139 94.4372 135.507 94.4691C135.875 94.501 136.216 94.6779 136.454 94.9608C136.691 95.2437 136.807 95.6095 136.775 95.9777C136.306 102.133 135.208 108.224 133.499 114.155C133.405 114.428 133.228 114.665 132.992 114.831C132.756 114.997 132.473 115.085 132.184 115.081Z" fill="#380017"/>
<path d="M135.683 92.8864C135.501 92.8793 135.323 92.8362 135.158 92.7595C134.994 92.6828 134.846 92.5741 134.724 92.4398C134.601 92.3054 134.507 92.148 134.446 91.9768C134.385 91.8056 134.359 91.624 134.369 91.4426C134.572 87.1666 134.498 84.316 134.498 84.2975C134.491 84.1151 134.519 83.9331 134.582 83.7618C134.645 83.5905 134.742 83.4333 134.865 83.2992C134.989 83.1651 135.138 83.0568 135.304 82.9803C135.47 82.9038 135.649 82.8608 135.831 82.8537C136.2 82.8484 136.556 82.9862 136.825 83.2382C137.095 83.4902 137.256 83.8367 137.275 84.2049C137.275 84.316 137.275 87.1852 137.127 91.6092C137.098 91.9676 136.932 92.301 136.663 92.5393C136.393 92.7775 136.042 92.9019 135.683 92.8864Z" fill="#380017"/>
<path d="M157.47 127.464C157.252 127.466 157.036 127.416 156.84 127.32C156.644 127.223 156.473 127.083 156.341 126.909C154.473 124.298 152.943 121.462 151.787 118.468C151.652 118.124 151.659 117.741 151.807 117.403C151.954 117.064 152.23 116.798 152.574 116.663C152.918 116.528 153.301 116.535 153.639 116.683C153.978 116.83 154.244 117.106 154.379 117.45C155.427 120.218 156.82 122.842 158.525 125.261C158.72 125.55 158.798 125.902 158.743 126.246C158.688 126.589 158.504 126.899 158.229 127.113C158.02 127.308 157.754 127.432 157.47 127.464Z" fill="#380017"/>
<path d="M151.658 115.081C151.36 115.08 151.07 114.982 150.833 114.801C150.596 114.621 150.424 114.368 150.343 114.081C148.634 108.15 147.536 102.059 147.067 95.9037C147.035 95.5355 147.151 95.1697 147.389 94.8868C147.626 94.6039 147.967 94.427 148.335 94.3951C148.517 94.3793 148.701 94.3996 148.875 94.4547C149.05 94.5099 149.212 94.5989 149.352 94.7166C149.635 94.9544 149.812 95.2949 149.844 95.6631C150.29 101.629 151.345 107.534 152.99 113.285C153.044 113.459 153.063 113.642 153.046 113.823C153.028 114.004 152.975 114.18 152.889 114.34C152.803 114.5 152.685 114.642 152.544 114.756C152.402 114.871 152.24 114.956 152.065 115.007C151.936 115.06 151.797 115.085 151.658 115.081Z" fill="#380017"/>
<path d="M148.085 92.8864C147.731 92.8825 147.391 92.745 147.133 92.5013C146.876 92.2577 146.72 91.9258 146.697 91.5722C146.493 87.1852 146.567 84.316 146.567 84.1679C146.591 83.8013 146.753 83.4574 147.021 83.2063C147.29 82.9552 147.644 82.8159 148.011 82.8167C148.193 82.8238 148.373 82.8668 148.538 82.9433C148.704 83.0197 148.853 83.1281 148.977 83.2622C149.101 83.3963 149.197 83.5535 149.26 83.7248C149.323 83.8961 149.351 84.0781 149.344 84.2605C149.344 84.2605 149.344 87.1296 149.473 91.4056C149.483 91.587 149.457 91.7686 149.396 91.9398C149.335 92.111 149.241 92.2684 149.119 92.4027C148.996 92.5371 148.848 92.6458 148.684 92.7225C148.519 92.7992 148.341 92.8423 148.159 92.8494L148.085 92.8864Z" fill="#380017"/>
<path d="M164.004 136.757H119.838C119.471 136.752 119.121 136.604 118.862 136.345C118.602 136.085 118.454 135.735 118.45 135.368V129.815C118.454 128.476 118.988 127.194 119.935 126.247C120.882 125.301 122.164 124.767 123.503 124.762H160.339C161.678 124.767 162.96 125.301 163.907 126.247C164.854 127.194 165.388 128.476 165.393 129.815V135.368C165.388 135.735 165.24 136.085 164.981 136.345C164.721 136.604 164.371 136.752 164.004 136.757ZM121.226 133.98H162.616V129.741C162.611 129.139 162.37 128.562 161.944 128.136C161.518 127.711 160.942 127.469 160.339 127.464H123.503C122.901 127.469 122.324 127.711 121.898 128.136C121.472 128.562 121.231 129.139 121.226 129.741V133.98Z" fill="#380017"/>
<path d="M149.788 97.1809H134.054C133.116 97.1809 132.217 96.8084 131.554 96.1454C130.891 95.4824 130.519 94.5831 130.519 93.6454C130.519 92.7077 130.891 91.8084 131.554 91.1454C132.217 90.4824 133.116 90.1099 134.054 90.1099H149.788C150.726 90.1099 151.625 90.4824 152.288 91.1454C152.951 91.8084 153.324 92.7077 153.324 93.6454C153.324 94.5831 152.951 95.4824 152.288 96.1454C151.625 96.8084 150.726 97.1809 149.788 97.1809ZM134.054 92.8865C133.853 92.8865 133.66 92.9664 133.517 93.1087C133.375 93.2511 133.295 93.4441 133.295 93.6454C133.295 93.8467 133.375 94.0397 133.517 94.182C133.66 94.3244 133.853 94.4043 134.054 94.4043H149.788C149.989 94.4043 150.182 94.3244 150.325 94.182C150.467 94.0397 150.547 93.8467 150.547 93.6454C150.547 93.4441 150.467 93.2511 150.325 93.1087C150.182 92.9664 149.989 92.8865 149.788 92.8865H134.054Z" fill="#380017"/>
<path d="M153.805 119.357H130.037C129.146 119.292 128.313 118.892 127.704 118.238C127.096 117.584 126.757 116.724 126.757 115.83C126.757 114.937 127.096 114.077 127.704 113.422C128.313 112.768 129.146 112.369 130.037 112.304H153.805C154.696 112.369 155.53 112.768 156.138 113.422C156.747 114.077 157.085 114.937 157.085 115.83C157.085 116.724 156.747 117.584 156.138 118.238C155.53 118.892 154.696 119.292 153.805 119.357ZM130.037 115.081C129.841 115.081 129.652 115.159 129.514 115.297C129.375 115.436 129.297 115.625 129.297 115.821C129.297 116.019 129.374 116.209 129.512 116.351C129.651 116.493 129.839 116.575 130.037 116.58H153.805C154.003 116.575 154.191 116.493 154.33 116.351C154.468 116.209 154.545 116.019 154.545 115.821C154.545 115.625 154.467 115.436 154.328 115.297C154.19 115.159 154.001 115.081 153.805 115.081H130.037Z" fill="#380017"/>
<path d="M29.9132 48.9236H19.4177C19.0495 48.9236 18.6963 48.7773 18.436 48.5169C18.1756 48.2566 18.0294 47.9035 18.0294 47.5353C18.0294 47.1671 18.1756 46.814 18.436 46.5536C18.6963 46.2932 19.0495 46.147 19.4177 46.147H29.9132C30.2814 46.147 30.6345 46.2932 30.8949 46.5536C31.1552 46.814 31.3015 47.1671 31.3015 47.5353C31.3015 47.9035 31.1552 48.2566 30.8949 48.5169C30.6345 48.7773 30.2814 48.9236 29.9132 48.9236Z" fill="#380017"/>
<path d="M116.765 49.2568H113.063C112.695 49.2568 112.342 49.1106 112.081 48.8502C111.821 48.5898 111.675 48.2367 111.675 47.8685C111.675 47.5003 111.821 47.1472 112.081 46.8868C112.342 46.6265 112.695 46.4802 113.063 46.4802H116.765C117.133 46.4802 117.486 46.6265 117.747 46.8868C118.007 47.1472 118.153 47.5003 118.153 47.8685C118.153 48.2367 118.007 48.5898 117.747 48.8502C117.486 49.1106 117.133 49.2568 116.765 49.2568Z" fill="#380017"/>
<path d="M125.872 49.2568H122.17C121.802 49.2568 121.449 49.1106 121.189 48.8502C120.928 48.5898 120.782 48.2367 120.782 47.8685C120.782 47.5003 120.928 47.1472 121.189 46.8868C121.449 46.6265 121.802 46.4802 122.17 46.4802H125.872C126.241 46.4802 126.594 46.6265 126.854 46.8868C127.114 47.1472 127.261 47.5003 127.261 47.8685C127.261 48.2367 127.114 48.5898 126.854 48.8502C126.594 49.1106 126.241 49.2568 125.872 49.2568Z" fill="#380017"/>
<path d="M135.128 49.2568H131.426C131.057 49.2568 130.704 49.1106 130.444 48.8502C130.184 48.5898 130.037 48.2367 130.037 47.8685C130.037 47.5003 130.184 47.1472 130.444 46.8868C130.704 46.6265 131.057 46.4802 131.426 46.4802H135.128C135.496 46.4802 135.849 46.6265 136.109 46.8868C136.37 47.1472 136.516 47.5003 136.516 47.8685C136.516 48.2367 136.37 48.5898 136.109 48.8502C135.849 49.1106 135.496 49.2568 135.128 49.2568Z" fill="#380017"/>
<path d="M103.771 102.419C102.715 102.419 101.684 102.106 100.807 101.52C99.9298 100.933 99.2466 100.099 98.8436 99.1242C98.4407 98.149 98.3362 97.0762 98.5434 96.0415C98.7506 95.0069 99.2602 94.057 100.008 93.3122C100.755 92.5674 101.707 92.0611 102.742 91.8575C103.777 91.6539 104.85 91.7621 105.824 92.1685C106.797 92.5748 107.629 93.261 108.212 94.1401C108.796 95.0192 109.105 96.0517 109.102 97.1069C109.097 98.5176 108.533 99.8688 107.534 100.865C106.534 101.86 105.181 102.419 103.771 102.419ZM103.771 94.5524C103.265 94.5524 102.772 94.7023 102.351 94.9829C101.931 95.2636 101.604 95.6626 101.411 96.1294C101.217 96.5961 101.167 97.1097 101.265 97.6053C101.364 98.1008 101.607 98.5559 101.964 98.9132C102.322 99.2704 102.777 99.5137 103.272 99.6123C103.768 99.7109 104.281 99.6603 104.748 99.4669C105.215 99.2736 105.614 98.9462 105.895 98.5261C106.175 98.106 106.325 97.6121 106.325 97.1069C106.328 96.7708 106.263 96.4375 106.136 96.1264C106.008 95.8154 105.82 95.5328 105.582 95.2951C105.345 95.0574 105.062 94.8694 104.751 94.7419C104.44 94.6144 104.107 94.55 103.771 94.5524Z" fill="#380017"/>
<path d="M39.2611 85.7043C38.1628 85.7043 37.0891 85.3786 36.1759 84.7684C35.2627 84.1582 34.5509 83.2909 34.1306 82.2762C33.7103 81.2615 33.6003 80.1449 33.8146 79.0677C34.0289 77.9905 34.5578 77.001 35.3344 76.2244C36.111 75.4478 37.1005 74.9189 38.1777 74.7046C39.2549 74.4903 40.3715 74.6003 41.3862 75.0206C42.4009 75.4409 43.2682 76.1527 43.8784 77.0659C44.4886 77.9791 44.8143 79.0528 44.8143 80.1511C44.8143 81.6239 44.2292 83.0364 43.1878 84.0778C42.1464 85.1192 40.7339 85.7043 39.2611 85.7043ZM39.2611 77.2449C38.6965 77.2413 38.1436 77.4053 37.6723 77.7163C37.2011 78.0273 36.8329 78.4712 36.6143 78.9918C36.3957 79.5123 36.3366 80.0861 36.4445 80.6403C36.5524 81.1944 36.8224 81.7041 37.2203 82.1046C37.6182 82.5052 38.1261 82.7785 38.6796 82.89C39.2331 83.0015 39.8072 82.9461 40.3291 82.7309C40.8511 82.5157 41.2974 82.1504 41.6115 81.6812C41.9255 81.212 42.0932 80.6602 42.0932 80.0956C42.0932 79.3427 41.7954 78.6204 41.2648 78.0864C40.7342 77.5523 40.0139 77.2498 39.2611 77.2449Z" fill="#380017"/>
</svg>
