<svg width="150" height="150" viewBox="0 0 150 150" fill="none" xmlns="http://www.w3.org/2000/svg">
<g id="revenue_growth_earnings_profit_increase_boost_income_profit_enhancement_icon_262925 1">
<g id="icon">
<path id="Vector" d="M36.3281 104.422C30.1475 104.422 24.1056 102.589 18.9666 99.1554C13.8275 95.7216 9.82214 90.8411 7.4569 85.1309C5.09167 79.4207 4.47281 73.1373 5.6786 67.0754C6.88439 61.0135 9.86066 55.4453 14.2311 51.0749C18.6014 46.7045 24.1697 43.7283 30.2316 42.5225C36.2935 41.3167 42.5768 41.9355 48.287 44.3008C53.9972 46.666 58.8778 50.6714 62.3116 55.8104C65.7453 60.9495 67.5781 66.9913 67.5781 73.172C67.5781 77.2758 66.7698 81.3394 65.1994 85.1309C63.6289 88.9223 61.327 92.3673 58.4252 95.2691C55.5234 98.1709 52.0784 100.473 48.287 102.043C44.4956 103.614 40.4319 104.422 36.3281 104.422ZM36.3281 44.1564C30.6 44.1595 25.0013 45.8607 20.2398 49.045C15.4784 52.2293 11.7678 56.7538 9.57714 62.0465C7.3865 67.3392 6.81414 73.1626 7.93241 78.7805C9.05067 84.3984 11.8094 89.5587 15.8598 93.6091C19.9102 97.6595 25.0705 100.418 30.6884 101.536C36.3063 102.655 42.1297 102.082 47.4224 99.8918C52.7151 97.7011 57.2396 93.9905 60.4239 89.2291C63.6082 84.4676 65.3094 78.8689 65.3125 73.1408C65.3084 65.4549 62.2533 58.085 56.8186 52.6503C51.3839 47.2156 44.014 44.1605 36.3281 44.1564Z" fill="#380017"/>
<path id="Vector_2" d="M64.2969 136.375H8.40625C7.00684 136.371 5.66593 135.813 4.6764 134.824C3.68686 133.834 3.12912 132.493 3.125 131.094V123.281C3.12914 121.883 3.68738 120.544 4.67736 119.557C5.66733 118.57 7.00828 118.016 8.40625 118.016H64.2969C65.6934 118.016 67.0327 118.571 68.0202 119.558C69.0077 120.546 69.5625 121.885 69.5625 123.281V131.094C69.5625 132.492 69.0082 133.833 68.0212 134.823C67.0341 135.813 65.6948 136.371 64.2969 136.375ZM8.40625 120.406C7.62988 120.406 6.88507 120.714 6.33463 121.261C5.78419 121.809 5.47288 122.552 5.46875 123.328V131.141C5.46875 131.92 5.77824 132.667 6.32912 133.218C6.88001 133.769 7.62718 134.078 8.40625 134.078H64.2969C65.0732 134.074 65.8164 133.763 66.3639 133.212C66.9114 132.662 67.2188 131.917 67.2188 131.141V123.328C67.2188 122.945 67.1432 122.565 66.9963 122.21C66.8495 121.856 66.6343 121.533 66.363 121.262C66.0916 120.991 65.7695 120.776 65.415 120.629C65.0605 120.482 64.6806 120.406 64.2969 120.406H8.40625Z" fill="#380017"/>
<path id="Vector_3" d="M64.2969 120.406H8.40625C7.00684 120.402 5.66593 119.845 4.6764 118.855C3.68686 117.865 3.12912 116.525 3.125 115.125V107.313C3.12912 105.913 3.68686 104.572 4.6764 103.583C5.66593 102.593 7.00684 102.035 8.40625 102.031H64.2969C65.6948 102.036 67.0341 102.594 68.0212 103.584C69.0082 104.574 69.5625 105.915 69.5625 107.313V115.125C69.5625 116.523 69.0082 117.864 68.0212 118.854C67.0341 119.844 65.6948 120.402 64.2969 120.406ZM8.40625 104.422C7.62718 104.422 6.88001 104.731 6.32912 105.282C5.77824 105.833 5.46875 106.58 5.46875 107.359V115.172C5.46875 115.951 5.77824 116.698 6.32912 117.249C6.88001 117.8 7.62718 118.109 8.40625 118.109H64.2969C65.0732 118.105 65.8164 117.794 66.3639 117.244C66.9114 116.693 67.2188 115.948 67.2188 115.172V107.359C67.2188 106.583 66.9114 105.838 66.3639 105.288C65.8164 104.737 65.0732 104.426 64.2969 104.422H8.40625Z" fill="#380017"/>
<path id="Vector_4" d="M17.9219 116.156C17.6123 116.152 17.3166 116.028 17.0977 115.809C16.8788 115.59 16.754 115.294 16.75 114.984V107.5C16.75 107.189 16.8735 106.891 17.0932 106.671C17.313 106.452 17.6111 106.328 17.9219 106.328C18.2327 106.328 18.5307 106.452 18.7505 106.671C18.9703 106.891 19.0938 107.189 19.0938 107.5V114.984C19.0938 115.295 18.9703 115.593 18.7505 115.813C18.5307 116.033 18.2327 116.156 17.9219 116.156Z" fill="#380017"/>
<path id="Vector_5" d="M36.3438 116.156C36.0342 116.152 35.7385 116.028 35.5196 115.809C35.3007 115.59 35.1759 115.294 35.1719 114.984V107.5C35.1719 107.189 35.2953 106.891 35.5151 106.671C35.7349 106.452 36.0329 106.328 36.3438 106.328C36.6546 106.328 36.9526 106.452 37.1724 106.671C37.3922 106.891 37.5156 107.189 37.5156 107.5V114.984C37.5156 115.295 37.3922 115.593 37.1724 115.813C36.9526 116.033 36.6546 116.156 36.3438 116.156Z" fill="#380017"/>
<path id="Vector_6" d="M54.7656 116.156C54.4548 116.156 54.1568 116.033 53.937 115.813C53.7172 115.593 53.5938 115.295 53.5938 114.984V107.5C53.5938 107.189 53.7172 106.891 53.937 106.671C54.1568 106.452 54.4548 106.328 54.7656 106.328C55.0764 106.328 55.3745 106.452 55.5943 106.671C55.814 106.891 55.9375 107.189 55.9375 107.5V114.984C55.9335 115.294 55.8087 115.59 55.5898 115.809C55.3709 116.028 55.0752 116.152 54.7656 116.156Z" fill="#380017"/>
<path id="Vector_7" d="M17.9219 131.891C17.6111 131.891 17.313 131.767 17.0932 131.548C16.8735 131.328 16.75 131.03 16.75 130.719V123.656C16.75 123.346 16.8735 123.048 17.0932 122.828C17.313 122.608 17.6111 122.484 17.9219 122.484C18.2327 122.484 18.5307 122.608 18.7505 122.828C18.9703 123.048 19.0937 123.346 19.0937 123.656V130.672C19.1023 130.83 19.0783 130.989 19.023 131.137C18.9678 131.286 18.8826 131.422 18.7727 131.536C18.6628 131.65 18.5305 131.741 18.3841 131.802C18.2378 131.863 18.0804 131.893 17.9219 131.891Z" fill="#380017"/>
<path id="Vector_8" d="M36.3437 131.891C36.0329 131.891 35.7349 131.767 35.5151 131.548C35.2953 131.328 35.1719 131.03 35.1719 130.719V123.656C35.1719 123.346 35.2953 123.048 35.5151 122.828C35.7349 122.608 36.0329 122.484 36.3437 122.484C36.6546 122.484 36.9526 122.608 37.1724 122.828C37.3922 123.048 37.5156 123.346 37.5156 123.656V130.672C37.5242 130.83 37.5001 130.989 37.4449 131.137C37.3897 131.286 37.3044 131.422 37.1945 131.536C37.0846 131.65 36.9524 131.741 36.806 131.802C36.6597 131.863 36.5023 131.893 36.3437 131.891Z" fill="#380017"/>
<path id="Vector_9" d="M54.7656 131.891C54.6111 131.893 54.4578 131.864 54.3147 131.806C54.1715 131.748 54.0415 131.661 53.9323 131.552C53.823 131.443 53.7368 131.313 53.6787 131.17C53.6205 131.027 53.5916 130.873 53.5937 130.719V123.656C53.5937 123.346 53.7172 123.048 53.937 122.828C54.1567 122.608 54.4548 122.484 54.7656 122.484C55.0764 122.484 55.3745 122.608 55.5943 122.828C55.814 123.048 55.9375 123.346 55.9375 123.656V130.672C55.9438 130.83 55.9182 130.987 55.8621 131.135C55.806 131.282 55.7207 131.417 55.6113 131.531C55.5018 131.645 55.3705 131.735 55.2252 131.797C55.0798 131.859 54.9235 131.891 54.7656 131.891Z" fill="#380017"/>
<path id="Vector_10" d="M112.859 120.406C107.157 120.406 101.583 118.715 96.8417 115.547C92.1006 112.379 88.4057 107.875 86.2242 102.607C84.0427 97.3381 83.4727 91.541 84.5863 85.9484C85.6999 80.3559 88.4471 75.2192 92.4804 71.1882C96.5136 67.1571 101.652 64.4127 107.245 63.3022C112.838 62.1916 118.635 62.7647 123.902 64.949C129.17 67.1334 133.671 70.8308 136.837 75.5736C140.002 80.3164 141.691 85.8916 141.688 91.5939C141.683 99.2369 138.644 106.565 133.238 111.968C127.833 117.371 120.502 120.406 112.859 120.406ZM112.859 65.1095C107.625 65.1249 102.512 66.6913 98.1668 69.6109C93.8218 72.5304 90.4394 76.672 88.4468 81.5128C86.4542 86.3535 85.9409 91.6761 86.9716 96.8085C88.0023 101.941 90.5308 106.653 94.2378 110.349C97.9448 114.045 102.664 116.559 107.799 117.575C112.935 118.591 118.256 118.062 123.091 116.055C127.925 114.048 132.057 110.653 134.964 106.3C137.871 101.946 139.422 96.8287 139.422 91.5939C139.401 84.5626 136.594 77.8264 131.614 72.8618C126.635 67.8973 119.891 65.1095 112.859 65.1095Z" fill="#380017"/>
<path id="Vector_11" d="M141.078 136.375H84.6563C83.3287 136.371 82.057 135.841 81.1198 134.901C80.1825 133.96 79.6562 132.687 79.6563 131.36V123.063C79.6563 121.737 80.183 120.465 81.1207 119.527C82.0584 118.589 83.3302 118.063 84.6563 118.063H141.078C142.406 118.063 143.679 118.589 144.619 119.526C145.559 120.463 146.09 121.735 146.094 123.063V131.36C146.094 132.69 145.565 133.965 144.625 134.906C143.684 135.847 142.408 136.375 141.078 136.375ZM84.6563 120.406C83.9518 120.406 83.2761 120.686 82.778 121.184C82.2799 121.683 82 122.358 82 123.063V131.36C82 132.065 82.2793 132.743 82.777 133.243C83.2747 133.744 83.9503 134.027 84.6563 134.031H141.078C141.785 134.027 142.463 133.744 142.963 133.244C143.463 132.744 143.746 132.067 143.75 131.36V123.063C143.746 122.357 143.463 121.681 142.962 121.183C142.461 120.686 141.784 120.406 141.078 120.406H84.6563Z" fill="#380017"/>
<path id="Vector_12" d="M94.4531 132.234C94.1423 132.234 93.8443 132.111 93.6245 131.891C93.4047 131.672 93.2812 131.373 93.2812 131.063V123.359C93.2812 123.049 93.4047 122.751 93.6245 122.531C93.8443 122.311 94.1423 122.188 94.4531 122.188C94.7639 122.188 95.062 122.311 95.2818 122.531C95.5015 122.751 95.625 123.049 95.625 123.359V131.063C95.6271 131.217 95.5982 131.37 95.5401 131.514C95.4819 131.657 95.3957 131.787 95.2864 131.896C95.1772 132.005 95.0472 132.091 94.9041 132.15C94.7609 132.208 94.6076 132.237 94.4531 132.234Z" fill="#380017"/>
<path id="Vector_13" d="M112.875 132.234C112.721 132.237 112.567 132.208 112.424 132.15C112.281 132.091 112.151 132.005 112.042 131.896C111.932 131.787 111.846 131.657 111.788 131.514C111.73 131.37 111.701 131.217 111.703 131.063V123.359C111.703 123.049 111.827 122.751 112.046 122.531C112.266 122.311 112.564 122.188 112.875 122.188C113.186 122.188 113.484 122.311 113.704 122.531C113.923 122.751 114.047 123.049 114.047 123.359V131.063C114.047 131.373 113.923 131.672 113.704 131.891C113.484 132.111 113.186 132.234 112.875 132.234Z" fill="#380017"/>
<path id="Vector_14" d="M131.297 132.234C131.142 132.237 130.989 132.208 130.846 132.15C130.703 132.091 130.573 132.005 130.464 131.896C130.354 131.787 130.268 131.657 130.21 131.514C130.152 131.37 130.123 131.217 130.125 131.063V123.359C130.125 123.049 130.248 122.751 130.468 122.531C130.688 122.311 130.986 122.188 131.297 122.188C131.608 122.188 131.906 122.311 132.126 122.531C132.345 122.751 132.469 123.049 132.469 123.359V131.063C132.469 131.373 132.345 131.672 132.126 131.891C131.906 132.111 131.608 132.234 131.297 132.234Z" fill="#380017"/>
<path id="Vector_15" d="M103.453 104.406C103.18 104.404 102.916 104.311 102.703 104.141C102.464 103.945 102.312 103.663 102.28 103.356C102.247 103.049 102.338 102.741 102.531 102.5L121.391 79.2032C121.583 78.9861 121.85 78.8482 122.139 78.8165C122.427 78.7847 122.718 78.8613 122.953 79.0314C123.075 79.1257 123.177 79.2437 123.252 79.3784C123.327 79.5131 123.374 79.6616 123.39 79.8149C123.406 79.9683 123.391 80.1233 123.345 80.2706C123.3 80.4179 123.225 80.5545 123.125 80.672L104.297 103.969C104.193 104.095 104.065 104.199 103.92 104.274C103.775 104.35 103.616 104.395 103.453 104.406Z" fill="#380017"/>
<path id="Vector_16" d="M104.844 87.5626C103.65 87.5595 102.485 87.2034 101.493 86.5391C100.502 85.8748 99.7296 84.9321 99.2729 83.8297C98.8163 82.7272 98.6961 81.5143 98.9274 80.3436C99.1587 79.173 99.7312 78.0969 100.573 77.251C101.414 76.405 102.487 75.827 103.657 75.5897C104.826 75.3523 106.04 75.4663 107.145 75.9173C108.25 76.3682 109.196 77.136 109.866 78.1239C110.535 79.1118 110.897 80.2756 110.906 81.4689C110.91 82.2676 110.757 83.0593 110.454 83.7985C110.151 84.5376 109.705 85.2096 109.142 85.7759C108.578 86.3422 107.909 86.7915 107.171 87.0982C106.433 87.4048 105.643 87.5626 104.844 87.5626ZM104.844 77.8126C104.11 77.8158 103.394 78.0368 102.786 78.4477C102.178 78.8586 101.706 79.4408 101.429 80.1204C101.153 80.8001 101.085 81.5466 101.233 82.2651C101.382 82.9836 101.74 83.6419 102.263 84.1563C102.787 84.6707 103.451 85.0181 104.172 85.1544C104.893 85.2907 105.638 85.2097 106.313 84.9218C106.988 84.6339 107.562 84.1519 107.962 83.5372C108.363 82.9224 108.572 82.2025 108.563 81.4689C108.546 80.4934 108.147 79.5635 107.451 78.8796C106.756 78.1957 105.819 77.8125 104.844 77.8126Z" fill="#380017"/>
<path id="Vector_17" d="M120.906 107.703C119.71 107.7 118.542 107.342 117.549 106.675C116.557 106.008 115.784 105.062 115.329 103.956C114.875 102.85 114.758 101.634 114.994 100.461C115.231 99.289 115.809 98.213 116.657 97.3696C117.505 96.5261 118.584 95.953 119.758 95.7227C120.931 95.4924 122.147 95.6153 123.25 96.0758C124.354 96.5363 125.296 97.3138 125.958 98.3099C126.62 99.306 126.972 100.476 126.969 101.672C126.967 102.466 126.808 103.252 126.502 103.985C126.197 104.718 125.75 105.383 125.187 105.943C124.624 106.503 123.956 106.947 123.221 107.249C122.487 107.551 121.7 107.705 120.906 107.703ZM120.906 97.9532C120.174 97.9532 119.459 98.17 118.851 98.5763C118.242 98.9825 117.767 99.5599 117.487 100.236C117.206 100.911 117.132 101.655 117.273 102.373C117.415 103.091 117.766 103.751 118.282 104.269C118.799 104.788 119.457 105.142 120.174 105.286C120.892 105.431 121.636 105.36 122.313 105.082C122.989 104.804 123.569 104.332 123.978 103.725C124.386 103.118 124.606 102.404 124.609 101.672C124.605 100.69 124.214 99.7485 123.521 99.0524C122.828 98.3564 121.889 97.9614 120.906 97.9532Z" fill="#380017"/>
<path id="Vector_18" d="M94.0625 64.4376C93.753 64.4336 93.4572 64.3088 93.2383 64.0899C93.0194 63.871 92.8947 63.5753 92.8906 63.2657V59.5939C92.8906 59.2831 93.0141 58.985 93.2339 58.7652C93.4536 58.5455 93.7517 58.422 94.0625 58.422C94.3733 58.422 94.6714 58.5455 94.8911 58.7652C95.1109 58.985 95.2344 59.2831 95.2344 59.5939V63.2814C95.2263 63.5882 95.0998 63.88 94.8813 64.0955C94.6628 64.3111 94.3694 64.4337 94.0625 64.4376Z" fill="#380017"/>
<path id="Vector_19" d="M85.1094 64.4376C84.7998 64.4336 84.5041 64.3088 84.2852 64.0899C84.0663 63.871 83.9415 63.5753 83.9375 63.2657V44.7814C83.9415 44.4718 84.0663 44.1761 84.2852 43.9572C84.5041 43.7383 84.7998 43.6135 85.1094 43.6095H94.0625C94.372 43.6135 94.6678 43.7383 94.8867 43.9572C95.1056 44.1761 95.2303 44.4718 95.2344 44.7814V53.6407C95.2344 53.9515 95.1109 54.2496 94.8911 54.4694C94.6714 54.6892 94.3733 54.8126 94.0625 54.8126C93.7517 54.8126 93.4536 54.6892 93.2339 54.4694C93.0141 54.2496 92.8906 53.9515 92.8906 53.6407V45.9532H86.2812V63.2657C86.2812 63.5765 86.1578 63.8746 85.938 64.0944C85.7182 64.3142 85.4202 64.4376 85.1094 64.4376Z" fill="#380017"/>
<path id="Vector_20" d="M97.7031 45.9532H81.4844C81.0267 45.9558 80.5779 45.8278 80.1904 45.5843C79.803 45.3407 79.493 44.9917 79.2969 44.5782C79.0965 44.1655 79.0208 43.7032 79.079 43.2481C79.1373 42.793 79.3271 42.3647 79.625 42.0157L87.7344 32.2032C87.9688 31.9424 88.2555 31.7338 88.5759 31.591C88.8962 31.4482 89.243 31.3744 89.5937 31.3744C89.9445 31.3744 90.2913 31.4482 90.6116 31.591C90.932 31.7338 91.2187 31.9424 91.4531 32.2032L99.6094 42.0157C99.9073 42.3647 100.097 42.793 100.155 43.2481C100.214 43.7032 100.138 44.1655 99.9375 44.5782C99.7381 44.9991 99.4208 45.353 99.0242 45.597C98.6276 45.8411 98.1687 45.9648 97.7031 45.9532ZM89.6406 33.7032L81.4219 43.5001L97.7031 43.6095L89.6406 33.7032Z" fill="#380017"/>
<path id="Vector_21" d="M118.656 47.172C118.347 47.1679 118.051 47.0432 117.832 46.8243C117.613 46.6054 117.488 46.3097 117.484 46.0001V42.3126C117.484 42.0018 117.608 41.7037 117.828 41.484C118.047 41.2642 118.345 41.1407 118.656 41.1407C118.967 41.1407 119.265 41.2642 119.485 41.484C119.705 41.7037 119.828 42.0018 119.828 42.3126V46.0001C119.828 46.3109 119.705 46.609 119.485 46.8288C119.265 47.0485 118.967 47.172 118.656 47.172Z" fill="#380017"/>
<path id="Vector_22" d="M109.719 47.172C109.408 47.172 109.11 47.0485 108.89 46.8288C108.67 46.609 108.547 46.3109 108.547 46.0001V27.5157C108.547 27.2049 108.67 26.9069 108.89 26.6871C109.11 26.4673 109.408 26.3439 109.719 26.3439H118.656C118.967 26.3439 119.265 26.4673 119.485 26.6871C119.705 26.9069 119.828 27.2049 119.828 27.5157V36.3751C119.828 36.6859 119.705 36.984 119.485 37.2038C119.265 37.4235 118.967 37.547 118.656 37.547C118.345 37.547 118.047 37.4235 117.828 37.2038C117.608 36.984 117.484 36.6859 117.484 36.3751V28.6876H110.891V46.0001C110.887 46.3097 110.762 46.6054 110.543 46.8243C110.324 47.0432 110.028 47.1679 109.719 47.172Z" fill="#380017"/>
<path id="Vector_23" d="M122.297 28.6876H106.078C105.628 28.6738 105.191 28.534 104.817 28.2842C104.442 28.0343 104.145 27.6845 103.96 27.2743C103.774 26.8641 103.707 26.4102 103.767 25.964C103.827 25.5178 104.01 25.0972 104.297 24.7501L112.406 14.9376C112.632 14.6636 112.916 14.443 113.238 14.2917C113.559 14.1404 113.91 14.0622 114.266 14.0626C114.621 14.0588 114.974 14.1355 115.296 14.2871C115.618 14.4386 115.901 14.661 116.125 14.9376L124.234 24.7501C124.532 25.0991 124.722 25.5274 124.78 25.9825C124.839 26.4376 124.763 26.8999 124.563 27.3126C124.361 27.7385 124.039 28.0957 123.636 28.3402C123.233 28.5846 122.768 28.7054 122.297 28.6876ZM114.25 16.4376L106.031 26.2345L122.297 26.3439L114.25 16.4376Z" fill="#380017"/>
<path id="Vector_24" d="M36.3438 88.6408C31.6563 88.6408 27.5625 85.5158 26.8906 81.5002C26.8388 81.1935 26.911 80.8788 27.0912 80.6254C27.2714 80.3719 27.5449 80.2004 27.8516 80.1486C28.1582 80.0968 28.4729 80.1689 28.7264 80.3492C28.9798 80.5294 29.1513 80.8029 29.2031 81.1095C29.6875 84.0627 32.7656 86.297 36.3438 86.297C37.7496 86.3456 39.14 85.9903 40.3501 85.273C41.5603 84.5558 42.5395 83.5068 43.1719 82.2502C43.6507 81.0257 43.688 79.6727 43.2773 78.4238C42.8667 77.1748 42.0338 76.1079 40.9219 75.4064C39.4862 74.7296 37.9296 74.3471 36.3438 74.2814C35.043 74.1617 33.7561 73.9211 32.5 73.5627C30.8767 73.0438 29.4554 72.0323 28.4333 70.6687C27.4113 69.305 26.8393 67.6569 26.7969 65.9533C26.7969 61.2658 31.0781 57.6095 36.3438 57.6095C38.4196 57.5187 40.4669 58.1202 42.1638 59.3193C43.8608 60.5185 45.1112 62.2475 45.7188 64.2345C45.7913 64.5371 45.7406 64.856 45.578 65.1212C45.4154 65.3864 45.1541 65.5761 44.8516 65.6486C44.5491 65.7211 44.2301 65.6705 43.9649 65.5079C43.6997 65.3452 43.51 65.0839 43.4375 64.7814C42.9545 63.3092 41.9988 62.0378 40.7188 61.1647C39.4388 60.2916 37.9063 59.8658 36.3594 59.9533C32.4219 59.9533 29.1406 62.7189 29.1406 65.9533C29.1801 67.1635 29.5955 68.3313 30.3292 69.2945C31.0628 70.2578 32.0782 70.9686 33.2344 71.3283C34.3411 71.6483 35.4769 71.8577 36.625 71.9533C38.5224 72.0393 40.3804 72.5238 42.0781 73.3752C43.687 74.356 44.8962 75.8751 45.4912 77.6629C46.0862 79.4507 46.0284 81.3915 45.3281 83.1408C44.5304 84.834 43.2547 86.2569 41.6583 87.2342C40.062 88.2115 38.2146 88.7004 36.3438 88.6408Z" fill="#380017"/>
<path id="Vector_25" d="M36.3438 59.9532C36.0342 59.9492 35.7385 59.8244 35.5196 59.6055C35.3007 59.3866 35.1759 59.0909 35.1719 58.7814V54.797C35.1719 54.4862 35.2953 54.1881 35.5151 53.9684C35.7349 53.7486 36.0329 53.6251 36.3438 53.6251C36.6546 53.6251 36.9526 53.7486 37.1724 53.9684C37.3922 54.1881 37.5156 54.4862 37.5156 54.797V58.7814C37.5156 59.0922 37.3922 59.3902 37.1724 59.61C36.9526 59.8298 36.6546 59.9532 36.3438 59.9532Z" fill="#380017"/>
<path id="Vector_26" d="M36.3438 92.6095C36.0329 92.6095 35.7349 92.486 35.5151 92.2663C35.2953 92.0465 35.1719 91.7484 35.1719 91.4376V87.4689C35.1719 87.1581 35.2953 86.86 35.5151 86.6402C35.7349 86.4205 36.0329 86.297 36.3438 86.297C36.6546 86.297 36.9526 86.4205 37.1724 86.6402C37.3922 86.86 37.5156 87.1581 37.5156 87.4689V91.4376C37.5177 91.5921 37.4889 91.7454 37.4307 91.8886C37.3726 92.0317 37.2863 92.1617 37.1771 92.2709C37.0678 92.3802 36.9378 92.4664 36.7947 92.5246C36.6516 92.5827 36.4982 92.6116 36.3438 92.6095Z" fill="#380017"/>
</g>
</g>
</svg>
