<svg width="153" height="150" viewBox="0 0 153 150" fill="none" xmlns="http://www.w3.org/2000/svg">
<path d="M49.6504 70.2129C49.4322 70.2118 49.2183 70.1536 49.0305 70.0442C48.8427 69.9349 48.6878 69.7783 48.5816 69.5905C47.688 68.0773 47.1306 66.3944 46.9464 64.6531C46.7621 62.9118 46.9552 61.1518 47.5128 59.4894C48.7435 56.298 51.7394 54.1277 56.4032 52.9629C56.7167 52.8846 57.049 52.9322 57.3268 53.0953C57.6047 53.2584 57.8055 53.5236 57.8849 53.8325C57.9644 54.1415 57.916 54.4689 57.7505 54.7427C57.585 55.0165 57.3159 55.2143 57.0024 55.2926C53.1482 56.2501 50.7192 57.9575 49.7961 60.3512C49.3566 61.6867 49.2116 63.0994 49.3708 64.4946C49.53 65.8898 49.9897 67.2355 50.7192 68.4416C50.8644 68.7176 50.895 69.0386 50.8043 69.3364C50.7136 69.6343 50.5088 69.8857 50.2333 70.0373C50.0567 70.1425 49.8564 70.2028 49.6504 70.2129Z" fill="#380017"/>
<path d="M56.0955 57.0161H55.8364C55.5235 56.9473 55.2508 56.7594 55.0779 56.4934C54.905 56.2273 54.8458 55.9047 54.9134 55.5958C55.2948 53.9893 56.0041 52.4761 56.998 51.1483C57.9919 49.8206 59.2496 48.706 60.6946 47.8724C63.8038 46.2767 67.6255 46.5001 72.0303 48.431C72.3285 48.5604 72.5624 48.801 72.6808 49.1002C72.7992 49.3993 72.7924 49.7325 72.6618 50.0267C72.597 50.1722 72.5034 50.3035 72.3866 50.413C72.2697 50.5225 72.1319 50.608 71.9811 50.6644C71.8304 50.7209 71.6698 50.7472 71.5086 50.7418C71.3474 50.7364 71.189 50.6994 71.0424 50.6331C67.3017 49.0373 64.1924 48.8139 61.7634 50.0107C59.5011 51.3728 57.8726 53.5563 57.2291 56.0905C57.1666 56.3446 57.0225 56.5719 56.8182 56.7387C56.6139 56.9055 56.3604 57.0028 56.0955 57.0161Z" fill="#380017"/>
<path d="M87.5926 52.2606C87.4176 52.26 87.2448 52.2228 87.0856 52.1512C86.9265 52.0797 86.7846 51.9755 86.6695 51.8457C85.7859 50.6959 84.6622 49.7462 83.3744 49.0608C82.0865 48.3753 80.6645 47.97 79.2041 47.8723C74.7022 47.7765 71.1072 51.6063 70.9939 51.6382C70.7715 51.8416 70.48 51.9556 70.1766 51.9578C69.8733 51.9601 69.5801 51.8503 69.3547 51.6502C69.1293 51.4502 68.988 51.1742 68.9587 50.8767C68.9294 50.5791 69.0142 50.2816 69.1963 50.0425C71.7867 47.3497 75.3166 45.7246 79.0746 45.4946H79.2203C81.0293 45.5805 82.7977 46.0532 84.4028 46.8798C86.0079 47.7065 87.4113 48.8673 88.5156 50.2819C88.6197 50.3998 88.699 50.537 88.7488 50.6854C88.7987 50.8338 88.8182 50.9904 88.8061 51.1463C88.7941 51.3022 88.7507 51.4541 88.6786 51.5934C88.6065 51.7326 88.5071 51.8563 88.3861 51.9574C88.1698 52.1534 87.8864 52.2617 87.5926 52.2606Z" fill="#380017"/>
<path d="M98.993 63.3669C98.8857 63.3824 98.7766 63.3824 98.6692 63.3669C98.3594 63.2778 98.0975 63.0723 97.94 62.7947C97.7825 62.5171 97.742 62.1897 97.8271 61.8829C98.1662 60.7314 98.2419 59.5201 98.0487 58.3364C97.8554 57.1526 97.3981 56.0258 96.7097 55.0372C96.0989 54.1381 95.2918 53.385 94.3476 52.8328C93.4034 52.2806 92.3459 51.9433 91.2524 51.8457C90.0335 51.7641 88.8108 51.9365 87.664 52.3516C86.5172 52.7668 85.4721 53.4154 84.5967 54.2552C84.369 54.4794 84.0603 54.6052 83.7384 54.6052C83.4166 54.6052 83.1079 54.4794 82.8802 54.2552C82.6527 54.0308 82.525 53.7266 82.525 53.4095C82.525 53.0923 82.6527 52.7881 82.8802 52.5637C84.008 51.4706 85.3606 50.6287 86.8468 50.0946C88.333 49.5606 89.9182 49.3469 91.4953 49.468C92.9493 49.5788 94.3593 50.0107 95.6208 50.7317C96.8823 51.4527 97.9629 52.4443 98.7825 53.6329C99.6695 54.9136 100.259 56.3714 100.508 57.9023C100.757 59.4333 100.66 60.9995 100.224 62.4893C100.15 62.7517 99.9886 62.9816 99.7649 63.1411C99.5411 63.3007 99.2689 63.3803 98.993 63.3669Z" fill="#380017"/>
<path d="M99.2845 81.0958C97.8814 81.0958 96.4996 80.757 95.2603 80.1088C94.0209 79.4606 92.9617 78.5228 92.1754 77.3777C92.0893 77.2446 92.0306 77.0961 92.0027 76.9407C91.9748 76.7853 91.9783 76.626 92.0128 76.4719C92.0474 76.3178 92.1125 76.1719 92.2043 76.0426C92.2961 75.9132 92.4128 75.803 92.5479 75.7181C92.6829 75.6332 92.8336 75.5754 92.9913 75.5479C93.149 75.5204 93.3107 75.5238 93.4671 75.5579C93.6235 75.592 93.7715 75.6561 93.9028 75.7465C94.034 75.837 94.1459 75.9521 94.232 76.0851C95.0029 77.245 96.1695 78.0949 97.5208 78.4812C98.8721 78.8675 100.319 78.7647 101.6 78.1915C102.625 77.4547 103.464 76.4962 104.054 75.3896C104.643 74.283 104.967 73.0579 105.001 71.8085C105.325 67.1968 102.248 63.8298 97.1955 63.0479C96.8712 63.0034 96.5782 62.8339 96.3808 62.5765C96.1834 62.3192 96.0978 61.9951 96.1429 61.6755C96.188 61.356 96.3601 61.0672 96.6212 60.8727C96.8824 60.6782 97.2113 60.5939 97.5356 60.6383C103.851 61.5319 107.835 66.0798 107.414 71.9362C107.35 73.5692 106.903 75.1653 106.107 76.5994C105.312 78.0336 104.191 79.2667 102.831 80.2021C101.75 80.8035 100.526 81.1118 99.2845 81.0958Z" fill="#380017"/>
<path d="M91.4143 91.7075C89.4499 91.7425 87.4991 91.3795 85.6829 90.6412C83.8667 89.9028 82.2238 88.8047 80.8559 87.415C80.6469 87.1743 80.5417 86.8626 80.5629 86.5465C80.584 86.2304 80.7299 85.935 80.9692 85.7235C81.0893 85.6195 81.229 85.5399 81.3803 85.4893C81.5316 85.4386 81.6916 85.4179 81.8511 85.4282C82.0105 85.4386 82.1663 85.4799 82.3096 85.5497C82.4528 85.6196 82.5807 85.7166 82.6858 85.8352C84.4186 87.5187 86.6224 88.6537 89.0144 89.0944C91.4064 89.5351 93.8774 89.2615 96.1105 88.3086C100.208 86.3139 100.71 80.8884 100.774 79.2767C100.799 78.9719 100.943 78.6885 101.176 78.4862C101.408 78.2838 101.711 78.1782 102.021 78.1916C102.181 78.1977 102.338 78.2348 102.483 78.3007C102.627 78.3666 102.758 78.4601 102.866 78.5757C102.974 78.6913 103.059 78.8268 103.114 78.9745C103.169 79.1221 103.194 79.279 103.187 79.4362C103.009 84.5745 100.758 88.7235 97.1631 90.4628C95.368 91.3036 93.4017 91.7294 91.4143 91.7075Z" fill="#380017"/>
<path d="M73.8763 91.4521C72.0464 91.5245 70.2295 91.12 68.6089 90.2795C66.9883 89.439 65.6213 88.1922 64.6458 86.6648C62.6864 83.1382 63.9657 78.4787 66.1033 75.4946C70.087 69.7659 77.1637 68.4734 81.4551 68.2659C81.6958 67.7223 81.8201 67.1356 81.8201 66.5425C81.8201 65.9494 81.6958 65.3627 81.4551 64.8191C81.3219 64.5207 81.3145 64.1825 81.4345 63.8787C81.5544 63.575 81.7919 63.3306 82.0947 63.1994C82.3975 63.0682 82.7408 63.0609 83.049 63.1791C83.3573 63.2973 83.6053 63.5314 83.7384 63.8297C84.158 64.8342 84.3283 65.9228 84.2354 67.0052C84.1425 68.0875 83.7889 69.1324 83.204 70.0531C83.0961 70.2106 82.9517 70.3405 82.7827 70.4321C82.6138 70.5237 82.4251 70.5743 82.2324 70.5797C78.5078 70.6755 71.7226 71.617 68.1113 76.8031C66.4919 79.1808 65.326 82.9148 66.7672 85.5319C68.4676 88.5638 72.8723 89.601 76.1111 88.7872C78.5393 87.9201 80.6868 86.4267 82.3295 84.4627C83.4756 83.2953 84.7217 82.2275 86.0541 81.2712C88.5026 79.549 91.1432 78.1088 93.9243 76.9787C94.0736 76.9118 94.2351 76.8754 94.399 76.8717C94.5629 76.8679 94.7259 76.897 94.8781 76.957C95.0304 77.017 95.1687 77.1068 95.2848 77.2209C95.4008 77.335 95.4923 77.4711 95.5536 77.6209C95.6148 77.7708 95.6447 77.9313 95.6413 78.0929C95.6379 78.2544 95.6014 78.4136 95.5339 78.5608C95.4664 78.7081 95.3693 78.8403 95.2485 78.9496C95.1278 79.0589 94.9858 79.143 94.8312 79.1968C92.2203 80.2448 89.7421 81.589 87.4468 83.2021C86.2024 84.0855 85.0425 85.079 83.9813 86.1702C82.0392 88.4362 79.5094 90.1404 76.6617 91.101C75.752 91.3335 74.8161 91.4515 73.8763 91.4521Z" fill="#380017"/>
<path d="M56.6785 83.3298C54.1117 83.4089 51.5938 82.6269 49.537 81.1118C48.3556 80.1146 47.3876 78.8954 46.6897 77.5255C45.9918 76.1556 45.578 74.6624 45.4723 73.133C45.2938 71.7706 45.3938 70.3868 45.7665 69.0631C46.1391 67.7394 46.777 66.5026 47.6423 65.4256C47.8721 65.2053 48.18 65.082 48.5006 65.082C48.8212 65.082 49.1291 65.2053 49.3589 65.4256C49.5718 65.633 49.6995 65.9106 49.7175 66.2051C49.7354 66.4997 49.6423 66.7903 49.456 67.0213C48.8026 67.8476 48.3229 68.7938 48.0448 69.8049C47.7668 70.8159 47.696 71.8714 47.8366 72.9096C47.9024 74.1261 48.2141 75.3175 48.7536 76.4136C49.2931 77.5097 50.0495 78.4886 50.9782 79.2926C54.5571 82.0852 60.9213 81.1596 64.6135 78.5267C64.8816 78.3319 65.2149 78.2449 65.5457 78.2835C65.8766 78.322 66.1801 78.4831 66.3948 78.7341C66.4949 78.8474 66.5703 78.9797 66.6166 79.1229C66.6628 79.266 66.6789 79.417 66.6637 79.5665C66.6485 79.7159 66.6025 79.8608 66.5284 79.9921C66.4543 80.1233 66.3537 80.2383 66.2329 80.3298L66.0385 80.4735C63.2791 82.3275 60.0183 83.3226 56.6785 83.3298Z" fill="#380017"/>
<path d="M74.0869 82.7235C73.8696 82.7196 73.6573 82.659 73.4715 82.548C73.2071 82.3859 73.016 82.1299 72.9376 81.8329C72.8593 81.536 72.8997 81.2207 73.0505 80.9522C74.0397 79.5668 75.3136 78.4019 76.7895 77.5332C78.2653 76.6644 79.9101 76.1113 81.617 75.9097C82.2839 73.8708 83.5769 72.0863 85.3175 70.8028C87.058 69.5193 89.1601 68.8002 91.3333 68.7448C92.7746 64.5001 88.6289 62.0427 88.4346 61.931C88.2454 61.8275 88.0891 61.6742 87.9833 61.4882C87.8775 61.3022 87.8263 61.0908 87.8354 60.8778C87.8638 59.9276 87.6763 58.9832 87.2869 58.1136C86.8975 57.244 86.3158 56.471 85.5845 55.8512C84.8937 55.2712 84.0799 54.8512 83.2027 54.622C82.3256 54.3928 81.4074 54.3603 80.5158 54.5267C78.2281 54.8651 76.1379 55.9968 74.6213 57.7182C74.0689 58.4652 73.7385 59.349 73.667 60.2706C73.5955 61.1922 73.7857 62.1152 74.2164 62.9363L74.5079 63.415C75.269 64.6597 75.4957 65.0107 75.0099 65.6969C73.7306 67.4841 75.1071 70.4841 75.1233 70.4841C75.2015 70.6266 75.2495 70.7831 75.2645 70.9444C75.2795 71.1056 75.2611 71.2682 75.2105 71.4222C75.1599 71.5763 75.0781 71.7186 74.97 71.8406C74.862 71.9626 74.73 72.0617 74.5819 72.1319C74.4339 72.2022 74.2729 72.2421 74.1087 72.2492C73.9446 72.2564 73.7807 72.2307 73.6269 72.1736C73.4731 72.1165 73.3327 72.0293 73.2141 71.9172C73.0956 71.8051 73.0013 71.6704 72.9371 71.5214C72.442 70.5158 72.1595 69.4216 72.1066 68.3052C72.0537 67.1887 72.2316 66.0733 72.6294 65.0267C72.6294 64.915 72.4837 64.8033 72.4189 64.6756L71.9979 63.8299C71.3749 62.616 71.1114 61.2538 71.2374 59.8992C71.3634 58.5446 71.8739 57.2524 72.7104 56.1703C74.5955 53.9781 77.2263 52.5372 80.111 52.1171C81.3558 51.8876 82.6371 51.9377 83.8596 52.2637C85.082 52.5898 86.2141 53.1833 87.1715 54.0001C88.0756 54.7785 88.8091 55.7305 89.327 56.7978C89.8449 57.8652 90.1364 59.0254 90.1836 60.2076C91.8641 61.2463 93.0992 62.8568 93.6544 64.7335C94.2096 66.6102 94.0464 68.6225 93.1956 70.3884C93.0999 70.6073 92.9383 70.792 92.7327 70.9175C92.5271 71.0431 92.2874 71.1035 92.0458 71.0905C91.7867 71.0905 85.212 70.9788 83.7546 77.2342C83.6968 77.4992 83.5506 77.7375 83.3392 77.9111C83.1279 78.0846 82.8636 78.1834 82.5886 78.1916C82.5886 78.1916 77.2609 78.6065 75.0747 82.1969C74.9642 82.3556 74.8171 82.4862 74.6453 82.5777C74.4735 82.6693 74.2821 82.7193 74.0869 82.7235Z" fill="#380017"/>
<path d="M56.0955 74.3139C55.8469 74.3147 55.604 74.2404 55.3996 74.1008C55.1953 73.9613 55.0393 73.7633 54.9528 73.5336C54.8662 73.3039 54.8533 73.0536 54.9158 72.8164C54.9782 72.5793 55.1131 72.3667 55.302 72.2075C55.5125 72.0479 59.5124 68.7128 63.5285 68.4735C63.0013 67.1115 62.8395 65.6385 63.0589 64.1969C60.9658 64.333 58.894 63.7148 57.2291 62.4575C56.9778 62.2572 56.8165 61.9675 56.7802 61.651C56.7438 61.3345 56.8353 61.0166 57.0348 60.766C57.2443 60.5289 57.5402 60.3826 57.8584 60.3587C58.1766 60.3348 58.4915 60.4353 58.7351 60.6384C59.5771 61.214 60.5362 61.602 61.5457 61.7756C62.5552 61.9492 63.591 61.9042 64.5811 61.6437C64.8228 61.5683 65.0823 61.5693 65.3233 61.6466C65.5643 61.7239 65.7748 61.8735 65.9252 62.0745C66.0703 62.2748 66.1483 62.5147 66.1483 62.7607C66.1483 63.0067 66.0703 63.2466 65.9252 63.4469C64.3058 65.7288 66.5082 69.2873 66.5244 69.3192C66.6472 69.5288 66.7036 69.7698 66.6863 70.0112C66.669 70.2527 66.5788 70.4835 66.4273 70.674C66.2758 70.8644 66.0699 71.0059 65.8361 71.0801C65.6023 71.1544 65.3514 71.158 65.1155 71.0905C62.3463 70.2128 58.2979 72.8937 56.889 74.0267C56.6672 74.2117 56.3861 74.3135 56.0955 74.3139Z" fill="#380017"/>
<path d="M64.9373 63.9097C64.6794 63.9073 64.4289 63.8241 64.2222 63.672C64.0155 63.5199 63.8632 63.307 63.7876 63.0639C63.7876 62.8086 61.9091 56.8246 65.9738 54.7501C66.2615 54.6041 66.5963 54.5767 66.9046 54.674C67.2128 54.7712 67.4693 54.9852 67.6174 55.2687C67.7656 55.5523 67.7934 55.8822 67.6947 56.186C67.596 56.4897 67.3789 56.7424 67.0911 56.8884C64.8564 58.0214 66.0871 62.3299 66.1033 62.3618C66.1507 62.5127 66.1674 62.6713 66.1523 62.8285C66.1372 62.9858 66.0907 63.1385 66.0154 63.278C65.9402 63.4174 65.8376 63.5408 65.7137 63.641C65.5899 63.7412 65.4471 63.8162 65.2936 63.8618C65.1778 63.8944 65.0578 63.9106 64.9373 63.9097Z" fill="#380017"/>
<path d="M96.985 72.0479C96.6659 72.0486 96.3588 71.9286 96.1267 71.7128C94.8878 71.1482 93.516 70.9275 92.1592 71.0745C91.8371 71.0915 91.5214 70.9816 91.2814 70.7691C91.0415 70.5567 90.8971 70.259 90.8799 69.9416C90.8627 69.6241 90.9742 69.313 91.1898 69.0766C91.4055 68.8402 91.7076 68.6978 92.0297 68.6809C92.726 68.6809 96.2887 68.5373 97.8271 69.9894C98.0545 70.2138 98.1823 70.518 98.1823 70.8352C98.1823 71.1523 98.0545 71.4565 97.8271 71.6809C97.7206 71.7967 97.5906 71.8893 97.4455 71.9525C97.3005 72.0157 97.1436 72.0482 96.985 72.0479Z" fill="#380017"/>
<path d="M93.2604 124.101H58.9618C58.641 124.097 58.3345 123.97 58.1077 123.746C57.8808 123.522 57.7515 123.22 57.7473 122.904V121.835C57.8149 111.299 54.1882 101.062 47.4804 92.8565C43.0642 87.5432 40.2599 81.1093 39.3901 74.295C38.5203 67.4808 39.6204 60.563 42.5637 54.3375C45.507 48.112 50.1741 42.8318 56.0279 39.1043C61.8817 35.3767 68.6845 33.3533 75.6537 33.2668C82.6228 33.1803 89.4752 35.0343 95.4224 38.6153C101.37 42.1964 106.17 47.3592 109.272 53.5096C112.373 59.6601 113.65 66.5484 112.954 73.3821C112.259 80.2157 109.62 86.7172 105.341 92.1384C98.4393 100.555 94.612 111.015 94.475 121.835V122.872C94.4771 123.032 94.4474 123.19 94.3875 123.338C94.3276 123.486 94.2388 123.621 94.126 123.735C94.0132 123.849 93.8787 123.94 93.7302 124.003C93.5817 124.066 93.422 124.099 93.2604 124.101ZM60.1764 121.708H92.0459C92.1991 110.399 96.1897 99.4675 103.382 90.6544C108.128 84.68 110.695 77.3053 110.669 69.7182C110.663 64.9174 109.632 60.1716 107.643 55.7893C105.653 51.407 102.75 47.4863 99.1226 44.282C95.4831 41.0561 91.1859 38.634 86.5189 37.1781C81.8519 35.7222 76.9231 35.2662 72.0627 35.8405C65.8945 36.5564 60.0358 38.8955 55.1016 42.6123C50.1673 46.3291 46.3397 51.2865 44.0205 56.9639C41.7013 62.6412 40.9762 68.8292 41.9212 74.8781C42.8662 80.9269 45.4466 86.6134 49.3913 91.3405C56.415 99.944 60.2229 110.666 60.1764 121.708Z" fill="#380017"/>
<path d="M76.1111 21.0478C75.7903 21.0437 75.4838 20.9163 75.257 20.6927C75.0301 20.4692 74.9008 20.1671 74.8966 19.851V3.19144C74.8966 2.87402 75.0246 2.56961 75.2523 2.34517C75.4801 2.12072 75.789 1.99463 76.1111 1.99463C76.4333 1.99463 76.7422 2.12072 76.97 2.34517C77.1977 2.56961 77.3257 2.87402 77.3257 3.19144V19.851C77.3215 20.1671 77.1922 20.4692 76.9653 20.6927C76.7384 20.9163 76.432 21.0437 76.1111 21.0478Z" fill="#380017"/>
<path d="M50.8163 27.734C50.6001 27.7329 50.3879 27.6765 50.2005 27.5701C50.0131 27.4638 49.857 27.3113 49.7475 27.1276L41.2943 12.7659C41.1464 12.4937 41.1109 12.1756 41.1954 11.8782C41.2799 11.5808 41.4778 11.3271 41.7478 11.1702C42.0212 11.0189 42.3439 10.9793 42.6467 11.0599C42.9494 11.1404 43.2081 11.3347 43.3671 11.601L51.8203 25.9627C51.9738 26.2322 52.014 26.5502 51.9323 26.8486C51.8505 27.1469 51.6534 27.4018 51.3831 27.5585C51.2118 27.6623 51.0171 27.7226 50.8163 27.734Z" fill="#380017"/>
<path d="M32.2743 45.9733C32.0639 45.9729 31.8572 45.9178 31.6752 45.8137L17.1007 37.4839C16.9458 37.415 16.8074 37.3147 16.6943 37.1897C16.5812 37.0647 16.496 36.9178 16.4442 36.7583C16.3924 36.5988 16.3751 36.4304 16.3935 36.2639C16.4119 36.0974 16.4655 35.9366 16.5509 35.7918C16.6363 35.647 16.7516 35.5215 16.8894 35.4234C17.0271 35.3253 17.1842 35.2568 17.3505 35.2223C17.5167 35.1877 17.6885 35.188 17.8547 35.223C18.0209 35.258 18.1778 35.3269 18.3152 35.4254L32.8897 43.7552C33.1144 43.8904 33.2884 44.094 33.3856 44.3351C33.4827 44.5762 33.4977 44.842 33.4282 45.0922C33.3588 45.3425 33.2087 45.5637 33.0006 45.7227C32.7925 45.8816 32.5376 45.9695 32.2743 45.9733Z" fill="#380017"/>
<path d="M25.5053 70.9149H8.59894C8.27682 70.9149 7.9679 70.7888 7.74013 70.5643C7.51236 70.3399 7.3844 70.0355 7.3844 69.718C7.3844 69.4006 7.51236 69.0962 7.74013 68.8718C7.9679 68.6473 8.27682 68.5212 8.59894 68.5212H25.5053C25.8274 68.5212 26.1364 68.6473 26.3641 68.8718C26.5919 69.0962 26.7199 69.4006 26.7199 69.718C26.7199 70.0355 26.5919 70.3399 26.3641 70.5643C26.1364 70.7888 25.8274 70.9149 25.5053 70.9149Z" fill="#380017"/>
<path d="M17.6513 104.186C17.383 104.188 17.1215 104.103 16.9078 103.943C16.694 103.783 16.5399 103.558 16.4697 103.303C16.3994 103.048 16.4168 102.777 16.5193 102.532C16.6217 102.288 16.8034 102.084 17.0359 101.952L31.6104 93.6223C31.8839 93.4711 32.2066 93.4315 32.5093 93.512C32.8121 93.5926 33.0707 93.7869 33.2298 94.0532C33.3791 94.3235 33.417 94.6402 33.3356 94.9374C33.2542 95.2346 33.0597 95.4894 32.7926 95.6489L18.2181 103.979C18.0469 104.088 17.8534 104.159 17.6513 104.186Z" fill="#380017"/>
<path d="M134.571 104.186C134.362 104.178 134.157 104.123 133.972 104.027L119.397 95.6968C119.13 95.5372 118.936 95.2824 118.854 94.9852C118.773 94.6881 118.811 94.3714 118.96 94.101C119.119 93.8347 119.378 93.6404 119.68 93.5599C119.983 93.4793 120.306 93.5189 120.579 93.6702L135.154 102C135.386 102.132 135.568 102.336 135.671 102.58C135.773 102.825 135.79 103.096 135.72 103.351C135.65 103.606 135.496 103.831 135.282 103.991C135.068 104.151 134.807 104.236 134.539 104.234L134.571 104.186Z" fill="#380017"/>
<path d="M143.623 70.9149H126.717C126.395 70.9149 126.086 70.7888 125.858 70.5643C125.63 70.3399 125.502 70.0355 125.502 69.718C125.502 69.4006 125.63 69.0962 125.858 68.8718C126.086 68.6473 126.395 68.5212 126.717 68.5212H143.623C143.945 68.5212 144.254 68.6473 144.482 68.8718C144.71 69.0962 144.838 69.4006 144.838 69.718C144.838 70.0355 144.71 70.3399 144.482 70.5643C144.254 70.7888 143.945 70.9149 143.623 70.9149Z" fill="#380017"/>
<path d="M119.948 45.9734C119.685 45.9696 119.43 45.8817 119.222 45.7228C119.013 45.5639 118.863 45.3426 118.794 45.0923C118.725 44.8421 118.74 44.5764 118.837 44.3352C118.934 44.0941 119.108 43.8906 119.333 43.7553L133.907 35.4255C134.181 35.3035 134.491 35.286 134.777 35.3763C135.064 35.4667 135.306 35.6585 135.457 35.9146C135.608 36.1707 135.658 36.473 135.596 36.7629C135.534 37.0528 135.365 37.3098 135.122 37.4841L120.547 45.8138C120.365 45.918 120.158 45.973 119.948 45.9734Z" fill="#380017"/>
<path d="M101.422 27.734C101.205 27.7301 100.993 27.6695 100.807 27.5585C100.536 27.4018 100.339 27.1469 100.258 26.8486C100.176 26.5502 100.216 26.2322 100.37 25.9627L108.823 11.601C108.982 11.3347 109.24 11.1404 109.543 11.0599C109.846 10.9793 110.169 11.0189 110.442 11.1702C110.712 11.3271 110.91 11.5808 110.994 11.8782C111.079 12.1756 111.043 12.4937 110.896 12.7659L102.442 27.1276C102.337 27.3046 102.189 27.4527 102.01 27.5587C101.832 27.6646 101.63 27.7249 101.422 27.734Z" fill="#380017"/>
<path d="M85.8274 142.899H66.3948C64.9002 142.899 63.4668 142.314 62.4099 141.273C61.3531 140.231 60.7593 138.819 60.7593 137.346V122.872C60.7571 122.715 60.7871 122.558 60.8473 122.412C60.9076 122.266 60.997 122.133 61.1102 122.021C61.2234 121.91 61.3582 121.822 61.5065 121.762C61.6549 121.703 61.8138 121.673 61.9739 121.676H90.3131C90.4732 121.673 90.6321 121.703 90.7805 121.762C90.9288 121.822 91.0636 121.91 91.1768 122.021C91.29 122.133 91.3794 122.266 91.4396 122.412C91.4999 122.558 91.5298 122.715 91.5277 122.872V137.234C91.5429 137.978 91.4062 138.718 91.1258 139.409C90.8453 140.099 90.4268 140.728 89.8951 141.256C89.3634 141.785 88.7293 142.202 88.0305 142.485C87.3317 142.767 86.5825 142.908 85.8274 142.899ZM63.156 124.101V137.346C63.156 138.192 63.4972 139.004 64.1046 139.603C64.712 140.201 65.5358 140.537 66.3948 140.537H85.8274C86.6864 140.537 87.5102 140.201 88.1176 139.603C88.725 139.004 89.0662 138.192 89.0662 137.346V124.101H63.156Z" fill="#380017"/>
<path d="M59.0428 131.011C58.7316 131.011 58.4321 130.894 58.2061 130.683C57.9801 130.472 57.8449 130.184 57.8283 129.878C57.8149 129.561 57.9277 129.252 58.1426 129.017C58.3574 128.781 58.6573 128.638 58.978 128.617L92.5803 126.894C92.9024 126.879 93.2173 126.991 93.4557 127.205C93.6941 127.419 93.8365 127.717 93.8515 128.035C93.8665 128.352 93.753 128.662 93.5359 128.897C93.3187 129.132 93.0158 129.272 92.6936 129.287L59.1076 131.011H59.0428Z" fill="#380017"/>
<path d="M59.0428 138.064C58.7164 138.077 58.3982 137.961 58.1583 137.742C57.9184 137.524 57.7764 137.221 57.7635 136.899C57.7506 136.577 57.8679 136.264 58.0896 136.027C58.3113 135.791 58.6192 135.651 58.9456 135.638L92.5479 133.101C92.8675 133.079 93.1831 133.182 93.4257 133.389C93.6684 133.595 93.8185 133.887 93.8434 134.202C93.8566 134.359 93.8381 134.516 93.7888 134.665C93.7396 134.815 93.6607 134.953 93.5566 135.072C93.4526 135.19 93.3255 135.288 93.1829 135.358C93.0403 135.427 92.885 135.469 92.726 135.479L59.1399 138.048L59.0428 138.064Z" fill="#380017"/>
<path d="M75.8358 148.005C74.132 147.984 72.5051 147.303 71.3078 146.108C70.1105 144.913 69.4391 143.302 69.4393 141.622C69.4393 141.305 69.5672 141.001 69.795 140.776C70.0228 140.552 70.3317 140.426 70.6538 140.426H80.9693C81.1294 140.423 81.2883 140.453 81.4366 140.512C81.585 140.572 81.7197 140.66 81.833 140.771C81.9462 140.883 82.0356 141.016 82.0958 141.162C82.1561 141.308 82.186 141.465 82.1838 141.622C82.1842 143.293 81.5195 144.898 80.3326 146.091C79.1457 147.285 77.5312 147.972 75.8358 148.005ZM72.0627 142.899C72.3177 143.69 72.8216 144.381 73.5014 144.871C74.1812 145.361 75.0016 145.625 75.8439 145.625C76.6862 145.625 77.5067 145.361 78.1865 144.871C78.8663 144.381 79.3702 143.69 79.6252 142.899H72.0627Z" fill="#380017"/>
</svg>
