<svg width="80" height="80" viewBox="0 0 80 80" fill="none" xmlns="http://www.w3.org/2000/svg">
<path d="M48.2499 61.475H31.7582C31.5987 61.4732 31.4457 61.4113 31.3298 61.3016C31.2139 61.1919 31.1437 61.0425 31.1332 60.8833C31.0179 58.6879 30.4384 56.5419 29.4328 54.5869C28.4273 52.6319 27.0187 50.9123 25.2999 49.5416C21.512 46.5025 18.7611 42.3624 17.427 37.6928C16.093 33.0233 16.2416 28.0547 17.8523 23.4733C19.4631 18.8918 22.4565 14.9234 26.4192 12.1161C30.382 9.30878 35.1185 7.80103 39.9749 7.80103C44.8313 7.80103 49.5679 9.30878 53.5306 12.1161C57.4933 14.9234 60.4868 18.8918 62.0975 23.4733C63.7082 28.0547 63.8568 33.0233 62.5228 37.6928C61.1887 42.3624 58.4378 46.5025 54.6499 49.5416C52.9273 50.9071 51.5159 52.6243 50.51 54.5787C49.5041 56.5331 48.9267 58.6797 48.8166 60.875C48.813 61.0273 48.753 61.173 48.6484 61.2837C48.5438 61.3945 48.4018 61.4627 48.2499 61.475ZM32.3416 60.225H47.6666C47.8544 57.9579 48.5043 55.7532 49.5763 53.7468C50.6483 51.7404 52.1197 49.9746 53.8999 48.5583C57.4851 45.6808 60.0886 41.7612 61.3508 37.3407C62.6131 32.9202 62.4719 28.2169 60.9468 23.8801C59.4216 19.5433 56.5877 15.7869 52.8364 13.1296C49.085 10.4723 44.6012 9.04515 40.0041 9.04515C35.4069 9.04515 30.9231 10.4723 27.1718 13.1296C23.4204 15.7869 20.5865 19.5433 19.0614 23.8801C17.5362 28.2169 17.395 32.9202 18.6573 37.3407C19.9196 41.7612 22.523 45.6808 26.1082 48.5583C27.883 49.9796 29.3506 51.7466 30.4221 53.752C31.4936 55.7575 32.1466 57.9596 32.3416 60.225Z" fill="black"/>
<path d="M38.1334 61.4751C37.9776 61.4762 37.8269 61.4199 37.7101 61.3169C37.5933 61.2139 37.5185 61.0714 37.5 60.9168L35.5334 42.4418C35.5191 42.2767 35.5693 42.1125 35.6734 41.9836C35.7775 41.8547 35.9274 41.771 36.0917 41.7501C36.2563 41.7338 36.4207 41.7834 36.5487 41.8881C36.6768 41.9927 36.7582 42.1439 36.775 42.3084L38.7584 60.7834C38.7747 60.948 38.7251 61.1124 38.6204 61.2405C38.5158 61.3686 38.3646 61.4499 38.2 61.4668L38.1334 61.4751Z" fill="black"/>
<path d="M41.8666 61.4749H41.7999C41.6354 61.4581 41.4842 61.3767 41.3795 61.2486C41.2749 61.1206 41.2253 60.9562 41.2416 60.7916L43.2249 42.3166C43.2322 42.2347 43.2557 42.1551 43.2942 42.0824C43.3327 42.0098 43.3853 41.9456 43.449 41.8935C43.5126 41.8415 43.5861 41.8027 43.6649 41.7795C43.7438 41.7563 43.8265 41.7491 43.9082 41.7583C44.0726 41.7792 44.2225 41.8628 44.3266 41.9918C44.4306 42.1207 44.4808 42.2849 44.4666 42.4499L42.4999 60.9166C42.4815 61.0713 42.4067 61.2137 42.2898 61.3167C42.173 61.4197 42.0223 61.476 41.8666 61.4749Z" fill="black"/>
<path d="M40 43.6251C37.4106 43.6814 34.8631 42.9649 32.6827 41.5671C30.5022 40.1693 28.7877 38.1535 27.7579 35.777C26.7281 33.4005 26.4297 30.771 26.9008 28.2242C27.3719 25.6773 28.5911 23.3286 30.4029 21.4777C32.2147 19.6269 34.5369 18.3578 37.0731 17.8324C39.6093 17.3071 42.2445 17.5493 44.6425 18.5282C47.0404 19.5071 49.0923 21.1782 50.5364 23.3283C51.9804 25.4785 52.7511 28.0101 52.75 30.6001C52.7834 34.0172 51.4595 37.3078 49.0691 39.7498C46.6787 42.1918 43.417 43.5855 40 43.6251ZM40 18.8168C37.6583 18.7605 35.3528 19.4034 33.3782 20.6634C31.4035 21.9235 29.8492 23.7435 28.9137 25.891C27.9783 28.0386 27.7041 30.4162 28.1263 32.7203C28.5485 35.0244 29.6478 37.1504 31.2838 38.8268C32.9199 40.5032 35.0185 41.6539 37.3117 42.132C39.6048 42.6101 41.9884 42.3939 44.1581 41.511C46.3278 40.628 48.1851 39.1185 49.4928 37.1751C50.8005 35.2316 51.4993 32.9426 51.5 30.6001C51.5312 27.5144 50.3386 24.5421 48.1833 22.3337C46.028 20.1253 43.0855 18.8607 40 18.8168Z" fill="black"/>
<path d="M40 5.59167C39.8399 5.59189 39.6857 5.53064 39.5694 5.42055C39.4531 5.31045 39.3835 5.15992 39.375 5V2.5C39.375 2.33424 39.4408 2.17527 39.5581 2.05806C39.6753 1.94085 39.8342 1.875 40 1.875C40.1658 1.875 40.3247 1.94085 40.4419 2.05806C40.5592 2.17527 40.625 2.33424 40.625 2.5V5C40.6165 5.15992 40.5469 5.31045 40.4306 5.42055C40.3143 5.53064 40.1601 5.59189 40 5.59167Z" fill="black"/>
<path d="M26.9583 9.09161C26.8483 9.09042 26.7405 9.06059 26.6455 9.00507C26.5505 8.94954 26.4716 8.87023 26.4166 8.77494L25.1833 6.66661C25.1004 6.52295 25.078 6.35225 25.121 6.19206C25.1639 6.03188 25.2688 5.89532 25.4125 5.81244C25.5561 5.72956 25.7268 5.70714 25.887 5.75012C26.0472 5.7931 26.1837 5.89795 26.2666 6.04161L27.5 8.14994C27.5783 8.29166 27.5977 8.4585 27.554 8.61441C27.5104 8.77033 27.4071 8.90282 27.2666 8.98327C27.1763 9.04803 27.0693 9.08561 26.9583 9.09161Z" fill="black"/>
<path d="M17.4083 18.6333C17.2997 18.6352 17.1928 18.6063 17.1 18.55L15 17.3167C14.8563 17.2338 14.7515 17.0972 14.7085 16.9371C14.6655 16.7769 14.6879 16.6062 14.7708 16.4625C14.8537 16.3188 14.9903 16.214 15.1504 16.171C15.3106 16.128 15.4813 16.1505 15.625 16.2333L17.725 17.5C17.8609 17.5847 17.9597 17.7178 18.0014 17.8724C18.0432 18.027 18.0248 18.1917 17.95 18.3333C17.8935 18.4261 17.8139 18.5025 17.7189 18.5551C17.6239 18.6077 17.5169 18.6347 17.4083 18.6333Z" fill="black"/>
<path d="M13.9166 31.6667H11.4166C11.2509 31.6667 11.0919 31.6009 10.9747 31.4837C10.8575 31.3665 10.7916 31.2075 10.7916 31.0417C10.7916 30.876 10.8575 30.717 10.9747 30.5998C11.0919 30.4826 11.2509 30.4167 11.4166 30.4167H13.9166C14.0824 30.4167 14.2414 30.4826 14.3586 30.5998C14.4758 30.717 14.5416 30.876 14.5416 31.0417C14.5416 31.2075 14.4758 31.3665 14.3586 31.4837C14.2414 31.6009 14.0824 31.6667 13.9166 31.6667Z" fill="black"/>
<path d="M68.55 31.6667H66.05C65.8843 31.6667 65.7253 31.6009 65.6081 31.4837C65.4909 31.3665 65.425 31.2075 65.425 31.0417C65.425 30.876 65.4909 30.717 65.6081 30.5998C65.7253 30.4826 65.8843 30.4167 66.05 30.4167H68.55C68.7158 30.4167 68.8748 30.4826 68.992 30.5998C69.1092 30.717 69.175 30.876 69.175 31.0417C69.175 31.2075 69.1092 31.3665 68.992 31.4837C68.8748 31.6009 68.7158 31.6667 68.55 31.6667Z" fill="black"/>
<path d="M62.5916 18.6332C62.4822 18.6337 62.3746 18.6055 62.2796 18.5514C62.1845 18.4973 62.1053 18.4192 62.0499 18.3249C61.9751 18.1833 61.9567 18.0186 61.9985 17.864C62.0402 17.7094 62.139 17.5763 62.2749 17.4916L64.4166 16.2582C64.5602 16.1754 64.7309 16.1529 64.8911 16.1959C65.0513 16.2389 65.1879 16.3438 65.2707 16.4874C65.3536 16.6311 65.376 16.8018 65.3331 16.962C65.2901 17.1221 65.1852 17.2587 65.0416 17.3416L62.8999 18.5749C62.8045 18.6226 62.6978 18.6428 62.5916 18.6332Z" fill="black"/>
<path d="M53.0417 9.09164C52.9323 9.09059 52.8255 9.05882 52.7333 8.99997C52.5928 8.91951 52.4896 8.78702 52.4459 8.63111C52.4023 8.47519 52.4217 8.30836 52.5 8.16664L53.7333 6.03331C53.7744 5.96217 53.829 5.89982 53.8941 5.84981C53.9593 5.79979 54.0336 5.7631 54.1129 5.74182C54.1923 5.72054 54.275 5.71509 54.3564 5.72578C54.4378 5.73648 54.5164 5.7631 54.5875 5.80414C54.6586 5.84518 54.721 5.89982 54.771 5.96496C54.821 6.0301 54.8577 6.10444 54.879 6.18376C54.9003 6.26308 54.9057 6.34581 54.895 6.42723C54.8843 6.50865 54.8577 6.58717 54.8167 6.65831L53.5833 8.77497C53.5283 8.87026 53.4494 8.94957 53.3545 9.0051C53.2595 9.06062 53.1517 9.09045 53.0417 9.09164Z" fill="black"/>
<path d="M39.9999 36.3999C39.1706 36.4367 38.3547 36.1817 37.694 35.6793C37.0333 35.1769 36.5695 34.4588 36.3832 33.6499C36.3568 33.4864 36.3963 33.319 36.4932 33.1846C36.5901 33.0502 36.7364 32.9598 36.8999 32.9332C37.0631 32.909 37.2293 32.9495 37.3632 33.046C37.497 33.1425 37.5879 33.2874 37.6166 33.4499C37.7624 33.9589 38.0788 34.4023 38.5127 34.7058C38.9467 35.0092 39.4717 35.1543 39.9999 35.1166C40.4657 35.1284 40.9255 35.0098 41.3275 34.7742C41.7295 34.5386 42.0576 34.1954 42.2749 33.7832C42.4284 33.3868 42.4401 32.9495 42.308 32.5455C42.1758 32.1415 41.908 31.7956 41.5499 31.5666C41.0556 31.334 40.5205 31.201 39.9749 31.1749C39.489 31.1371 39.0085 31.0477 38.5416 30.9082C37.9146 30.7101 37.3653 30.3207 36.9708 29.7947C36.5762 29.2686 36.3562 28.6323 36.3416 27.9749C36.412 27.0705 36.835 26.23 37.5193 25.6346C38.2036 25.0391 39.0945 24.7364 39.9999 24.7916C40.7876 24.7582 41.5643 24.9848 42.2104 25.4366C42.8565 25.8884 43.336 26.5403 43.5749 27.2916C43.6103 27.4538 43.5815 27.6234 43.4945 27.7649C43.4075 27.9063 43.269 28.0084 43.1082 28.0499C42.9469 28.0874 42.7773 28.0593 42.6367 27.9718C42.496 27.8843 42.3959 27.7445 42.3582 27.5832C42.1857 27.1051 41.8623 26.6961 41.4369 26.418C41.0114 26.1399 40.507 26.0078 39.9999 26.0416C39.4207 25.9878 38.8436 26.1639 38.3931 26.5318C37.9425 26.8997 37.6547 27.43 37.5916 28.0082C37.6054 28.4032 37.7421 28.7841 37.9825 29.0978C38.223 29.4115 38.5553 29.6423 38.9332 29.7582C39.3071 29.8786 39.6925 29.9596 40.0832 29.9999C40.7961 30.0401 41.4935 30.2243 42.1332 30.5416C42.7569 30.9211 43.2258 31.5097 43.4562 32.2025C43.6866 32.8953 43.6637 33.6474 43.3916 34.3249C43.0873 34.9616 42.605 35.4965 42.0031 35.8648C41.4011 36.233 40.7053 36.4189 39.9999 36.3999Z" fill="black"/>
<path d="M40 26.0418C39.8342 26.0418 39.6753 25.9759 39.5581 25.8587C39.4408 25.7415 39.375 25.5825 39.375 25.4168V23.9751C39.375 23.8093 39.4408 23.6504 39.5581 23.5332C39.6753 23.4159 39.8342 23.3501 40 23.3501C40.1658 23.3501 40.3247 23.4159 40.4419 23.5332C40.5592 23.6504 40.625 23.8093 40.625 23.9751V25.4168C40.6228 25.5819 40.5563 25.7396 40.4396 25.8563C40.3228 25.9731 40.1651 26.0396 40 26.0418Z" fill="black"/>
<path d="M40 37.8416C39.8342 37.8416 39.6753 37.7757 39.5581 37.6585C39.4408 37.5413 39.375 37.3823 39.375 37.2166V35.7749C39.375 35.6091 39.4408 35.4502 39.5581 35.333C39.6753 35.2157 39.8342 35.1499 40 35.1499C40.1658 35.1499 40.3247 35.2157 40.4419 35.333C40.5592 35.4502 40.625 35.6091 40.625 35.7749V37.2166C40.6228 37.3817 40.5563 37.5394 40.4396 37.6561C40.3228 37.7729 40.1651 37.8394 40 37.8416Z" fill="black"/>
<path d="M50.6917 67.0918H29.3083C28.8575 67.0918 28.411 67.003 27.9945 66.8304C27.5779 66.6579 27.1994 66.405 26.8806 66.0862C26.5618 65.7674 26.3089 65.3889 26.1363 64.9723C25.9638 64.5558 25.875 64.1093 25.875 63.6584C25.875 63.2076 25.9638 62.7611 26.1363 62.3446C26.3089 61.928 26.5618 61.5495 26.8806 61.2307C27.1994 60.9119 27.5779 60.659 27.9945 60.4864C28.411 60.3139 28.8575 60.2251 29.3083 60.2251H50.6917C51.6022 60.2251 52.4755 60.5868 53.1194 61.2307C53.7633 61.8746 54.125 62.7479 54.125 63.6584C54.125 64.569 53.7633 65.4423 53.1194 66.0862C52.4755 66.73 51.6022 67.0918 50.6917 67.0918ZM29.3083 61.4751C28.7293 61.4751 28.1739 61.7051 27.7645 62.1146C27.355 62.524 27.125 63.0794 27.125 63.6584C27.125 64.2375 27.355 64.7928 27.7645 65.2023C28.1739 65.6117 28.7293 65.8418 29.3083 65.8418H50.6917C51.2707 65.8418 51.8261 65.6117 52.2355 65.2023C52.645 64.7928 52.875 64.2375 52.875 63.6584C52.875 63.0794 52.645 62.524 52.2355 62.1146C51.8261 61.7051 51.2707 61.4751 50.6917 61.4751H29.3083Z" fill="black"/>
<path d="M50.6917 72.7082H29.3083C28.3978 72.7082 27.5245 72.3465 26.8806 71.7026C26.2367 71.0587 25.875 70.1855 25.875 69.2749C25.875 68.3643 26.2367 67.491 26.8806 66.8472C27.5245 66.2033 28.3978 65.8416 29.3083 65.8416H50.6917C51.6022 65.8416 52.4755 66.2033 53.1194 66.8472C53.7633 67.491 54.125 68.3643 54.125 69.2749C54.125 70.1855 53.7633 71.0587 53.1194 71.7026C52.4755 72.3465 51.6022 72.7082 50.6917 72.7082ZM29.3083 67.0916C28.7293 67.0916 28.1739 67.3216 27.7645 67.731C27.355 68.1405 27.125 68.6958 27.125 69.2749C27.125 69.8539 27.355 70.4093 27.7645 70.8187C28.1739 71.2282 28.7293 71.4582 29.3083 71.4582H50.6917C51.2707 71.4582 51.8261 71.2282 52.2355 70.8187C52.645 70.4093 52.875 69.8539 52.875 69.2749C52.875 68.6958 52.645 68.1405 52.2355 67.731C51.8261 67.3216 51.2707 67.0916 50.6917 67.0916H29.3083Z" fill="black"/>
<path d="M40.95 78.1249H38.9751C37.3719 78.1249 35.8344 77.4887 34.7 76.3559C33.5656 75.2231 32.9273 73.6864 32.925 72.0833C32.925 71.9175 32.9909 71.7585 33.1081 71.6413C33.2253 71.5241 33.3843 71.4583 33.55 71.4583H46.3751C46.5408 71.4583 46.6998 71.5241 46.817 71.6413C46.9342 71.7585 47.0001 71.9175 47.0001 72.0833C46.9978 73.6864 46.3595 75.2231 45.2251 76.3559C44.0907 77.4887 42.5532 78.1249 40.95 78.1249ZM34.2167 72.7083C34.3702 73.8615 34.9373 74.9197 35.8126 75.6861C36.6878 76.4525 37.8117 76.875 38.9751 76.8749H40.95C42.1134 76.875 43.2373 76.4525 44.1125 75.6861C44.9878 74.9197 45.5549 73.8615 45.7084 72.7083H34.2167Z" fill="black"/>
</svg>
