<svg width="80" height="80" viewBox="0 0 80 80" fill="none" xmlns="http://www.w3.org/2000/svg">
<path d="M74.2088 36.9416C74.0554 36.9404 73.9078 36.8829 73.7941 36.7799C73.6803 36.677 73.6085 36.5358 73.5921 36.3833C72.7449 28.718 69.3118 21.5699 63.8587 16.1167C58.4055 10.6635 51.2574 7.23052 43.5921 6.38328C43.5001 6.38909 43.4079 6.37446 43.3222 6.34045C43.2365 6.30644 43.1594 6.25388 43.0964 6.18655C43.0334 6.11923 42.986 6.03879 42.9578 5.95102C42.9295 5.86324 42.9211 5.7703 42.933 5.67887C42.9449 5.58743 42.9768 5.49976 43.0266 5.42214C43.0764 5.34452 43.1427 5.27887 43.2209 5.22991C43.299 5.18095 43.387 5.14988 43.4786 5.13894C43.5701 5.128 43.663 5.13745 43.7504 5.16661C51.6914 6.04731 59.096 9.60522 64.7456 15.2548C70.3952 20.9043 73.9531 28.3089 74.8338 36.2499C74.8502 36.4155 74.8008 36.5808 74.6963 36.7102C74.5919 36.8396 74.4407 36.9227 74.2754 36.9416H74.2088Z" fill="#380017"/>
<path d="M5.83382 36.9417H5.72548C5.56024 36.9228 5.40906 36.8396 5.30459 36.7102C5.20012 36.5808 5.15075 36.4155 5.16715 36.25C6.04785 28.309 9.60575 20.9044 15.2553 15.2548C20.9049 9.60526 28.3095 6.04736 36.2505 5.16666C36.416 5.15027 36.5813 5.19963 36.7107 5.3041C36.8401 5.40857 36.9233 5.55975 36.9422 5.72499C36.9584 5.88959 36.9088 6.05394 36.8042 6.18203C36.6995 6.31011 36.5484 6.39149 36.3838 6.40833C28.7185 7.25557 21.5705 10.6886 16.1173 16.1418C10.6641 21.595 7.23106 28.743 6.38382 36.4083C6.36432 36.5457 6.29969 36.6726 6.20011 36.7691C6.10054 36.8657 5.97168 36.9264 5.83382 36.9417Z" fill="#380017"/>
<path d="M36.3163 74.8334H36.2496C28.3086 73.9527 20.904 70.3948 15.2544 64.7452C9.60487 59.0957 6.04696 51.6911 5.16626 43.7501C5.1536 43.6667 5.15795 43.5815 5.17907 43.4998C5.20018 43.4182 5.23762 43.3416 5.28912 43.2748C5.34062 43.2079 5.40513 43.1522 5.47874 43.111C5.55235 43.0697 5.63356 43.0438 5.71745 43.0348C5.80134 43.0258 5.88619 43.0339 5.96688 43.0586C6.04758 43.0832 6.12244 43.124 6.18695 43.1783C6.25147 43.2327 6.30431 43.2996 6.34229 43.3749C6.38027 43.4503 6.4026 43.5325 6.40793 43.6168C7.25517 51.2821 10.6882 58.4301 16.1414 63.8833C21.5946 69.3365 28.7426 72.7695 36.4079 73.6167C36.5608 73.6408 36.6992 73.7206 36.7966 73.8409C36.8939 73.9611 36.9432 74.1132 36.9349 74.2677C36.9266 74.4221 36.8613 74.5681 36.7517 74.6772C36.642 74.7863 36.4958 74.8509 36.3413 74.8584L36.3163 74.8334Z" fill="#380017"/>
<path d="M43.6834 74.8333C43.5289 74.8257 43.3827 74.7612 43.273 74.652C43.1634 74.5429 43.0981 74.397 43.0898 74.2425C43.0815 74.088 43.1308 73.936 43.2281 73.8157C43.3255 73.6955 43.4639 73.6156 43.6168 73.5916C51.2821 72.7444 58.4301 69.3114 63.8833 63.8582C69.3365 58.405 72.7695 51.2569 73.6167 43.5916C73.6221 43.5074 73.6444 43.4251 73.6824 43.3498C73.7204 43.2744 73.7732 43.2076 73.8377 43.1532C73.9022 43.0988 73.9771 43.0581 74.0578 43.0334C74.1385 43.0087 74.2233 43.0007 74.3072 43.0097C74.3911 43.0187 74.4723 43.0446 74.5459 43.0858C74.6196 43.1271 74.6841 43.1828 74.7356 43.2496C74.7871 43.3164 74.8245 43.393 74.8456 43.4747C74.8667 43.5564 74.8711 43.6415 74.8584 43.7249C73.982 51.6742 70.4228 59.0876 64.7678 64.7426C59.1127 70.3977 51.6994 73.9568 43.7501 74.8333H43.6834Z" fill="#380017"/>
<path d="M64.6833 36.9418C64.5332 36.9432 64.3877 36.8898 64.2742 36.7916C64.1607 36.6934 64.0869 36.5572 64.0666 36.4085C63.2759 31.2613 60.8641 26.5005 57.1818 22.8182C53.4995 19.136 48.7387 16.7242 43.5916 15.9335C43.5061 15.9269 43.4228 15.9027 43.347 15.8626C43.2712 15.8224 43.2045 15.767 43.151 15.7C43.0975 15.6329 43.0584 15.5555 43.0361 15.4727C43.0138 15.3898 43.0088 15.3033 43.0214 15.2184C43.0341 15.1335 43.064 15.0522 43.1094 14.9794C43.1548 14.9066 43.2148 14.844 43.2854 14.7954C43.3561 14.7467 43.4361 14.7132 43.5203 14.6968C43.6045 14.6804 43.6912 14.6815 43.7749 14.7001C49.1874 15.5281 54.1941 18.0626 58.0658 21.9343C61.9375 25.806 64.4719 30.8127 65.2999 36.2251C65.3238 36.3886 65.282 36.5549 65.1836 36.6876C65.0852 36.8204 64.9383 36.9088 64.7749 36.9335L64.6833 36.9418Z" fill="#380017"/>
<path d="M15.3166 36.9418H15.2249C15.0616 36.9171 14.9146 36.8287 14.8162 36.6959C14.7179 36.5632 14.676 36.3969 14.6999 36.2334C15.5263 30.8195 18.06 25.8109 21.9319 21.9376C25.8037 18.0642 30.8113 15.5286 36.2249 14.7001C36.3826 14.6879 36.539 14.736 36.6626 14.8346C36.7863 14.9332 36.8679 15.0749 36.8912 15.2313C36.9144 15.3878 36.8775 15.5472 36.7879 15.6774C36.6983 15.8077 36.5626 15.8992 36.4083 15.9334C31.2616 16.7233 26.5013 19.135 22.8202 22.8176C19.1391 26.5002 16.7293 31.2614 15.9416 36.4084C15.9178 36.5571 15.8419 36.6925 15.7273 36.7902C15.6128 36.8879 15.4672 36.9417 15.3166 36.9418Z" fill="#380017"/>
<path d="M36.3166 65.3083H36.2249C30.8113 64.4798 25.8037 61.9442 21.9319 58.0709C18.06 54.1975 15.5263 49.1889 14.6999 43.775C14.676 43.6115 14.7179 43.4452 14.8162 43.3125C14.9146 43.1797 15.0616 43.0913 15.2249 43.0666C15.3065 43.0536 15.3899 43.0569 15.4702 43.0763C15.5505 43.0957 15.6261 43.1308 15.6928 43.1796C15.7594 43.2285 15.8157 43.29 15.8584 43.3607C15.9011 43.4315 15.9294 43.5099 15.9416 43.5917C16.7293 48.7386 19.1391 53.4999 22.8202 57.1825C26.5013 60.8651 31.2616 63.2768 36.4083 64.0666C36.5623 64.0919 36.7014 64.174 36.798 64.2967C36.8946 64.4193 36.9418 64.5737 36.9303 64.7294C36.9188 64.8851 36.8494 65.0309 36.7359 65.138C36.6223 65.2452 36.4727 65.3059 36.3166 65.3083Z" fill="#380017"/>
<path d="M43.6838 65.3083C43.5276 65.3059 43.3781 65.2451 43.2645 65.138C43.1509 65.0308 43.0816 64.8851 43.0701 64.7294C43.0586 64.5736 43.1058 64.4193 43.2024 64.2966C43.299 64.174 43.438 64.0919 43.5921 64.0666C48.7392 63.2759 53.5 60.8641 57.1823 57.1818C60.8646 53.4995 63.2764 48.7387 64.0671 43.5916C64.0737 43.5061 64.0978 43.4228 64.138 43.347C64.1782 43.2712 64.2335 43.2045 64.3006 43.151C64.3677 43.0975 64.445 43.0584 64.5279 43.0361C64.6107 43.0138 64.6973 43.0088 64.7821 43.0214C64.867 43.0341 64.9483 43.064 65.0211 43.1094C65.0939 43.1548 65.1566 43.2148 65.2052 43.2854C65.2538 43.3561 65.2873 43.4361 65.3037 43.5203C65.3201 43.6045 65.319 43.6912 65.3004 43.7749C64.4724 49.1874 61.938 54.1941 58.0663 58.0658C54.1946 61.9375 49.1879 64.4719 43.7754 65.2999L43.6838 65.3083Z" fill="#380017"/>
<path d="M40 53.625C37.3052 53.625 34.671 52.8259 32.4304 51.3288C30.1897 49.8316 28.4434 47.7037 27.4121 45.2141C26.3809 42.7244 26.1111 39.9849 26.6368 37.3419C27.1625 34.6989 28.4602 32.2712 30.3657 30.3657C32.2712 28.4602 34.6989 27.1625 37.3419 26.6368C39.9849 26.1111 42.7244 26.3809 45.2141 27.4121C47.7037 28.4434 49.8316 30.1897 51.3288 32.4304C52.8259 34.671 53.625 37.3052 53.625 40C53.6206 43.6122 52.1837 47.0752 49.6295 49.6295C47.0752 52.1837 43.6122 53.6206 40 53.625ZM40 27.625C37.5525 27.625 35.1599 28.3508 33.1248 29.7106C31.0898 31.0704 29.5036 33.0031 28.567 35.2643C27.6304 37.5255 27.3853 40.0137 27.8628 42.4142C28.3403 44.8148 29.5189 47.0198 31.2496 48.7505C32.9802 50.4811 35.1852 51.6597 37.5858 52.1372C39.9863 52.6147 42.4745 52.3696 44.7357 51.433C46.997 50.4964 48.9297 48.9102 50.2894 46.8752C51.6492 44.8401 52.375 42.4475 52.375 40C52.3761 38.3746 52.0568 36.7649 51.4352 35.263C50.8137 33.7611 49.9022 32.3965 48.7529 31.2471C47.6036 30.0978 46.2389 29.1863 44.737 28.5648C43.2351 27.9433 41.6254 27.6239 40 27.625Z" fill="#380017"/>
<path d="M40 19.1667C39.8349 19.1645 39.6772 19.098 39.5604 18.9812C39.4437 18.8645 39.3772 18.7068 39.375 18.5417V2.5C39.375 2.33424 39.4408 2.17527 39.5581 2.05806C39.6753 1.94085 39.8342 1.875 40 1.875C40.1658 1.875 40.3247 1.94085 40.4419 2.05806C40.5592 2.17527 40.625 2.33424 40.625 2.5V18.5333C40.625 18.6999 40.5594 18.8597 40.4425 18.9782C40.3255 19.0968 40.1665 19.1645 40 19.1667Z" fill="#380017"/>
<path d="M40 78.1249C39.8349 78.1227 39.6772 78.0562 39.5604 77.9394C39.4437 77.8227 39.3772 77.665 39.375 77.4999V61.4666C39.375 61.3008 39.4408 61.1418 39.5581 61.0246C39.6753 60.9074 39.8342 60.8416 40 60.8416C40.1658 60.8416 40.3247 60.9074 40.4419 61.0246C40.5592 61.1418 40.625 61.3008 40.625 61.4666V77.4999C40.6228 77.665 40.5563 77.8227 40.4396 77.9394C40.3228 78.0562 40.1651 78.1227 40 78.1249Z" fill="#380017"/>
<path d="M77.5001 40.625H61.4668C61.301 40.625 61.1421 40.5592 61.0249 40.4419C60.9076 40.3247 60.8418 40.1658 60.8418 40C60.8418 39.8342 60.9076 39.6753 61.0249 39.5581C61.1421 39.4408 61.301 39.375 61.4668 39.375H77.5001C77.6659 39.375 77.8249 39.4408 77.9421 39.5581C78.0593 39.6753 78.1251 39.8342 78.1251 40C78.1251 40.1658 78.0593 40.3247 77.9421 40.4419C77.8249 40.5592 77.6659 40.625 77.5001 40.625Z" fill="#380017"/>
<path d="M18.5333 40.625H2.5C2.33424 40.625 2.17527 40.5592 2.05806 40.4419C1.94085 40.3247 1.875 40.1658 1.875 40C1.875 39.8342 1.94085 39.6753 2.05806 39.5581C2.17527 39.4408 2.33424 39.375 2.5 39.375H18.5333C18.6991 39.375 18.8581 39.4408 18.9753 39.5581C19.0925 39.6753 19.1583 39.8342 19.1583 40C19.1583 40.1658 19.0925 40.3247 18.9753 40.4419C18.8581 40.5592 18.6991 40.625 18.5333 40.625Z" fill="#380017"/>
<path d="M39.9997 46.9417C39.0206 46.9918 38.0552 46.6951 37.2733 46.1037C36.4914 45.5123 35.9431 44.6641 35.7247 43.7084C35.6983 43.5448 35.7379 43.3775 35.8347 43.2431C35.9316 43.1087 36.0779 43.0183 36.2414 42.9917C36.3225 42.9774 36.4056 42.9796 36.4859 42.998C36.5662 43.0164 36.6419 43.0507 36.7087 43.0988C36.7755 43.147 36.832 43.208 36.8748 43.2784C36.9177 43.3487 36.946 43.4269 36.9581 43.5084C37.1341 44.1681 37.5335 44.7463 38.0881 45.1444C38.6428 45.5426 39.3184 45.736 39.9997 45.6917C40.5926 45.7178 41.1806 45.575 41.6955 45.28C42.2104 44.9849 42.6309 44.5497 42.9081 44.025C43.1095 43.5089 43.1249 42.9387 42.9515 42.4125C42.7782 41.8863 42.4269 41.437 41.9581 41.1417C41.3459 40.8403 40.6806 40.6619 39.9997 40.6167C39.4177 40.5688 38.8423 40.4599 38.2831 40.2917C37.5451 40.0589 36.8985 39.6011 36.4338 38.9825C35.969 38.3638 35.7095 37.6153 35.6914 36.8417C35.6914 34.75 37.6247 33.0584 40.0081 33.0584C40.9462 33.0193 41.8708 33.2927 42.6369 33.8356C43.403 34.3785 43.9674 35.1603 44.2414 36.0584C44.2789 36.2197 44.2508 36.3893 44.1633 36.5299C44.0758 36.6705 43.936 36.7707 43.7747 36.8084C43.6954 36.8282 43.6129 36.832 43.532 36.8196C43.4511 36.8073 43.3736 36.7789 43.3038 36.7363C43.234 36.6936 43.1733 36.6375 43.1254 36.5712C43.0775 36.5049 43.0433 36.4297 43.0247 36.35C42.8164 35.7237 42.4068 35.1838 41.8596 34.8145C41.3125 34.4452 40.6586 34.2673 39.9997 34.3084C38.3331 34.3084 36.9331 35.4417 36.9331 36.8084C36.9557 37.3169 37.1329 37.8063 37.4412 38.2114C37.7494 38.6164 38.174 38.9177 38.6581 39.075C39.1394 39.2139 39.6336 39.3033 40.1331 39.3417C40.983 39.3815 41.815 39.6001 42.5747 39.9834C43.3073 40.4287 43.8583 41.1194 44.1299 41.9325C44.4014 42.7457 44.376 43.6288 44.0581 44.425C43.7034 45.1966 43.1294 45.8467 42.4077 46.2942C41.686 46.7418 40.8486 46.967 39.9997 46.9417Z" fill="#380017"/>
<path d="M40 34.3084C39.8349 34.3062 39.6772 34.2397 39.5604 34.1229C39.4437 34.0062 39.3772 33.8485 39.375 33.6834V31.925C39.375 31.7593 39.4408 31.6003 39.5581 31.4831C39.6753 31.3659 39.8342 31.3 40 31.3C40.1658 31.3 40.3247 31.3659 40.4419 31.4831C40.5592 31.6003 40.625 31.7593 40.625 31.925V33.6834C40.625 33.8491 40.5592 34.0081 40.4419 34.1253C40.3247 34.2425 40.1658 34.3084 40 34.3084Z" fill="#380017"/>
<path d="M40 48.7C39.8349 48.6978 39.6772 48.6313 39.5604 48.5145C39.4437 48.3978 39.3772 48.2401 39.375 48.075V46.3167C39.375 46.1509 39.4408 45.9919 39.5581 45.8747C39.6753 45.7575 39.8342 45.6917 40 45.6917C40.1658 45.6917 40.3247 45.7575 40.4419 45.8747C40.5592 45.9919 40.625 46.1509 40.625 46.3167V48.075C40.625 48.2407 40.5592 48.3997 40.4419 48.5169C40.3247 48.6341 40.1658 48.7 40 48.7Z" fill="#380017"/>
</svg>
