<svg width="80" height="80" viewBox="0 0 80 80" fill="none" xmlns="http://www.w3.org/2000/svg">
<path d="M69.0212 33.2341H68.9361C68.7841 33.2176 68.6432 33.1463 68.5398 33.0335C68.4365 32.9208 68.3777 32.7742 68.3744 32.6213C68.3149 31.0128 67.7191 26.3575 65.8212 26.1447C62.5021 25.7788 58.4681 24.4426 57.2 21.8213C55.8687 22.8072 54.7452 24.0462 53.8937 25.4672C53.0423 26.8882 52.4797 28.4633 52.2383 30.1022C52.2158 30.2578 52.1381 30.4002 52.0194 30.5033C51.9006 30.6064 51.7487 30.6634 51.5915 30.6639C51.435 30.6604 51.2852 30.5995 51.1706 30.4928C51.0561 30.3861 50.9848 30.241 50.9702 30.0851C50.8624 28.7758 50.6083 27.4826 50.2127 26.2298C50.1532 26.0936 50.0595 25.9064 49.9489 25.6851C49.3276 24.4511 48.2468 22.383 49.0383 20.7234C49.2376 20.3189 49.5216 19.9621 49.8711 19.6772C50.2207 19.3923 50.6274 19.186 51.0638 19.0724C51.2766 18.0681 51.9915 15.5234 53.8298 14.817C54.9106 14.417 56.1447 14.7234 57.4893 15.7277C58.6893 13.7277 61.234 11.1064 64.3915 12.2043C65.3095 12.4475 66.1415 12.942 66.794 13.632C67.4465 14.3221 67.8936 15.1805 68.0851 16.1107C68.2893 16.7745 68.417 17.1575 68.7404 17.3532C69.1691 17.5512 69.6168 17.7051 70.0766 17.8128C72.034 18.349 75.3021 19.2511 74.7574 23.4298C74.3064 26.8936 72.1361 29.5745 70.7064 31.3447C70.3141 31.7779 69.9689 32.2514 69.6766 32.7575C69.6394 32.9005 69.5537 33.0262 69.4342 33.1131C69.3147 33.2 69.1688 33.2428 69.0212 33.2341ZM57.5149 20.1873C57.6035 20.1867 57.691 20.2071 57.7702 20.2468C57.8611 20.2874 57.9415 20.3485 58.005 20.4253C58.0684 20.502 58.1133 20.5924 58.1361 20.6894C58.7574 23.3788 63.3447 24.5873 65.9574 24.8766C68.3404 25.1405 69.1915 28.5447 69.4893 30.7575L69.6681 30.5447C71.0127 28.8426 73.0723 26.3745 73.4468 23.2681C73.8213 20.417 72.051 19.6936 69.6936 19.0128C69.1369 18.8903 68.5969 18.7018 68.0851 18.4511C67.7615 18.2201 67.4867 17.9276 67.2764 17.5902C67.0661 17.2529 66.9244 16.8773 66.8595 16.4851C66.7214 15.7564 66.3769 15.0826 65.8669 14.544C65.357 14.0054 64.7031 13.6246 63.983 13.4468C60.5787 12.2724 58.2893 16.9702 58.2638 17.0213C58.2217 17.1095 58.1599 17.1868 58.0831 17.2473C58.0064 17.3078 57.9168 17.3498 57.8212 17.3702C57.7241 17.3883 57.6241 17.3846 57.5285 17.3596C57.4329 17.3346 57.344 17.2889 57.2681 17.2256C56.0595 16.1617 55.0553 15.7617 54.2808 16.0511C52.9872 16.5192 52.3829 18.817 52.2638 19.6596C52.2463 19.7838 52.1925 19.9001 52.1093 19.994C52.026 20.0878 51.917 20.155 51.7957 20.1873C51.4655 20.2339 51.1507 20.3565 50.876 20.5456C50.6013 20.7346 50.3742 20.9849 50.2127 21.2766C49.7191 22.3745 50.6212 24.1788 51.0638 25.1405C51.1829 25.3873 51.2936 25.5915 51.3617 25.7532C51.509 26.1232 51.6257 26.5046 51.7106 26.8936C52.7876 24.1771 54.6935 21.8692 57.1574 20.2979C57.265 20.2307 57.3881 20.1925 57.5149 20.1873Z" fill="#380017"/>
<path d="M60.8936 43.8382C60.7232 43.8641 60.5494 43.8213 60.4106 43.7192C60.2717 43.6171 60.1791 43.4639 60.1532 43.2935C60.1272 43.1231 60.17 42.9493 60.2722 42.8105C60.3743 42.6716 60.5274 42.579 60.6978 42.5531C63.9744 41.4807 66.4936 37.0978 67.1149 35.651C67.1608 35.5385 67.2382 35.4417 67.3379 35.3722C67.4375 35.3028 67.5552 35.2636 67.6766 35.2595C68.1021 35.2595 69.3787 35.0552 69.7106 34.4084C70.0425 33.7616 69.4893 32.8254 68.9872 32.119C68.8993 31.9844 68.8662 31.8213 68.8947 31.6631C68.9231 31.5048 69.0111 31.3635 69.1404 31.268C69.209 31.219 69.2866 31.1841 69.3688 31.1653C69.451 31.1465 69.536 31.1441 69.6191 31.1583C69.7022 31.1726 69.7817 31.2031 69.8529 31.2483C69.9241 31.2934 69.9856 31.3521 70.034 31.4212C71.0468 32.851 71.3276 34.0595 70.8851 35.0127C70.3149 36.1616 68.8681 36.4765 68.1532 36.5616C67.4978 37.8893 64.9447 42.5701 61.1319 43.8212C61.0546 43.8436 60.9733 43.8494 60.8936 43.8382Z" fill="#380017"/>
<path d="M54.3319 41.0212C54.2214 41.0209 54.1127 40.9927 54.0159 40.9391C53.9192 40.8855 53.8376 40.8084 53.7787 40.7148C52.7467 38.8751 52.0847 36.8513 51.8298 34.7573C51.3684 34.6085 50.9482 34.3541 50.6024 34.0143C50.2567 33.6744 49.9951 33.2586 49.8383 32.7999C49.2766 30.9531 50.8766 28.902 50.9447 28.8084C50.9936 28.7348 51.0573 28.6721 51.1317 28.6244C51.2061 28.5767 51.2896 28.545 51.3769 28.5312C51.4642 28.5175 51.5535 28.522 51.6389 28.5445C51.7244 28.567 51.8043 28.6071 51.8735 28.6621C51.9426 28.7171 51.9997 28.7858 52.0409 28.864C52.0821 28.9422 52.1067 29.0281 52.1129 29.1163C52.1192 29.2044 52.1072 29.2929 52.0775 29.3762C52.0478 29.4594 52.0011 29.5356 51.9404 29.5999C51.5915 30.0509 50.749 31.4297 51.0894 32.4339C51.2253 32.7534 51.4377 33.0345 51.7078 33.2527C51.9779 33.4708 52.2974 33.6193 52.6383 33.685C52.7585 33.7232 52.8646 33.7961 52.9434 33.8945C53.0221 33.993 53.07 34.1126 53.0809 34.2382C53.2943 36.2778 53.9136 38.2542 54.9021 40.0509C54.9583 40.1481 54.9882 40.2583 54.9889 40.3705C54.9896 40.4828 54.9611 40.5933 54.9061 40.6912C54.8512 40.789 54.7717 40.8709 54.6755 40.9288C54.5793 40.9867 54.4697 41.0185 54.3575 41.0212H54.3319Z" fill="#380017"/>
<path d="M31.4894 67.8382C31.3201 67.8382 31.1577 67.771 31.038 67.6513C30.9183 67.5316 30.8511 67.3692 30.8511 67.1999C30.8511 48.2552 40.0426 45.8382 46.1702 44.2212C46.8851 44.034 47.566 43.8552 48.1958 43.6595C51.7872 42.5531 53.0213 38.834 53.0298 38.7999C53.0553 38.7148 53.0983 38.6359 53.156 38.5684C53.2137 38.5008 53.2849 38.446 53.3651 38.4076C53.4452 38.3691 53.5324 38.3478 53.6213 38.345C53.7101 38.3423 53.7985 38.358 53.8809 38.3914C53.9606 38.4165 54.0346 38.4572 54.0985 38.5112C54.1623 38.5651 54.2148 38.6313 54.2528 38.7058C54.2908 38.7802 54.3137 38.8615 54.3199 38.9449C54.3262 39.0283 54.3158 39.1121 54.2894 39.1914C53.8351 40.5054 53.0891 41.6995 52.1075 42.6841C51.1258 43.6687 49.934 44.4183 48.6213 44.8765C47.966 45.0808 47.2681 45.2595 46.5362 45.4552C40.4341 47.0637 32.1532 49.2425 32.1532 67.234C32.1444 67.4018 32.0697 67.5594 31.9455 67.6725C31.8212 67.7856 31.6573 67.8452 31.4894 67.8382Z" fill="#380017"/>
<path d="M77.7703 67.8382H77.6597C77.4936 67.8071 77.3462 67.7122 77.2492 67.5738C77.1522 67.4355 77.1132 67.2646 77.1405 67.0978C80.0341 51.3872 69.9235 47.7872 66.0767 46.4255C65.6937 46.2893 65.3703 46.1787 65.132 46.0765C64.2399 45.6808 63.5336 44.9582 63.1583 44.0573C62.7831 43.1564 62.7676 42.146 63.115 41.234C63.1413 41.1541 63.183 41.0801 63.2379 41.0164C63.2927 40.9526 63.3596 40.9002 63.4346 40.8623C63.5097 40.8244 63.5915 40.8016 63.6754 40.7953C63.7593 40.7889 63.8436 40.7992 63.9235 40.8255C64.0034 40.8517 64.0774 40.8935 64.1412 40.9483C64.2049 41.0032 64.2573 41.0701 64.2952 41.1451C64.3331 41.2202 64.3559 41.302 64.3622 41.3859C64.3685 41.4698 64.3583 41.5541 64.332 41.634C64.2469 41.8808 63.6171 44.051 65.6341 44.9021C65.8554 44.9957 66.1533 45.0978 66.4852 45.2255C70.1788 46.5446 81.4299 50.5531 78.3405 67.3531C78.3087 67.4837 78.2364 67.601 78.134 67.6881C78.0316 67.7752 77.9043 67.8277 77.7703 67.8382Z" fill="#380017"/>
<path d="M57.4807 70.4765C57.3476 70.4751 57.2181 70.4327 57.11 70.355C57.0018 70.2773 56.9203 70.1682 56.8765 70.0424C56.5971 68.9307 56.4937 67.782 56.5701 66.6382C56.5701 66.2127 56.5701 65.7871 56.5701 65.4382C56.5701 65.0892 56.5701 64.519 56.519 64.068C56.5106 62.7012 56.4111 61.3364 56.2212 59.9829C55.6167 56.3026 54.1786 52.8093 52.0169 49.7701C51.3871 48.919 50.2127 47.2169 51.3446 45.3531C51.7149 44.6922 52.2381 44.1295 52.8703 43.7119C53.5025 43.2944 54.2254 43.0342 54.9786 42.9531C54.9786 42.9531 55.1999 42.9531 55.5148 42.9531C55.0799 42.4868 54.5946 42.07 54.068 41.7105C53.7843 41.552 53.5692 41.2944 53.4637 40.9871C53.4253 40.8437 53.4175 40.6937 53.441 40.5471C53.4644 40.4004 53.5186 40.2603 53.5999 40.1361C53.7225 39.9667 53.8774 39.8231 54.0555 39.7136C54.2337 39.6041 54.4317 39.5307 54.6382 39.4978C55.0928 39.4547 55.5512 39.5219 55.9744 39.6935C58.5275 40.6212 60.3999 42.9616 61.6339 46.8424V46.9361C61.8552 48.3488 62.0935 51.4892 62.2807 54.0169C62.3744 55.2254 62.451 56.2807 62.5105 56.9275C62.9937 60.786 64.2406 64.5095 66.1786 67.8807C66.2582 68.0214 66.2823 68.1868 66.246 68.3443C66.2098 68.5018 66.1159 68.64 65.9829 68.7318C65.8442 68.8163 65.6783 68.844 65.5197 68.8091C65.3611 68.7743 65.2222 68.6795 65.1318 68.5446C63.1041 65.0329 61.7937 61.1537 61.2765 57.1318C61.2169 56.485 61.1318 55.4297 61.0382 54.1956C60.851 51.7275 60.6212 48.6467 60.4084 47.268C59.302 43.8637 57.7105 41.7616 55.5488 40.9786C55.3502 40.9006 55.1405 40.8547 54.9276 40.8424C55.685 41.3871 57.3361 42.7914 57.7105 44.1105C57.7512 44.2555 57.7394 44.4101 57.6771 44.5471C57.6148 44.6842 57.5061 44.7948 57.3701 44.8595C57.2339 44.924 57.0793 44.9389 56.9333 44.9016C56.7872 44.8643 56.6587 44.7771 56.5701 44.6552C56.1068 44.394 55.5776 44.2727 55.0467 44.3063C54.5058 44.3813 53.9897 44.5811 53.5392 44.8898C53.0887 45.1984 52.7162 45.6076 52.451 46.085C51.8552 47.0722 52.2041 47.9063 53.0637 49.0978C55.3324 52.2907 56.8457 55.9575 57.4893 59.8212C57.6899 61.2309 57.7951 62.6526 57.8041 64.0765C57.8041 64.5275 57.8041 64.9786 57.8041 65.4297C57.8041 65.8807 57.8041 66.2807 57.8041 66.7063C57.7389 67.6914 57.8192 68.6807 58.0424 69.6424C58.0759 69.7243 58.0921 69.8121 58.0899 69.9005C58.0876 69.9889 58.067 70.0758 58.0294 70.1559C57.9918 70.2359 57.938 70.3072 57.8714 70.3653C57.8048 70.4234 57.7268 70.4671 57.6424 70.4935C57.588 70.4956 57.5336 70.4898 57.4807 70.4765Z" fill="#380017"/>
<path d="M61.0212 47.7531C60.9117 47.752 60.804 47.7258 60.7063 47.6765C60.566 47.5913 60.4634 47.456 60.4191 47.298C60.3749 47.14 60.3923 46.971 60.468 46.8254C60.9446 45.9744 61.5744 44.502 61.4127 43.9488C61.1999 43.7956 61.0978 43.8126 61.0212 43.8382C60.7496 43.9901 60.5346 44.226 60.4084 44.5105C60.3385 44.6651 60.2099 44.7856 60.0511 44.8455C59.8923 44.9053 59.7162 44.8996 59.5616 44.8297C59.407 44.7597 59.2865 44.6312 59.2267 44.4724C59.1668 44.3136 59.1725 44.1375 59.2425 43.9829C59.5155 43.3824 60.0003 42.9036 60.6042 42.6382C60.8271 42.5629 61.0631 42.5346 61.2975 42.5551C61.5319 42.5756 61.7595 42.6444 61.9659 42.7573C62.1293 42.8456 62.2727 42.9669 62.3869 43.1133C62.5012 43.2598 62.5838 43.4284 62.6297 43.6084C63.0127 44.885 61.7786 47.0552 61.5829 47.4807C61.5198 47.5698 61.4353 47.6415 61.3371 47.6892C61.2389 47.7368 61.1302 47.7588 61.0212 47.7531Z" fill="#380017"/>
<path d="M51.7107 48.6978C51.5808 48.6972 51.4541 48.6569 51.3477 48.5824C51.2412 48.5079 51.16 48.4027 51.115 48.2808C50.5282 46.833 49.4615 45.6311 48.0937 44.8765C47.9413 44.802 47.8248 44.6701 47.7698 44.5097C47.7147 44.3493 47.7256 44.1736 47.8001 44.0212C47.8746 43.8688 48.0065 43.7523 48.1669 43.6972C48.3273 43.6422 48.503 43.6531 48.6554 43.7276C50.3186 44.629 51.6112 46.0874 52.3065 47.8467C52.3407 47.9264 52.3583 48.0121 52.3583 48.0988C52.3583 48.1855 52.3407 48.2713 52.3064 48.3509C52.2722 48.4306 52.2221 48.5024 52.1592 48.562C52.0963 48.6217 52.0219 48.6678 51.9405 48.6978C51.8644 48.7099 51.7868 48.7099 51.7107 48.6978Z" fill="#380017"/>
<path d="M61.4299 51.7192C61.2955 51.7204 61.1643 51.6787 61.0554 51.6C60.9291 51.502 60.8442 51.3602 60.8174 51.2027C60.7906 51.0451 60.8239 50.8832 60.9107 50.749C62.4194 48.7032 64.247 46.913 66.3235 45.4468C66.3931 45.3926 66.4731 45.3533 66.5586 45.3315C66.6441 45.3097 66.7332 45.3059 66.8202 45.3203C66.9073 45.3347 66.9904 45.367 67.0644 45.4151C67.1383 45.4632 67.2015 45.5262 67.2499 45.6C67.2983 45.6737 67.3308 45.7567 67.3455 45.8437C67.3602 45.9307 67.3567 46.0198 67.3353 46.1054C67.3138 46.191 67.2748 46.2712 67.2208 46.3409C67.1668 46.4107 67.0989 46.4685 67.0214 46.5107C65.0693 47.8929 63.3462 49.5729 61.915 51.4894C61.856 51.5611 61.782 51.6188 61.6981 51.6586C61.6143 51.6983 61.5227 51.719 61.4299 51.7192Z" fill="#380017"/>
<path d="M21.9234 17.4297C21.3891 17.4314 20.8663 17.2743 20.4214 16.9785C19.9764 16.6827 19.6293 16.2615 19.424 15.7682C19.2188 15.2748 19.1646 14.7317 19.2685 14.2076C19.3723 13.6834 19.6294 13.2019 20.0072 12.8241C20.385 12.4463 20.8665 12.1892 21.3907 12.0854C21.9148 11.9815 22.458 12.0357 22.9513 12.2409C23.4446 12.4462 23.8658 12.7933 24.1616 13.2383C24.4574 13.6832 24.6145 14.206 24.6128 14.7403C24.6105 15.4529 24.3265 16.1356 23.8226 16.6395C23.3187 17.1434 22.636 17.4274 21.9234 17.4297ZM21.9234 13.319C21.7281 13.3039 21.5318 13.3293 21.3467 13.3936C21.1617 13.458 20.9919 13.5599 20.8482 13.6929C20.7044 13.826 20.5897 13.9873 20.5112 14.1668C20.4327 14.3464 20.3922 14.5401 20.3922 14.7361C20.3922 14.932 20.4327 15.1257 20.5112 15.3053C20.5897 15.4848 20.7044 15.6461 20.8482 15.7792C20.9919 15.9122 21.1617 16.0141 21.3467 16.0785C21.5318 16.1428 21.7281 16.1682 21.9234 16.1531C22.2803 16.1254 22.6135 15.9641 22.8566 15.7014C23.0997 15.4387 23.2348 15.094 23.2348 14.7361C23.2348 14.3781 23.0997 14.0334 22.8566 13.7707C22.6135 13.508 22.2803 13.3467 21.9234 13.319Z" fill="#380017"/>
<path d="M14.6213 27.3787C14.5084 27.3801 14.3972 27.3508 14.2998 27.2938C14.2023 27.2368 14.1222 27.1544 14.0681 27.0553C14.0011 26.9528 13.9654 26.833 13.9654 26.7106C13.9654 26.5882 14.0011 26.4684 14.0681 26.3659L15.7702 23.9489L13.7617 21.8468C13.6791 21.7582 13.6226 21.6485 13.5986 21.5298C13.5746 21.4112 13.5839 21.2881 13.6255 21.1744C13.6676 21.0613 13.7413 20.9626 13.8379 20.8902C13.9345 20.8178 14.0498 20.7746 14.1702 20.7659L32.6808 19.3106C32.8467 19.3004 33.0104 19.3519 33.1404 19.4553L36.1787 22.0085C36.247 22.0666 36.3027 22.1382 36.3422 22.2187C36.3817 22.2992 36.4043 22.387 36.4085 22.4766C36.4093 22.5671 36.3916 22.6568 36.3565 22.7402C36.3214 22.8236 36.2696 22.899 36.2043 22.9617L33.3362 25.6851C33.2281 25.7849 33.0909 25.8475 32.9447 25.8638L14.6723 27.3787H14.6213ZM15.6766 21.9319L17.1319 23.4468C17.2405 23.5592 17.3054 23.7068 17.3148 23.8629C17.3241 24.0189 17.2774 24.1732 17.183 24.2978L15.9489 26L32.6894 24.6212L34.8936 22.5276L32.6043 20.6042L15.6766 21.9319Z" fill="#380017"/>
<path d="M12.9277 35.2171C12.7787 35.2187 12.634 35.1675 12.5192 35.0724L9.4809 32.5193C9.41181 32.4618 9.35562 32.3904 9.31602 32.3097C9.27643 32.2291 9.25431 32.141 9.25111 32.0512C9.25009 31.87 9.32041 31.6958 9.44685 31.5661L12.3234 28.8427C12.4275 28.7419 12.5624 28.6789 12.7064 28.6639L31.0469 27.149C31.1689 27.1413 31.2907 27.1674 31.3988 27.2245C31.5069 27.2815 31.5972 27.3673 31.6596 27.4724C31.7194 27.5793 31.7472 27.7011 31.7396 27.8234C31.7321 27.9456 31.6895 28.0631 31.6171 28.1618L29.9149 30.5788L31.9234 32.681C32.0053 32.7709 32.0602 32.882 32.0818 33.0017C32.1034 33.1214 32.0908 33.2447 32.0455 33.3575C32.0002 33.4704 31.924 33.5682 31.8256 33.6397C31.7272 33.7112 31.6107 33.7535 31.4894 33.7618L12.9788 35.2171H12.9277ZM10.8511 32.0001L13.1405 33.9235L30.0426 32.5958L28.5958 31.081C28.4843 30.9705 28.4168 30.8232 28.4058 30.6666C28.3948 30.5101 28.4412 30.3548 28.5362 30.2299L29.7788 28.5278L13.0383 29.9235L10.8511 32.0001Z" fill="#380017"/>
<path d="M44.2554 39.149C43.8026 39.149 43.36 39.0148 42.9835 38.7632C42.607 38.5117 42.3136 38.1541 42.1403 37.7358C41.9671 37.3175 41.9217 36.8571 42.0101 36.413C42.0984 35.9689 42.3164 35.561 42.6366 35.2409C42.9568 34.9207 43.3647 34.7026 43.8088 34.6143C44.2529 34.526 44.7132 34.5713 45.1315 34.7446C45.5499 34.9179 45.9074 35.2113 46.159 35.5878C46.4105 35.9643 46.5448 36.4069 46.5448 36.8597C46.5425 37.4662 46.3006 38.0472 45.8718 38.476C45.4429 38.9049 44.8619 39.1468 44.2554 39.149ZM44.2554 35.8469C44.0551 35.8469 43.8593 35.9063 43.6928 36.0176C43.5262 36.1289 43.3964 36.287 43.3198 36.4721C43.2431 36.6572 43.223 36.8608 43.2621 37.0573C43.3012 37.2537 43.3977 37.4342 43.5393 37.5758C43.6809 37.7174 43.8614 37.8139 44.0578 37.853C44.2543 37.8921 44.4579 37.872 44.643 37.7953C44.8281 37.7187 44.9862 37.5889 45.0975 37.4223C45.2088 37.2558 45.2682 37.06 45.2682 36.8597C45.2594 36.597 45.1488 36.3481 44.9598 36.1654C44.7708 35.9828 44.5182 35.8808 44.2554 35.881V35.8469Z" fill="#380017"/>
<path d="M47.6597 41.8722C47.2963 41.8689 46.9419 41.7583 46.641 41.5545C46.3401 41.3506 46.1061 41.0625 45.9682 40.7263C45.8303 40.39 45.7947 40.0205 45.8658 39.6641C45.9369 39.3077 46.1116 38.9802 46.368 38.7226C46.6244 38.465 46.9511 38.2888 47.3072 38.2161C47.6633 38.1433 48.0329 38.1773 48.3698 38.3136C48.7067 38.45 48.9959 38.6827 49.2011 38.9827C49.4063 39.2827 49.5185 39.6365 49.5235 39.9999C49.5269 40.246 49.4811 40.4903 49.3888 40.7185C49.2964 40.9466 49.1594 41.154 48.9857 41.3284C48.8121 41.5029 48.6053 41.6408 48.3776 41.7342C48.1499 41.8276 47.9058 41.8745 47.6597 41.8722ZM47.6597 39.4637C47.5469 39.4637 47.4367 39.4972 47.3429 39.5598C47.2491 39.6225 47.176 39.7115 47.1329 39.8157C47.0897 39.9199 47.0784 40.0346 47.1004 40.1452C47.1224 40.2558 47.1767 40.3574 47.2565 40.4372C47.3362 40.5169 47.4378 40.5712 47.5484 40.5932C47.6591 40.6152 47.7737 40.6039 47.8779 40.5608C47.9821 40.5176 48.0711 40.4445 48.1338 40.3507C48.1965 40.257 48.2299 40.1467 48.2299 40.034C48.2299 39.8827 48.1698 39.7377 48.0629 39.6307C47.956 39.5238 47.8109 39.4637 47.6597 39.4637Z" fill="#380017"/>
<path d="M21.2766 41.5574C20.121 41.5499 18.9826 41.2766 17.9495 40.7586C16.9165 40.2406 16.0165 39.4918 15.3192 38.5702C14.0896 39.6699 12.5683 40.3907 10.9385 40.6455C9.30866 40.9004 7.63991 40.6785 6.13332 40.0066C4.62673 39.3347 3.34658 38.2415 2.44712 36.8586C1.54767 35.4758 1.06729 33.8624 1.06388 32.2127C1.05871 30.4246 1.622 28.6811 2.67239 27.234C2.16857 25.872 1.91206 24.4309 1.91494 22.9787C1.91719 19.6764 3.22945 16.5098 5.56375 14.1739C7.89804 11.8381 11.0637 10.5236 14.366 10.5191C15.8333 10.5197 17.2887 10.782 18.6639 11.2936C19.5968 10.3724 20.7392 9.69102 21.9931 9.30796C23.247 8.92491 24.5751 8.85156 25.8636 9.09419C27.1521 9.33683 28.3626 9.88822 29.3913 10.7011C30.42 11.514 31.2363 12.5642 31.7703 13.7617C33.7522 13.39 35.8014 13.783 37.5053 14.8615C39.2092 15.94 40.4412 17.624 40.9532 19.5744C42.3613 20.3018 43.5444 21.3993 44.3752 22.749C45.206 24.0986 45.653 25.6493 45.6681 27.234C45.6826 29.2276 45.0063 31.1647 43.7543 32.7162C42.5023 34.2676 40.7517 35.3377 38.8 35.7447C38.4272 36.884 37.78 37.9142 36.9152 38.7445C36.0505 39.5748 34.9949 40.1797 33.8413 40.5059C32.6878 40.8322 31.4717 40.8697 30.3002 40.6153C29.1287 40.3608 28.0377 39.8222 27.1235 39.0468C26.3984 39.831 25.5228 40.4611 24.5491 40.8998C23.5753 41.3384 22.5231 41.5766 21.4554 41.6L21.2766 41.5574ZM15.4554 36.9447H15.5149C15.6137 36.9521 15.7092 36.983 15.7936 37.0348C15.878 37.0866 15.9488 37.1578 16 37.2425C16.5678 38.1747 17.3669 38.9444 18.3197 39.4767C19.2726 40.0091 20.3469 40.2861 21.4383 40.2808C22.4259 40.2625 23.397 40.0238 24.2804 39.582C25.1639 39.1403 25.9375 38.5067 26.5447 37.7276C26.6002 37.655 26.6708 37.5953 26.7516 37.5527C26.8324 37.5101 26.9216 37.4855 27.0128 37.4808C27.1039 37.4727 27.1957 37.4853 27.2812 37.5177C27.3667 37.5501 27.4437 37.6015 27.5064 37.6681C28.2498 38.4344 29.1831 38.9898 30.2113 39.2776C31.2394 39.5654 32.3255 39.5752 33.3587 39.3061C34.3918 39.037 35.3351 38.4986 36.0922 37.7458C36.8493 36.993 37.3931 36.0529 37.6681 35.0213C37.6992 34.9024 37.7639 34.7949 37.8544 34.7119C37.945 34.6289 38.0576 34.5738 38.1788 34.5532C39.7353 34.2951 41.1686 33.546 42.2691 32.4153C43.3695 31.2846 44.0795 29.8316 44.2954 28.2686C44.5112 26.7056 44.2215 25.1146 43.4686 23.728C42.7157 22.3414 41.5391 21.2319 40.1107 20.5617C40.0225 20.5195 39.9452 20.4577 39.8847 20.381C39.8242 20.3043 39.7822 20.2147 39.7618 20.1191C39.5661 19.2414 39.195 18.4124 38.6709 17.6817C38.1467 16.951 37.4803 16.3338 36.7116 15.8672C35.9429 15.4006 35.0878 15.0942 34.1978 14.9664C33.3077 14.8385 32.4009 14.8919 31.532 15.1234C31.3774 15.1649 31.2129 15.1468 31.071 15.0727C30.9291 14.9986 30.8203 14.8739 30.766 14.7234C30.3692 13.6125 29.6906 12.6237 28.7967 11.854C27.9027 11.0843 26.8241 10.56 25.6666 10.3326C24.5091 10.1053 23.3123 10.1825 22.1936 10.5569C21.0749 10.9312 20.0727 11.5898 19.2852 12.4681C19.1978 12.5662 19.0819 12.6346 18.9537 12.6636C18.8255 12.6926 18.6914 12.6808 18.5703 12.6298C16.5418 11.7989 14.3137 11.5835 12.1636 12.0103C10.0136 12.4372 8.03675 13.4874 6.47953 15.0301C4.9223 16.5728 3.85359 18.5398 3.40662 20.6857C2.95965 22.8317 3.1542 25.0617 3.96601 27.0979C4.00806 27.2011 4.02234 27.3136 4.0074 27.4241C3.99247 27.5346 3.94886 27.6392 3.8809 27.7276C2.86958 29.0036 2.32056 30.5846 2.32345 32.2127C2.32195 33.6781 2.76292 35.1098 3.58864 36.3204C4.41436 37.531 5.58636 38.4641 6.95121 38.9976C8.31607 39.531 9.81018 39.6399 11.238 39.3101C12.6657 38.9802 13.9607 38.227 14.9532 37.1489C15.0138 37.081 15.0888 37.0274 15.1727 36.992C15.2567 36.9567 15.3474 36.9405 15.4383 36.9447H15.4554Z" fill="#380017"/>
<path d="M21.9235 21.4382C21.7542 21.4382 21.5918 21.3709 21.4721 21.2512C21.3524 21.1315 21.2852 20.9692 21.2852 20.7999V16.7914C21.2852 16.6221 21.3524 16.4597 21.4721 16.34C21.5918 16.2203 21.7542 16.1531 21.9235 16.1531C22.0927 16.1531 22.2551 16.2203 22.3748 16.34C22.4945 16.4597 22.5618 16.6221 22.5618 16.7914V20.7999C22.5618 20.9692 22.4945 21.1315 22.3748 21.2512C22.2551 21.3709 22.0927 21.4382 21.9235 21.4382Z" fill="#380017"/>
<path d="M21.9235 29.1829C21.7549 29.1807 21.5938 29.1127 21.4745 28.9935C21.3553 28.8743 21.2874 28.7132 21.2852 28.5446V26.1361C21.2852 25.9668 21.3524 25.8045 21.4721 25.6848C21.5918 25.5651 21.7542 25.4978 21.9235 25.4978C22.0927 25.4978 22.2551 25.5651 22.3748 25.6848C22.4945 25.8045 22.5618 25.9668 22.5618 26.1361V28.5446C22.5595 28.7132 22.4916 28.8743 22.3724 28.9935C22.2531 29.1127 22.0921 29.1807 21.9235 29.1829Z" fill="#380017"/>
<path d="M21.9235 41.5575C21.7549 41.5553 21.5938 41.4874 21.4745 41.3681C21.3553 41.2489 21.2874 41.0878 21.2852 40.9192V33.8724C21.2852 33.7031 21.3524 33.5408 21.4721 33.4211C21.5918 33.3014 21.7542 33.2341 21.9235 33.2341C22.0927 33.2341 22.2551 33.3014 22.3748 33.4211C22.4945 33.5408 22.5618 33.7031 22.5618 33.8724V40.9192C22.5595 41.0878 22.4916 41.2489 22.3724 41.3681C22.2531 41.4874 22.0921 41.5553 21.9235 41.5575Z" fill="#380017"/>
</svg>
