<svg width="20" height="20" viewBox="0 0 20 20" fill="none" xmlns="http://www.w3.org/2000/svg">
<g id="Group">
<path id="Vector" d="M10 19C14.9706 19 19 14.9706 19 10C19 5.02944 14.9706 1 10 1C5.02944 1 1 5.02944 1 10C1 14.9706 5.02944 19 10 19Z" stroke="#380017"/>
<path id="Vector_2" d="M10 16.5C10.2761 16.5 10.5 16.2761 10.5 16C10.5 15.7239 10.2761 15.5 10 15.5C9.72386 15.5 9.5 15.7239 9.5 16C9.5 16.2761 9.72386 16.5 10 16.5Z" fill="#380017" stroke="#380017" stroke-width="0.5"/>
<path id="Vector_3" d="M10 14V12.581C10 11.637 10.604 10.799 11.5 10.5C11.9367 10.3544 12.3166 10.075 12.5858 9.70156C12.855 9.32809 12.9999 8.87939 13 8.419V7.906C13 6.3 11.7 5 10.094 5H10C9.20435 5 8.44129 5.31607 7.87868 5.87868C7.31607 6.44129 7 7.20435 7 8" stroke="#380017"/>
</g>
</svg>
