<svg width="44" height="44" viewBox="0 0 44 44" fill="none" xmlns="http://www.w3.org/2000/svg">
<circle cx="22" cy="22" r="22" fill="none"/>
<path d="M12.3516 29V14.7227H15.3789V29H12.3516ZM31.6387 29H27.791L21.5801 18.1992H21.4922C21.5182 18.6484 21.541 19.1009 21.5605 19.5566C21.5801 20.0124 21.5996 20.4681 21.6191 20.9238C21.6387 21.373 21.6582 21.8255 21.6777 22.2812V29H18.9727V14.7227H22.791L28.9922 25.416H29.0605C29.0475 24.9733 29.0312 24.5339 29.0117 24.0977C28.9922 23.6615 28.9727 23.2253 28.9531 22.7891C28.9401 22.3529 28.9271 21.9167 28.9141 21.4805V14.7227H31.6387V29Z" fill="white"/>
</svg>
