<svg width="48" height="48" viewBox="0 0 48 48" fill="none" xmlns="http://www.w3.org/2000/svg">
<g id="entypo-social:vk-with-circle">
<path id="Vector" d="M23.6 1.6001C11.4496 1.6001 1.60001 11.4497 1.60001 23.6001C1.60001 35.7505 11.4496 45.6001 23.6 45.6001C35.7504 45.6001 45.6 35.7505 45.6 23.6001C45.6 11.4497 35.7504 1.6001 23.6 1.6001ZM32.0608 26.4211C32.0608 26.4211 34.0065 28.3416 34.4854 29.233C34.4992 29.2513 34.506 29.2697 34.5106 29.2788C34.7054 29.6066 34.7513 29.8609 34.655 30.0511C34.4946 30.3674 33.9446 30.5232 33.7567 30.537H30.3192C30.0808 30.537 29.5813 30.4751 28.9763 30.058C28.511 29.7326 28.0527 29.1986 27.6058 28.6784C26.939 27.9038 26.3615 27.2347 25.7794 27.2347C25.7055 27.2346 25.632 27.2462 25.5617 27.2691C25.1217 27.4111 24.5579 28.0391 24.5579 29.712C24.5579 30.2345 24.1454 30.5347 23.8544 30.5347H22.28C21.7438 30.5347 18.9502 30.3468 16.4752 27.7366C13.4456 24.5397 10.7185 18.1276 10.6956 18.068C10.5238 17.6532 10.879 17.4309 11.2663 17.4309H14.7381C15.201 17.4309 15.3523 17.7128 15.4577 17.9626C15.5815 18.2536 16.0352 19.4109 16.78 20.7126C17.9877 22.8347 18.7279 23.6963 19.3215 23.6963C19.4328 23.695 19.5421 23.6667 19.64 23.6138C20.4146 23.183 20.2702 20.4216 20.2358 19.8486C20.2358 19.7409 20.2335 18.6134 19.8371 18.0726C19.5529 17.6807 19.0694 17.5318 18.776 17.4768C18.8948 17.3129 19.0512 17.1801 19.2321 17.0895C19.7638 16.8236 20.7217 16.7847 21.6727 16.7847H22.2021C23.2333 16.7984 23.4992 16.8649 23.8727 16.9588C24.629 17.1399 24.645 17.628 24.5785 19.2986C24.5579 19.773 24.5373 20.3093 24.5373 20.9418C24.5373 21.0793 24.5304 21.2259 24.5304 21.3818C24.5075 22.232 24.48 23.1968 25.0804 23.5932C25.1587 23.6423 25.2492 23.6685 25.3417 23.6688C25.5502 23.6688 26.1781 23.6688 27.8785 20.7516C28.403 19.8126 28.8587 18.8368 29.2421 17.832C29.2765 17.7724 29.3773 17.5891 29.4965 17.518C29.5844 17.4732 29.6819 17.4504 29.7806 17.4516H33.8621C34.3067 17.4516 34.6115 17.518 34.6688 17.6899C34.7696 17.9626 34.6504 18.7945 32.7873 21.3176L31.9554 22.4153C30.2665 24.6291 30.2665 24.7413 32.0608 26.4211Z" fill="#380017"/>
</g>
</svg>
