<svg width="55" height="55" viewBox="0 0 55 55" fill="none" xmlns="http://www.w3.org/2000/svg">
<path d="M27.5 0C12.312 0 0 12.312 0 27.5C0 42.688 12.312 55 27.5 55C42.688 55 55 42.688 55 27.5C55 12.312 42.688 0 27.5 0ZM38.076 31.0263C38.076 31.0263 40.5081 33.4268 41.1068 34.5411C41.124 34.5641 41.1325 34.587 41.1383 34.5984C41.3818 35.0081 41.4391 35.326 41.3188 35.5638C41.1182 35.9591 40.4307 36.1539 40.1958 36.1711H35.899C35.601 36.1711 34.9766 36.0938 34.2203 35.5724C33.6388 35.1656 33.0659 34.4982 32.5073 33.8479C31.6737 32.8797 30.9518 32.0432 30.2242 32.0432C30.1318 32.0431 30.04 32.0576 29.9521 32.0862C29.4021 32.2638 28.6974 33.0487 28.6974 35.1398C28.6974 35.793 28.1818 36.1682 27.818 36.1682H25.85C25.1797 36.1682 21.6878 35.9333 18.594 32.6706C14.807 28.6745 11.3982 20.6594 11.3695 20.5849C11.1547 20.0664 11.5987 19.7885 12.0828 19.7885H16.4227C17.0013 19.7885 17.1904 20.1409 17.3221 20.4531C17.4768 20.8169 18.044 22.2635 18.975 23.8906C20.4846 26.5432 21.4099 27.6203 22.1518 27.6203C22.2909 27.6187 22.4276 27.5833 22.55 27.5172C23.5182 26.9786 23.3378 23.5268 23.2948 22.8107C23.2948 22.676 23.2919 21.2667 22.7964 20.5906C22.4411 20.1008 21.8367 19.9146 21.4701 19.8458C21.6185 19.641 21.814 19.475 22.0401 19.3617C22.7047 19.0294 23.9021 18.9807 25.0909 18.9807H25.7526C27.0417 18.9979 27.374 19.081 27.8409 19.1984C28.7862 19.4247 28.8062 20.0349 28.7232 22.1232C28.6974 22.7161 28.6716 23.3865 28.6716 24.1771C28.6716 24.349 28.663 24.5323 28.663 24.7271C28.6344 25.7898 28.6 26.9958 29.3505 27.4914C29.4484 27.5528 29.5615 27.5855 29.6771 27.5859C29.9378 27.5859 30.7227 27.5859 32.8482 23.9393C33.5037 22.7656 34.0733 21.5459 34.5526 20.2898C34.5956 20.2154 34.7216 19.9862 34.8706 19.8974C34.9805 19.8414 35.1024 19.8128 35.2258 19.8143H40.3276C40.8833 19.8143 41.2643 19.8974 41.3359 20.1122C41.462 20.4531 41.313 21.493 38.9841 24.6469L37.9443 26.019C35.8331 28.7862 35.8331 28.9266 38.076 31.0263Z" fill="#ffffff"/>
</svg>
