<svg width="55" height="55" viewBox="0 0 55 55" fill="none" xmlns="http://www.w3.org/2000/svg">
<circle cx="27.5" cy="27.5" r="27.5" fill="#fff"/>
<path d="M16.1562 37V19.8672H19.7891V37H16.1562ZM39.3008 37H34.6836L27.2305 24.0391H27.125C27.1562 24.5781 27.1836 25.1211 27.207 25.668C27.2305 26.2148 27.2539 26.7617 27.2773 27.3086C27.3008 27.8477 27.3242 28.3906 27.3477 28.9375V37H24.1016V19.8672H28.6836L36.125 32.6992H36.207C36.1914 32.168 36.1719 31.6406 36.1484 31.1172C36.125 30.5938 36.1016 30.0703 36.0781 29.5469C36.0625 29.0234 36.0469 28.5 36.0312 27.9766V19.8672H39.3008V37Z" fill="#21000D"/>
</svg>
