<svg width="60" height="60" viewBox="0 0 60 60" fill="none" xmlns="http://www.w3.org/2000/svg">
<path d="M29.5 2C14.32 2 2 14.32 2 29.5C2 44.68 14.32 57 29.5 57C44.68 57 57 44.68 57 29.5C57 14.32 44.68 2 29.5 2ZM42.26 20.7C41.8475 25.045 40.06 35.605 39.1525 40.4725C38.7675 42.535 37.9975 43.2225 37.2825 43.305C35.6875 43.4425 34.4775 42.26 32.9375 41.2425C30.5175 39.6475 29.1425 38.6575 26.805 37.1175C24.0825 35.33 25.8425 34.34 27.41 32.745C27.8225 32.3325 34.8625 25.925 35 25.3475C35.0191 25.26 35.0166 25.1692 34.9926 25.083C34.9686 24.9967 34.924 24.9176 34.8625 24.8525C34.6975 24.715 34.4775 24.77 34.285 24.7975C34.0375 24.8525 30.1875 27.41 22.68 32.47C21.58 33.2125 20.59 33.5975 19.71 33.57C18.72 33.5425 16.85 33.02 15.4475 32.5525C13.715 32.0025 12.3675 31.7 12.4775 30.7375C12.5325 30.2425 13.22 29.7475 14.5125 29.225C22.5425 25.7325 27.8775 23.4225 30.545 22.3225C38.19 19.1325 39.7575 18.5825 40.8025 18.5825C41.0225 18.5825 41.545 18.6375 41.875 18.9125C42.15 19.1325 42.2325 19.435 42.26 19.655C42.2325 19.82 42.2875 20.315 42.26 20.7Z" fill="white"/>
</svg>
